<svg xmlns="http://www.w3.org/2000/svg" version="1.1" xmlns:xlink="http://www.w3.org/1999/xlink" xmlns:svgjs="http://svgjs.dev/svgjs" width="1400" height="800" preserveAspectRatio="none" viewBox="0 0 1400 800"><g mask="url(&quot;#SvgjsMask1316&quot;)" fill="none"><rect width="1400" height="800" x="0" y="0" fill="#0e2a47"></rect><g mask="url(&quot;#SvgjsMask1318&quot;)"><path d="M702 726L714 714M702 666L714 654L714 642L714 630L714 618M702 690L714 678L714 666M702 738L714 726M714 762L714 750L714 738M702 810L702 798L714 786L714 774L714 762L702 750L702 738L702 726L702 714L702 702L702 690L702 678L702 666L702 654L702 642L702 630L702 618L702 606L702 594L702 582" stroke="url(&quot;#SvgjsLinearGradient1317&quot;)" stroke-width="2"></path><path d="M699 582 a3 3 0 1 0 6 0 a3 3 0 1 0 -6 0zM711 714 a3 3 0 1 0 6 0 a3 3 0 1 0 -6 0zM711 618 a3 3 0 1 0 6 0 a3 3 0 1 0 -6 0zM711 666 a3 3 0 1 0 6 0 a3 3 0 1 0 -6 0zM711 726 a3 3 0 1 0 6 0 a3 3 0 1 0 -6 0zM711 738 a3 3 0 1 0 6 0 a3 3 0 1 0 -6 0z" fill="url(&quot;#SvgjsLinearGradient1317&quot;)"></path><path d="M690 546L702 534L702 522L702 510M690 474L702 462L702 450L702 438L702 426L702 414L702 402M690 450L678 438M690 390L702 378L702 366L702 354L702 342M690 774L702 762M690 558L702 546L714 534L714 522M690 354L678 342M690 462L678 450M690 786L702 774M690 498L702 486L702 474L714 462L714 450L714 438L714 426L714 414L714 402L714 390L714 378L714 366M690 810L690 798L690 786L690 774L690 762L690 750L690 738L690 726L690 714L690 702L690 690L690 678L690 666L690 654L690 642L690 630L690 618L690 606L690 594L690 582L690 570L690 558L690 546L690 534L690 522L690 510L690 498L690 486L690 474L690 462L690 450L690 438L690 426L690 414L690 402L690 390L690 378L690 366L690 354L690 342L678 330" stroke="url(&quot;#SvgjsLinearGradient1317&quot;)" stroke-width="2"></path><path d="M675 330 a3 3 0 1 0 6 0 a3 3 0 1 0 -6 0zM699 510 a3 3 0 1 0 6 0 a3 3 0 1 0 -6 0zM699 402 a3 3 0 1 0 6 0 a3 3 0 1 0 -6 0zM675 438 a3 3 0 1 0 6 0 a3 3 0 1 0 -6 0zM699 342 a3 3 0 1 0 6 0 a3 3 0 1 0 -6 0zM699 762 a3 3 0 1 0 6 0 a3 3 0 1 0 -6 0zM711 522 a3 3 0 1 0 6 0 a3 3 0 1 0 -6 0zM675 342 a3 3 0 1 0 6 0 a3 3 0 1 0 -6 0zM675 450 a3 3 0 1 0 6 0 a3 3 0 1 0 -6 0zM699 774 a3 3 0 1 0 6 0 a3 3 0 1 0 -6 0zM711 366 a3 3 0 1 0 6 0 a3 3 0 1 0 -6 0z" fill="url(&quot;#SvgjsLinearGradient1317&quot;)"></path><path d="M726 582L714 570L714 558L714 546M726 606L714 594L714 582M726 702L714 690M714 810L714 798L726 786L726 774L726 762L726 750L726 738L726 726L726 714L726 702L726 690L726 678L726 666L726 654L726 642L726 630L726 618L726 606L726 594L726 582L726 570L726 558L726 546" stroke="url(&quot;#SvgjsLinearGradient1317&quot;)" stroke-width="2"></path><path d="M723 546 a3 3 0 1 0 6 0 a3 3 0 1 0 -6 0zM711 546 a3 3 0 1 0 6 0 a3 3 0 1 0 -6 0zM711 582 a3 3 0 1 0 6 0 a3 3 0 1 0 -6 0zM711 690 a3 3 0 1 0 6 0 a3 3 0 1 0 -6 0z" fill="url(&quot;#SvgjsLinearGradient1317&quot;)"></path><path d="M678 570L666 558L666 546L666 534M702 198L702 186L702 174L702 162L690 150L690 138L690 126L690 114M690 222L678 210L666 198L666 186L678 174L678 162L678 150L678 138L678 126L678 114M678 282L666 270L666 258L666 246L666 234L666 222L666 210L654 198L654 186L654 174L654 162L654 150L654 138L654 126M678 630L666 618L666 606L666 594L666 582L666 570M678 510L666 498L666 486L666 474M678 294L690 282L690 270L690 258M678 654L666 642L666 630M678 402L666 390L666 378M690 210L690 198M666 330L654 318L654 306L654 294L654 282L654 270L654 258L654 246M666 438L666 426L666 414L666 402M666 318L666 306L666 294M678 810L678 798L678 786L678 774L678 762L678 750L678 738L678 726L678 714L678 702L678 690L678 678L678 666L678 654L678 642L678 630L678 618L678 606L678 594L678 582L678 570L678 558L678 546L678 534L678 522L678 510L678 498L678 486L678 474L666 462L666 450L666 438L678 426L678 414L678 402L678 390L678 378L666 366L666 354L666 342L666 330L666 318L678 306L678 294L678 282L678 270L678 258L678 246L690 234L690 222L690 210L702 198L714 186L714 174" stroke="url(&quot;#SvgjsLinearGradient1317&quot;)" stroke-width="2"></path><path d="M711 174 a3 3 0 1 0 6 0 a3 3 0 1 0 -6 0zM663 534 a3 3 0 1 0 6 0 a3 3 0 1 0 -6 0zM687 114 a3 3 0 1 0 6 0 a3 3 0 1 0 -6 0zM675 114 a3 3 0 1 0 6 0 a3 3 0 1 0 -6 0zM651 126 a3 3 0 1 0 6 0 a3 3 0 1 0 -6 0zM663 570 a3 3 0 1 0 6 0 a3 3 0 1 0 -6 0zM663 474 a3 3 0 1 0 6 0 a3 3 0 1 0 -6 0zM687 258 a3 3 0 1 0 6 0 a3 3 0 1 0 -6 0zM663 630 a3 3 0 1 0 6 0 a3 3 0 1 0 -6 0zM663 378 a3 3 0 1 0 6 0 a3 3 0 1 0 -6 0zM687 198 a3 3 0 1 0 6 0 a3 3 0 1 0 -6 0zM651 246 a3 3 0 1 0 6 0 a3 3 0 1 0 -6 0zM663 402 a3 3 0 1 0 6 0 a3 3 0 1 0 -6 0zM663 294 a3 3 0 1 0 6 0 a3 3 0 1 0 -6 0z" fill="url(&quot;#SvgjsLinearGradient1317&quot;)"></path><path d="M738 738L750 726L750 714M762 498L762 486L762 474L762 462L762 450L762 438M738 534L726 522L726 510L726 498L726 486L726 474L726 462L726 450L726 438L726 426L726 414L726 402M750 510L750 498L750 486L750 474L750 462L750 450L750 438L750 426L750 414L750 402L750 390L750 378L750 366M774 462L786 450L786 438L786 426M738 750L750 738M774 474L786 462L798 450L798 438L798 426M726 810L726 798L738 786L738 774L738 762L738 750L738 738L738 726L738 714L738 702L738 690L738 678L738 666L738 654L738 642L738 630L738 618L738 606L738 594L738 582L738 570L738 558L738 546L738 534L738 522L750 510L762 498L774 486L774 474L774 462L774 450" stroke="url(&quot;#SvgjsLinearGradient1317&quot;)" stroke-width="2"></path><path d="M771 450 a3 3 0 1 0 6 0 a3 3 0 1 0 -6 0zM747 714 a3 3 0 1 0 6 0 a3 3 0 1 0 -6 0zM759 438 a3 3 0 1 0 6 0 a3 3 0 1 0 -6 0zM723 402 a3 3 0 1 0 6 0 a3 3 0 1 0 -6 0zM747 366 a3 3 0 1 0 6 0 a3 3 0 1 0 -6 0zM783 426 a3 3 0 1 0 6 0 a3 3 0 1 0 -6 0zM747 738 a3 3 0 1 0 6 0 a3 3 0 1 0 -6 0zM795 426 a3 3 0 1 0 6 0 a3 3 0 1 0 -6 0z" fill="url(&quot;#SvgjsLinearGradient1317&quot;)"></path><path d="M654 354L642 342M654 666L666 654M642 282L642 270L642 258L642 246L642 234L642 222L642 210L642 198L642 186L642 174L642 162L642 150L642 138M654 378L642 366L642 354M654 390L642 378M654 522L666 510M666 678L666 666M654 342L654 330M666 810L666 798L666 786L666 774L666 762L666 750L666 738L666 726L666 714L666 702L666 690L666 678L654 666L654 654L654 642L654 630L654 618L654 606L654 594L654 582L654 570L654 558L654 546L654 534L654 522L654 510L654 498L654 486L654 474L654 462L654 450L654 438L654 426L654 414L654 402L654 390L654 378L654 366L654 354L654 342L642 330L642 318L642 306L642 294L642 282L630 270" stroke="url(&quot;#SvgjsLinearGradient1317&quot;)" stroke-width="2"></path><path d="M627 270 a3 3 0 1 0 6 0 a3 3 0 1 0 -6 0zM639 342 a3 3 0 1 0 6 0 a3 3 0 1 0 -6 0zM663 654 a3 3 0 1 0 6 0 a3 3 0 1 0 -6 0zM639 138 a3 3 0 1 0 6 0 a3 3 0 1 0 -6 0zM639 354 a3 3 0 1 0 6 0 a3 3 0 1 0 -6 0zM639 378 a3 3 0 1 0 6 0 a3 3 0 1 0 -6 0zM663 510 a3 3 0 1 0 6 0 a3 3 0 1 0 -6 0zM663 666 a3 3 0 1 0 6 0 a3 3 0 1 0 -6 0zM651 330 a3 3 0 1 0 6 0 a3 3 0 1 0 -6 0z" fill="url(&quot;#SvgjsLinearGradient1317&quot;)"></path><path d="M738 810L738 798L750 786L750 774L750 762" stroke="url(&quot;#SvgjsLinearGradient1317&quot;)" stroke-width="2"></path><path d="M747 762 a3 3 0 1 0 6 0 a3 3 0 1 0 -6 0z" fill="url(&quot;#SvgjsLinearGradient1317&quot;)"></path><path d="M618 234L630 222L630 210L630 198L630 186L630 174M606 198L594 186L594 174L594 162L594 150M618 270L606 258L606 246L606 234M618 258L630 246M606 210L594 198L582 186M642 402L642 390M654 810L654 798L654 786L654 774L654 762L654 750L654 738L654 726L654 714L654 702L654 690L654 678L642 666L642 654L642 642L642 630L642 618L642 606L642 594L642 582L642 570L642 558L642 546L642 534L642 522L642 510L642 498L642 486L642 474L642 462L642 450L642 438L642 426L642 414L642 402L630 390L630 378L630 366L630 354L630 342L630 330L630 318L630 306L630 294L630 282L618 270L618 258L618 246L618 234L618 222L606 210L606 198L606 186" stroke="url(&quot;#SvgjsLinearGradient1317&quot;)" stroke-width="2"></path><path d="M603 186 a3 3 0 1 0 6 0 a3 3 0 1 0 -6 0zM627 174 a3 3 0 1 0 6 0 a3 3 0 1 0 -6 0zM591 150 a3 3 0 1 0 6 0 a3 3 0 1 0 -6 0zM603 234 a3 3 0 1 0 6 0 a3 3 0 1 0 -6 0zM627 246 a3 3 0 1 0 6 0 a3 3 0 1 0 -6 0zM579 186 a3 3 0 1 0 6 0 a3 3 0 1 0 -6 0zM639 390 a3 3 0 1 0 6 0 a3 3 0 1 0 -6 0z" fill="url(&quot;#SvgjsLinearGradient1317&quot;)"></path><path d="M762 714L762 702L762 690L762 678M750 654L762 642L762 630L762 618M750 558L762 546L762 534L750 522M762 750L774 738M762 774L774 762L774 750M750 582L762 570L762 558M750 810L750 798L762 786L762 774L762 762L762 750L762 738L762 726L762 714L750 702L750 690L750 678L750 666L750 654L750 642L750 630L750 618L750 606L750 594L750 582L750 570L750 558L750 546L750 534" stroke="url(&quot;#SvgjsLinearGradient1317&quot;)" stroke-width="2"></path><path d="M747 534 a3 3 0 1 0 6 0 a3 3 0 1 0 -6 0zM759 678 a3 3 0 1 0 6 0 a3 3 0 1 0 -6 0zM759 618 a3 3 0 1 0 6 0 a3 3 0 1 0 -6 0zM747 522 a3 3 0 1 0 6 0 a3 3 0 1 0 -6 0zM771 738 a3 3 0 1 0 6 0 a3 3 0 1 0 -6 0zM771 750 a3 3 0 1 0 6 0 a3 3 0 1 0 -6 0zM759 558 a3 3 0 1 0 6 0 a3 3 0 1 0 -6 0z" fill="url(&quot;#SvgjsLinearGradient1317&quot;)"></path><path d="M630 462L618 450L618 438L618 426L618 414M642 810L642 798L642 786L642 774L642 762L642 750L642 738L642 726L642 714L642 702L642 690L642 678L630 666L630 654L630 642L630 630L630 618L630 606L630 594L630 582L630 570L630 558L630 546L630 534L630 522L630 510L630 498L630 486L630 474L630 462L630 450L630 438L630 426L630 414L618 402L618 390L618 378L618 366L618 354L618 342L618 330L618 318L618 306" stroke="url(&quot;#SvgjsLinearGradient1317&quot;)" stroke-width="2"></path><path d="M615 306 a3 3 0 1 0 6 0 a3 3 0 1 0 -6 0zM615 414 a3 3 0 1 0 6 0 a3 3 0 1 0 -6 0z" fill="url(&quot;#SvgjsLinearGradient1317&quot;)"></path><path d="M762 810L762 798" stroke="url(&quot;#SvgjsLinearGradient1317&quot;)" stroke-width="2"></path><path d="M759 798 a3 3 0 1 0 6 0 a3 3 0 1 0 -6 0z" fill="url(&quot;#SvgjsLinearGradient1317&quot;)"></path><path d="M618 630L606 618M618 642L606 630M618 606L606 594M630 810L630 798L630 786L630 774L630 762L630 750L630 738L630 726L630 714L630 702L630 690L630 678L618 666L618 654L618 642L618 630L618 618L618 606L618 594L618 582L618 570L618 558L618 546L618 534L618 522L618 510L618 498L618 486L618 474" stroke="url(&quot;#SvgjsLinearGradient1317&quot;)" stroke-width="2"></path><path d="M615 474 a3 3 0 1 0 6 0 a3 3 0 1 0 -6 0zM603 618 a3 3 0 1 0 6 0 a3 3 0 1 0 -6 0zM603 630 a3 3 0 1 0 6 0 a3 3 0 1 0 -6 0zM603 594 a3 3 0 1 0 6 0 a3 3 0 1 0 -6 0z" fill="url(&quot;#SvgjsLinearGradient1317&quot;)"></path><path d="M774 786L774 774M798 690L786 678L786 666L786 654M798 702L786 690L774 678L774 666M774 810L774 798L774 786L786 774L786 762L786 750L798 738L798 726L798 714L798 702L798 690L798 678" stroke="url(&quot;#SvgjsLinearGradient1317&quot;)" stroke-width="2"></path><path d="M795 678 a3 3 0 1 0 6 0 a3 3 0 1 0 -6 0zM771 774 a3 3 0 1 0 6 0 a3 3 0 1 0 -6 0zM783 654 a3 3 0 1 0 6 0 a3 3 0 1 0 -6 0zM771 666 a3 3 0 1 0 6 0 a3 3 0 1 0 -6 0z" fill="url(&quot;#SvgjsLinearGradient1317&quot;)"></path><path d="M606 318L594 306L594 294L594 282L594 270L594 258M606 534L594 522M606 462L594 450L594 438L582 426M606 582L594 570L594 558M618 762L606 750L606 738L606 726L606 714L606 702L606 690M606 366L594 354L582 342M606 474L594 462L582 450L582 438L570 426L570 414L582 402L582 390L582 378L582 366L582 354L570 342L570 330L570 318L570 306L570 294M594 630L582 618L582 606L582 594L582 582M606 402L594 390L594 378L594 366M594 594L594 582M606 498L594 486L594 474L582 462L570 450L570 438L558 426L558 414L570 402L570 390L570 378L570 366M618 810L618 798L618 786L618 774L618 762L618 750L618 738L618 726L618 714L618 702L618 690L618 678L606 666L606 654L594 642L594 630L594 618L594 606L594 594L606 582L606 570L606 558L606 546L606 534L606 522L606 510L606 498L606 486L606 474L606 462L606 450L606 438L606 426L606 414L606 402L606 390L606 378L606 366L606 354L606 342L606 330L606 318L606 306L606 294L618 282" stroke="url(&quot;#SvgjsLinearGradient1317&quot;)" stroke-width="2"></path><path d="M615 282 a3 3 0 1 0 6 0 a3 3 0 1 0 -6 0zM591 258 a3 3 0 1 0 6 0 a3 3 0 1 0 -6 0zM591 522 a3 3 0 1 0 6 0 a3 3 0 1 0 -6 0zM579 426 a3 3 0 1 0 6 0 a3 3 0 1 0 -6 0zM591 558 a3 3 0 1 0 6 0 a3 3 0 1 0 -6 0zM603 690 a3 3 0 1 0 6 0 a3 3 0 1 0 -6 0zM579 342 a3 3 0 1 0 6 0 a3 3 0 1 0 -6 0zM567 294 a3 3 0 1 0 6 0 a3 3 0 1 0 -6 0zM579 582 a3 3 0 1 0 6 0 a3 3 0 1 0 -6 0zM591 366 a3 3 0 1 0 6 0 a3 3 0 1 0 -6 0zM591 582 a3 3 0 1 0 6 0 a3 3 0 1 0 -6 0zM567 366 a3 3 0 1 0 6 0 a3 3 0 1 0 -6 0z" fill="url(&quot;#SvgjsLinearGradient1317&quot;)"></path><path d="M846 402L834 390L834 378L834 366L834 354L834 342L834 330L834 318L822 306L822 294L822 282L822 270L822 258L822 246L822 234L822 222L810 210L810 198M834 474L846 462L846 450L846 438M810 618L810 606L810 594L810 582L810 570L810 558L810 546L810 534L810 522L810 510L810 498L810 486L810 474L810 462M846 414L834 402L822 390L822 378L822 366L822 354L822 342L822 330L822 318L810 306L810 294L810 282L810 270L810 258M834 522L846 510M834 234L846 222L846 210L846 198L846 186L834 174L834 162M834 246L846 234L858 222L858 210L870 198L870 186L858 174M810 666L798 654L798 642L798 630L798 618L798 606M846 426L834 414L822 402L810 390M834 462L822 450L822 438L822 426L822 414L810 402L798 390L798 378L798 366L798 354L798 342L798 330L798 318L798 306L798 294L798 282L798 270L798 258L798 246M834 534L822 522L822 510L822 498L822 486L822 474L822 462M834 486L846 474M846 318L846 306L846 294M786 810L786 798L786 786L798 774L798 762L798 750L810 738L810 726L810 714L810 702L810 690L810 678L810 666L810 654L810 642L810 630L810 618L822 606L822 594L822 582L822 570L822 558L834 546L834 534L834 522L834 510L834 498L834 486L834 474L834 462L834 450L834 438L846 426L846 414L846 402L846 390L846 378L846 366L846 354L846 342L846 330L846 318L834 306L834 294L834 282L834 270L834 258L834 246L834 234L834 222L834 210L834 198" stroke="url(&quot;#SvgjsLinearGradient1317&quot;)" stroke-width="2"></path><path d="M831 198 a3 3 0 1 0 6 0 a3 3 0 1 0 -6 0zM807 198 a3 3 0 1 0 6 0 a3 3 0 1 0 -6 0zM843 438 a3 3 0 1 0 6 0 a3 3 0 1 0 -6 0zM807 462 a3 3 0 1 0 6 0 a3 3 0 1 0 -6 0zM807 258 a3 3 0 1 0 6 0 a3 3 0 1 0 -6 0zM843 510 a3 3 0 1 0 6 0 a3 3 0 1 0 -6 0zM831 162 a3 3 0 1 0 6 0 a3 3 0 1 0 -6 0zM855 174 a3 3 0 1 0 6 0 a3 3 0 1 0 -6 0zM795 606 a3 3 0 1 0 6 0 a3 3 0 1 0 -6 0zM807 390 a3 3 0 1 0 6 0 a3 3 0 1 0 -6 0zM795 246 a3 3 0 1 0 6 0 a3 3 0 1 0 -6 0zM819 462 a3 3 0 1 0 6 0 a3 3 0 1 0 -6 0zM843 474 a3 3 0 1 0 6 0 a3 3 0 1 0 -6 0zM843 294 a3 3 0 1 0 6 0 a3 3 0 1 0 -6 0z" fill="url(&quot;#SvgjsLinearGradient1317&quot;)"></path><path d="M606 786L606 774L606 762M594 690L594 678L594 666L594 654L582 642M594 738L582 726L582 714M606 810L606 798L606 786L594 774L594 762L594 750L594 738L594 726L594 714L594 702L594 690L606 678" stroke="url(&quot;#SvgjsLinearGradient1317&quot;)" stroke-width="2"></path><path d="M603 678 a3 3 0 1 0 6 0 a3 3 0 1 0 -6 0zM603 762 a3 3 0 1 0 6 0 a3 3 0 1 0 -6 0zM579 642 a3 3 0 1 0 6 0 a3 3 0 1 0 -6 0zM579 714 a3 3 0 1 0 6 0 a3 3 0 1 0 -6 0z" fill="url(&quot;#SvgjsLinearGradient1317&quot;)"></path><path d="M858 402L870 390L870 378L882 366L882 354L882 342L882 330L882 318L882 306M858 474L870 462L870 450L870 438L870 426L870 414M846 546L858 534L870 522L870 510L870 498L870 486L870 474L882 462L882 450L882 438L882 426M858 354L870 342L870 330M858 318L870 306L870 294L882 282L882 270L882 258L870 246L870 234L882 222L882 210L882 198M846 534L846 522M858 366L870 354M858 498L846 486M846 570L834 558M846 582L834 570M798 810L798 798L798 786L810 774L810 762L810 750L822 738L822 726L822 714L822 702L822 690L822 678L822 666L822 654L822 642L822 630L822 618L834 606L834 594L846 582L846 570L846 558L846 546L846 534L858 522L858 510L858 498L858 486L858 474L858 462L858 450L858 438L858 426L858 414L858 402L858 390L858 378L858 366L858 354L858 342L858 330L858 318L858 306" stroke="url(&quot;#SvgjsLinearGradient1317&quot;)" stroke-width="2"></path><path d="M855 306 a3 3 0 1 0 6 0 a3 3 0 1 0 -6 0zM879 306 a3 3 0 1 0 6 0 a3 3 0 1 0 -6 0zM867 414 a3 3 0 1 0 6 0 a3 3 0 1 0 -6 0zM879 426 a3 3 0 1 0 6 0 a3 3 0 1 0 -6 0zM867 330 a3 3 0 1 0 6 0 a3 3 0 1 0 -6 0zM879 198 a3 3 0 1 0 6 0 a3 3 0 1 0 -6 0zM843 522 a3 3 0 1 0 6 0 a3 3 0 1 0 -6 0zM867 354 a3 3 0 1 0 6 0 a3 3 0 1 0 -6 0zM843 486 a3 3 0 1 0 6 0 a3 3 0 1 0 -6 0zM831 558 a3 3 0 1 0 6 0 a3 3 0 1 0 -6 0zM831 570 a3 3 0 1 0 6 0 a3 3 0 1 0 -6 0z" fill="url(&quot;#SvgjsLinearGradient1317&quot;)"></path><path d="M594 798L582 786M570 666L582 654M570 702L582 690L582 678L582 666M558 570L546 558M558 582L570 570L582 558L582 546L582 534L582 522L582 510L582 498M594 810L594 798L594 786L582 774L582 762L582 750L570 738L570 726L570 714L570 702L570 690L570 678L570 666L570 654L570 642L570 630L570 618L570 606L558 594L558 582L558 570L558 558" stroke="url(&quot;#SvgjsLinearGradient1317&quot;)" stroke-width="2"></path><path d="M555 558 a3 3 0 1 0 6 0 a3 3 0 1 0 -6 0zM579 786 a3 3 0 1 0 6 0 a3 3 0 1 0 -6 0zM579 654 a3 3 0 1 0 6 0 a3 3 0 1 0 -6 0zM579 666 a3 3 0 1 0 6 0 a3 3 0 1 0 -6 0zM543 558 a3 3 0 1 0 6 0 a3 3 0 1 0 -6 0zM579 498 a3 3 0 1 0 6 0 a3 3 0 1 0 -6 0z" fill="url(&quot;#SvgjsLinearGradient1317&quot;)"></path><path d="M834 690L846 678L846 666L846 654M834 630L846 618M834 642L846 630M810 810L810 798L810 786L822 774L822 762L822 750L834 738L834 726L834 714L834 702L834 690L834 678L834 666L834 654L834 642L834 630L834 618L846 606L846 594L858 582L858 570" stroke="url(&quot;#SvgjsLinearGradient1317&quot;)" stroke-width="2"></path><path d="M855 570 a3 3 0 1 0 6 0 a3 3 0 1 0 -6 0zM843 654 a3 3 0 1 0 6 0 a3 3 0 1 0 -6 0zM843 618 a3 3 0 1 0 6 0 a3 3 0 1 0 -6 0zM843 630 a3 3 0 1 0 6 0 a3 3 0 1 0 -6 0z" fill="url(&quot;#SvgjsLinearGradient1317&quot;)"></path><path d="M882 546L870 534M882 510L882 498L882 486M894 426L906 414L906 402L906 390M894 378L906 366L906 354L906 342L906 330M894 402L882 390L882 378M846 702L846 690M870 570L870 558L870 546M894 414L882 402M894 462L906 450L906 438L906 426L918 414L918 402L918 390L918 378L918 366L918 354L918 342L918 330M822 810L822 798L822 786L834 774L834 762L834 750L846 738L846 726L846 714L846 702L858 690L858 678L858 666L858 654L858 642L858 630L858 618L858 606L858 594L870 582L870 570L882 558L882 546L882 534L882 522L882 510L894 498L894 486L894 474L894 462L894 450L894 438L894 426L894 414L894 402L894 390L894 378L894 366L894 354L894 342L894 330" stroke="url(&quot;#SvgjsLinearGradient1317&quot;)" stroke-width="2"></path><path d="M891 330 a3 3 0 1 0 6 0 a3 3 0 1 0 -6 0zM867 534 a3 3 0 1 0 6 0 a3 3 0 1 0 -6 0zM879 486 a3 3 0 1 0 6 0 a3 3 0 1 0 -6 0zM903 390 a3 3 0 1 0 6 0 a3 3 0 1 0 -6 0zM903 330 a3 3 0 1 0 6 0 a3 3 0 1 0 -6 0zM879 378 a3 3 0 1 0 6 0 a3 3 0 1 0 -6 0zM843 690 a3 3 0 1 0 6 0 a3 3 0 1 0 -6 0zM867 546 a3 3 0 1 0 6 0 a3 3 0 1 0 -6 0zM879 402 a3 3 0 1 0 6 0 a3 3 0 1 0 -6 0zM915 330 a3 3 0 1 0 6 0 a3 3 0 1 0 -6 0z" fill="url(&quot;#SvgjsLinearGradient1317&quot;)"></path><path d="M558 618L546 606M558 630L546 618L534 606M558 654L546 642L546 630M570 810L570 798L570 786L570 774L570 762L570 750L558 738L558 726L558 714L558 702L558 690L558 678L558 666L558 654L558 642L558 630L558 618L558 606" stroke="url(&quot;#SvgjsLinearGradient1317&quot;)" stroke-width="2"></path><path d="M555 606 a3 3 0 1 0 6 0 a3 3 0 1 0 -6 0zM543 606 a3 3 0 1 0 6 0 a3 3 0 1 0 -6 0zM531 606 a3 3 0 1 0 6 0 a3 3 0 1 0 -6 0zM543 630 a3 3 0 1 0 6 0 a3 3 0 1 0 -6 0z" fill="url(&quot;#SvgjsLinearGradient1317&quot;)"></path><path d="M906 486L906 474L906 462M918 438L918 426M930 306L942 294L954 282L954 270M834 810L834 798L834 786L846 774L846 762L846 750L858 738L858 726L858 714L858 702L870 690L870 678L870 666L870 654L870 642L870 630L870 618L870 606L870 594L882 582L882 570L894 558L894 546L894 534L894 522L894 510L906 498L906 486L918 474L918 462L918 450L918 438L930 426L930 414L930 402L930 390L930 378L930 366L930 354L930 342L930 330L930 318L930 306L930 294" stroke="url(&quot;#SvgjsLinearGradient1317&quot;)" stroke-width="2"></path><path d="M927 294 a3 3 0 1 0 6 0 a3 3 0 1 0 -6 0zM903 462 a3 3 0 1 0 6 0 a3 3 0 1 0 -6 0zM915 426 a3 3 0 1 0 6 0 a3 3 0 1 0 -6 0zM951 270 a3 3 0 1 0 6 0 a3 3 0 1 0 -6 0z" fill="url(&quot;#SvgjsLinearGradient1317&quot;)"></path><path d="M522 618L510 606L510 594L510 582L510 570L510 558L510 546M522 390L534 378L534 366L534 354M522 570L534 558L534 546L534 534L534 522M522 402L534 390L546 378L546 366L546 354M522 522L510 510L510 498L510 486L510 474L498 462L498 450L498 438L486 426M522 438L510 426L510 414L510 402L510 390L510 378M522 318L534 306L534 294L534 282L534 270L534 258L534 246L534 234L534 222M522 186L534 174L534 162L534 150L534 138L534 126M522 486L534 474L534 462L534 450L546 438L546 426M546 678L546 666L546 654M522 462L510 450L510 438M522 498L534 486L546 474L546 462M522 414L534 402L546 390L558 378L558 366L570 354M558 810L558 798L558 786L558 774L558 762L558 750L546 738L546 726L546 714L546 702L546 690L546 678L534 666L534 654L534 642L522 630L522 618L522 606L522 594L522 582L522 570L522 558L522 546L522 534L522 522L522 510L522 498L522 486L522 474L522 462L522 450L522 438L522 426L522 414L522 402L522 390L522 378L522 366L522 354L522 342L522 330L522 318L522 306L522 294L522 282L522 270L522 258L522 246L522 234L522 222L522 210L522 198L522 186L522 174" stroke="url(&quot;#SvgjsLinearGradient1317&quot;)" stroke-width="2"></path><path d="M519 174 a3 3 0 1 0 6 0 a3 3 0 1 0 -6 0zM507 546 a3 3 0 1 0 6 0 a3 3 0 1 0 -6 0zM531 354 a3 3 0 1 0 6 0 a3 3 0 1 0 -6 0zM531 522 a3 3 0 1 0 6 0 a3 3 0 1 0 -6 0zM543 354 a3 3 0 1 0 6 0 a3 3 0 1 0 -6 0zM483 426 a3 3 0 1 0 6 0 a3 3 0 1 0 -6 0zM507 378 a3 3 0 1 0 6 0 a3 3 0 1 0 -6 0zM531 222 a3 3 0 1 0 6 0 a3 3 0 1 0 -6 0zM531 126 a3 3 0 1 0 6 0 a3 3 0 1 0 -6 0zM543 426 a3 3 0 1 0 6 0 a3 3 0 1 0 -6 0zM543 654 a3 3 0 1 0 6 0 a3 3 0 1 0 -6 0zM507 438 a3 3 0 1 0 6 0 a3 3 0 1 0 -6 0zM543 462 a3 3 0 1 0 6 0 a3 3 0 1 0 -6 0zM567 354 a3 3 0 1 0 6 0 a3 3 0 1 0 -6 0z" fill="url(&quot;#SvgjsLinearGradient1317&quot;)"></path><path d="M894 582L906 570M906 522L918 510M954 306L954 294M882 630L894 618L894 606L894 594M966 210L954 198L954 186L954 174L954 162L954 150M966 258L954 246L954 234M906 534L918 522M882 642L894 630M966 246L978 234L978 222L978 210L978 198M882 654L894 642M966 222L954 210L942 198L942 186L942 174L942 162L942 150L942 138L942 126L930 114M942 318L942 306M966 186L978 174L978 162M846 810L846 798L846 786L858 774L858 762L858 750L870 738L870 726L870 714L870 702L882 690L882 678L882 666L882 654L882 642L882 630L882 618L882 606L882 594L894 582L894 570L906 558L906 546L906 534L906 522L906 510L918 498L918 486L930 474L930 462L930 450L930 438L942 426L942 414L942 402L942 390L942 378L942 366L942 354L942 342L942 330L942 318L954 306L966 294L966 282L966 270L966 258L966 246L966 234L966 222L966 210L966 198L966 186L966 174L966 162" stroke="url(&quot;#SvgjsLinearGradient1317&quot;)" stroke-width="2"></path><path d="M963 162 a3 3 0 1 0 6 0 a3 3 0 1 0 -6 0zM903 570 a3 3 0 1 0 6 0 a3 3 0 1 0 -6 0zM915 510 a3 3 0 1 0 6 0 a3 3 0 1 0 -6 0zM951 294 a3 3 0 1 0 6 0 a3 3 0 1 0 -6 0zM891 594 a3 3 0 1 0 6 0 a3 3 0 1 0 -6 0zM951 150 a3 3 0 1 0 6 0 a3 3 0 1 0 -6 0zM951 234 a3 3 0 1 0 6 0 a3 3 0 1 0 -6 0zM915 522 a3 3 0 1 0 6 0 a3 3 0 1 0 -6 0zM891 630 a3 3 0 1 0 6 0 a3 3 0 1 0 -6 0zM975 198 a3 3 0 1 0 6 0 a3 3 0 1 0 -6 0zM891 642 a3 3 0 1 0 6 0 a3 3 0 1 0 -6 0zM927 114 a3 3 0 1 0 6 0 a3 3 0 1 0 -6 0zM939 306 a3 3 0 1 0 6 0 a3 3 0 1 0 -6 0zM975 162 a3 3 0 1 0 6 0 a3 3 0 1 0 -6 0z" fill="url(&quot;#SvgjsLinearGradient1317&quot;)"></path><path d="M546 762L534 750L522 738M546 774L534 762L522 750M534 702L522 690L522 678M534 714L522 702M510 630L510 618M546 810L546 798L546 786L546 774L546 762L546 750L534 738L534 726L534 714L534 702L534 690L534 678L522 666L522 654L522 642L510 630L498 618L498 606L498 594L498 582" stroke="url(&quot;#SvgjsLinearGradient1317&quot;)" stroke-width="2"></path><path d="M495 582 a3 3 0 1 0 6 0 a3 3 0 1 0 -6 0zM519 738 a3 3 0 1 0 6 0 a3 3 0 1 0 -6 0zM519 750 a3 3 0 1 0 6 0 a3 3 0 1 0 -6 0zM519 678 a3 3 0 1 0 6 0 a3 3 0 1 0 -6 0zM519 702 a3 3 0 1 0 6 0 a3 3 0 1 0 -6 0zM507 618 a3 3 0 1 0 6 0 a3 3 0 1 0 -6 0z" fill="url(&quot;#SvgjsLinearGradient1317&quot;)"></path><path d="M918 570L918 558L918 546L918 534M918 582L930 570M918 606L930 594L930 582M906 630L906 618L906 606L906 594L906 582M906 666L894 654M894 678L894 666M858 810L858 798L858 786L870 774L870 762L870 750L882 738L882 726L882 714L882 702L894 690L894 678L906 666L906 654L906 642L906 630L918 618L918 606L918 594L918 582L918 570L930 558L930 546L930 534L930 522L930 510L930 498L930 486L942 474L942 462L942 450L942 438L954 426L954 414L954 402L954 390L954 378L954 366L954 354L954 342L954 330L954 318L966 306L978 294L978 282L978 270L978 258" stroke="url(&quot;#SvgjsLinearGradient1317&quot;)" stroke-width="2"></path><path d="M975 258 a3 3 0 1 0 6 0 a3 3 0 1 0 -6 0zM915 534 a3 3 0 1 0 6 0 a3 3 0 1 0 -6 0zM927 570 a3 3 0 1 0 6 0 a3 3 0 1 0 -6 0zM927 582 a3 3 0 1 0 6 0 a3 3 0 1 0 -6 0zM903 582 a3 3 0 1 0 6 0 a3 3 0 1 0 -6 0zM891 654 a3 3 0 1 0 6 0 a3 3 0 1 0 -6 0zM891 666 a3 3 0 1 0 6 0 a3 3 0 1 0 -6 0z" fill="url(&quot;#SvgjsLinearGradient1317&quot;)"></path><path d="M510 690L498 678L498 666M486 414L498 402L498 390L498 378L498 366L510 354L510 342L510 330M486 342L486 330L486 318L486 306L486 294L486 282M474 498L462 486L462 474L462 462L462 450L462 438L462 426L462 414L462 402L474 390L474 378L462 366L462 354L462 342L462 330L462 318L462 306L462 294L462 282L462 270L462 258M474 510L486 498L486 486L486 474M522 798L534 786L534 774M474 462L486 450M486 366L474 354L474 342L474 330L474 318L474 306M522 774L522 762M486 534L498 522L498 510L498 498L498 486L498 474M498 330L498 318L498 306L498 294L498 282M534 810L522 798L522 786L522 774L510 762L510 750L510 738L510 726L510 714L510 702L510 690L510 678L510 666L510 654L510 642L498 630L486 618L486 606L486 594L486 582L486 570L486 558L486 546L486 534L486 522L474 510L474 498L474 486L474 474L474 462L474 450L474 438L474 426L486 414L486 402L486 390L486 378L486 366L486 354L486 342L498 330L510 318L510 306L510 294L510 282L510 270" stroke="url(&quot;#SvgjsLinearGradient1317&quot;)" stroke-width="2"></path><path d="M507 270 a3 3 0 1 0 6 0 a3 3 0 1 0 -6 0zM495 666 a3 3 0 1 0 6 0 a3 3 0 1 0 -6 0zM507 330 a3 3 0 1 0 6 0 a3 3 0 1 0 -6 0zM483 282 a3 3 0 1 0 6 0 a3 3 0 1 0 -6 0zM459 258 a3 3 0 1 0 6 0 a3 3 0 1 0 -6 0zM483 474 a3 3 0 1 0 6 0 a3 3 0 1 0 -6 0zM531 774 a3 3 0 1 0 6 0 a3 3 0 1 0 -6 0zM483 450 a3 3 0 1 0 6 0 a3 3 0 1 0 -6 0zM471 306 a3 3 0 1 0 6 0 a3 3 0 1 0 -6 0zM519 762 a3 3 0 1 0 6 0 a3 3 0 1 0 -6 0zM495 474 a3 3 0 1 0 6 0 a3 3 0 1 0 -6 0zM495 282 a3 3 0 1 0 6 0 a3 3 0 1 0 -6 0z" fill="url(&quot;#SvgjsLinearGradient1317&quot;)"></path><path d="M1002 210L990 198L990 186L990 174M1002 246L990 234L990 222L990 210M990 270L990 258L978 246M930 618L930 606M870 810L870 798L870 786L882 774L882 762L882 750L894 738L894 726L894 714L894 702L906 690L906 678L918 666L918 654L918 642L918 630L930 618L942 606L942 594L942 582L942 570L942 558L942 546L942 534L942 522L942 510L942 498L942 486L954 474L954 462L954 450L954 438L966 426L966 414L966 402L966 390L966 378L966 366L966 354L966 342L966 330L966 318L978 306L990 294L990 282L990 270L1002 258L1002 246L1002 234L1002 222L1002 210L1002 198L1002 186L1002 174" stroke="url(&quot;#SvgjsLinearGradient1317&quot;)" stroke-width="2"></path><path d="M999 174 a3 3 0 1 0 6 0 a3 3 0 1 0 -6 0zM987 174 a3 3 0 1 0 6 0 a3 3 0 1 0 -6 0zM987 210 a3 3 0 1 0 6 0 a3 3 0 1 0 -6 0zM975 246 a3 3 0 1 0 6 0 a3 3 0 1 0 -6 0zM927 606 a3 3 0 1 0 6 0 a3 3 0 1 0 -6 0z" fill="url(&quot;#SvgjsLinearGradient1317&quot;)"></path><path d="M882 810L882 798L882 786" stroke="url(&quot;#SvgjsLinearGradient1317&quot;)" stroke-width="2"></path><path d="M879 786 a3 3 0 1 0 6 0 a3 3 0 1 0 -6 0z" fill="url(&quot;#SvgjsLinearGradient1317&quot;)"></path><path d="M510 810L510 798L510 786L510 774L498 762L498 750L498 738L498 726L498 714L498 702" stroke="url(&quot;#SvgjsLinearGradient1317&quot;)" stroke-width="2"></path><path d="M495 702 a3 3 0 1 0 6 0 a3 3 0 1 0 -6 0z" fill="url(&quot;#SvgjsLinearGradient1317&quot;)"></path><path d="M1014 162L1002 150L1002 138L1002 126L1002 114M978 330L990 318L1002 306M978 342L990 330L1002 318M918 690L918 678M978 354L990 342L1002 330M1014 150L1026 138L1026 126L1014 114M894 810L894 798L894 786L894 774L894 762L894 750L906 738L906 726L906 714L906 702L918 690L930 678L930 666L930 654L930 642L930 630L942 618L954 606L954 594L954 582L954 570L954 558L954 546L954 534L954 522L954 510L954 498L954 486L966 474L966 462L966 450L966 438L978 426L978 414L978 402L978 390L978 378L978 366L978 354L978 342L978 330L978 318L990 306L1002 294L1002 282L1002 270L1014 258L1014 246L1014 234L1014 222L1014 210L1014 198L1014 186L1014 174L1014 162L1014 150L1014 138L1014 126" stroke="url(&quot;#SvgjsLinearGradient1317&quot;)" stroke-width="2"></path><path d="M1011 126 a3 3 0 1 0 6 0 a3 3 0 1 0 -6 0zM999 114 a3 3 0 1 0 6 0 a3 3 0 1 0 -6 0zM999 306 a3 3 0 1 0 6 0 a3 3 0 1 0 -6 0zM999 318 a3 3 0 1 0 6 0 a3 3 0 1 0 -6 0zM915 678 a3 3 0 1 0 6 0 a3 3 0 1 0 -6 0zM999 330 a3 3 0 1 0 6 0 a3 3 0 1 0 -6 0zM1011 114 a3 3 0 1 0 6 0 a3 3 0 1 0 -6 0z" fill="url(&quot;#SvgjsLinearGradient1317&quot;)"></path><path d="M474 570L462 558L462 546M486 654L498 642M498 810L498 798L498 786L498 774L486 762L486 750L486 738L486 726L486 714L486 702L486 690L486 678L486 666L486 654L486 642L486 630L474 618L474 606L474 594L474 582L474 570L474 558L474 546L474 534" stroke="url(&quot;#SvgjsLinearGradient1317&quot;)" stroke-width="2"></path><path d="M471 534 a3 3 0 1 0 6 0 a3 3 0 1 0 -6 0zM459 546 a3 3 0 1 0 6 0 a3 3 0 1 0 -6 0zM495 642 a3 3 0 1 0 6 0 a3 3 0 1 0 -6 0z" fill="url(&quot;#SvgjsLinearGradient1317&quot;)"></path><path d="M978 462L990 450L990 438M978 474L990 462M966 510L978 498L978 486L990 474M966 534L978 522L990 510L990 498M906 762L918 750M966 558L978 546L990 534L990 522M966 582L978 570L978 558M906 774L918 762M906 810L906 798L906 786L906 774L906 762L906 750L918 738L918 726L918 714L918 702L930 690L942 678L942 666L942 654L942 642L942 630L954 618L966 606L966 594L966 582L966 570L966 558L966 546L966 534L966 522L966 510L966 498L966 486L978 474L978 462L978 450L978 438L990 426L990 414L990 402L990 390L990 378L990 366" stroke="url(&quot;#SvgjsLinearGradient1317&quot;)" stroke-width="2"></path><path d="M987 366 a3 3 0 1 0 6 0 a3 3 0 1 0 -6 0zM987 438 a3 3 0 1 0 6 0 a3 3 0 1 0 -6 0zM987 462 a3 3 0 1 0 6 0 a3 3 0 1 0 -6 0zM987 474 a3 3 0 1 0 6 0 a3 3 0 1 0 -6 0zM987 498 a3 3 0 1 0 6 0 a3 3 0 1 0 -6 0zM915 750 a3 3 0 1 0 6 0 a3 3 0 1 0 -6 0zM987 522 a3 3 0 1 0 6 0 a3 3 0 1 0 -6 0zM975 558 a3 3 0 1 0 6 0 a3 3 0 1 0 -6 0zM915 762 a3 3 0 1 0 6 0 a3 3 0 1 0 -6 0z" fill="url(&quot;#SvgjsLinearGradient1317&quot;)"></path><path d="M474 642L462 630M486 810L486 798L486 786L486 774L474 762L474 750L474 738L474 726L474 714L474 702L474 690L474 678L474 666L474 654L474 642L474 630L462 618L462 606L462 594L462 582" stroke="url(&quot;#SvgjsLinearGradient1317&quot;)" stroke-width="2"></path><path d="M459 582 a3 3 0 1 0 6 0 a3 3 0 1 0 -6 0zM459 630 a3 3 0 1 0 6 0 a3 3 0 1 0 -6 0z" fill="url(&quot;#SvgjsLinearGradient1317&quot;)"></path><path d="M978 606L978 594L978 582M1038 150L1050 138L1050 126L1050 114M1038 162L1050 150L1062 138L1062 126L1062 114M990 558L990 546M918 786L918 774M1014 294L1026 282L1026 270M1026 174L1026 162L1026 150M1002 354L1002 342M918 810L918 798L918 786L930 774L930 762L930 750L930 738L930 726L930 714L930 702L942 690L954 678L954 666L954 654L954 642L954 630L966 618L978 606L990 594L990 582L990 570L990 558L1002 546L1002 534L1002 522L1002 510L1002 498L1002 486L1002 474L1002 462L1002 450L1002 438L1002 426L1002 414L1002 402L1002 390L1002 378L1002 366L1002 354L1014 342L1014 330L1014 318L1014 306L1014 294L1014 282L1014 270L1026 258L1026 246L1026 234L1026 222L1026 210L1026 198L1026 186L1026 174L1038 162L1038 150L1038 138" stroke="url(&quot;#SvgjsLinearGradient1317&quot;)" stroke-width="2"></path><path d="M1035 138 a3 3 0 1 0 6 0 a3 3 0 1 0 -6 0zM975 582 a3 3 0 1 0 6 0 a3 3 0 1 0 -6 0zM1047 114 a3 3 0 1 0 6 0 a3 3 0 1 0 -6 0zM1059 114 a3 3 0 1 0 6 0 a3 3 0 1 0 -6 0zM987 546 a3 3 0 1 0 6 0 a3 3 0 1 0 -6 0zM915 774 a3 3 0 1 0 6 0 a3 3 0 1 0 -6 0zM1023 270 a3 3 0 1 0 6 0 a3 3 0 1 0 -6 0zM1023 150 a3 3 0 1 0 6 0 a3 3 0 1 0 -6 0zM999 342 a3 3 0 1 0 6 0 a3 3 0 1 0 -6 0z" fill="url(&quot;#SvgjsLinearGradient1317&quot;)"></path><path d="M450 582L438 570L438 558L438 546L438 534L438 522M462 690L450 678L450 666L450 654L438 642L438 630M450 510L438 498L438 486M462 738L450 726L450 714L450 702L450 690L438 678M462 654L462 642M450 618L438 606L426 594L426 582L426 570M450 534L462 522L462 510L462 498M450 474L438 462L438 450L438 438M474 810L474 798L474 786L474 774L462 762L462 750L462 738L462 726L462 714L462 702L462 690L462 678L462 666L462 654L450 642L450 630L450 618L450 606L450 594L450 582L450 570L450 558L450 546L450 534L450 522L450 510L450 498L450 486L450 474L450 462L450 450L450 438" stroke="url(&quot;#SvgjsLinearGradient1317&quot;)" stroke-width="2"></path><path d="M447 438 a3 3 0 1 0 6 0 a3 3 0 1 0 -6 0zM435 522 a3 3 0 1 0 6 0 a3 3 0 1 0 -6 0zM435 630 a3 3 0 1 0 6 0 a3 3 0 1 0 -6 0zM435 486 a3 3 0 1 0 6 0 a3 3 0 1 0 -6 0zM435 678 a3 3 0 1 0 6 0 a3 3 0 1 0 -6 0zM459 642 a3 3 0 1 0 6 0 a3 3 0 1 0 -6 0zM423 570 a3 3 0 1 0 6 0 a3 3 0 1 0 -6 0zM459 498 a3 3 0 1 0 6 0 a3 3 0 1 0 -6 0zM435 438 a3 3 0 1 0 6 0 a3 3 0 1 0 -6 0z" fill="url(&quot;#SvgjsLinearGradient1317&quot;)"></path><path d="M930 798L942 786M966 642L978 630M930 810L930 798L930 786L942 774L942 762L942 750L942 738L942 726L942 714L942 702L954 690L966 678L966 666L966 654L966 642L966 630L978 618L990 606L1002 594L1002 582L1002 570L1002 558" stroke="url(&quot;#SvgjsLinearGradient1317&quot;)" stroke-width="2"></path><path d="M999 558 a3 3 0 1 0 6 0 a3 3 0 1 0 -6 0zM939 786 a3 3 0 1 0 6 0 a3 3 0 1 0 -6 0zM975 630 a3 3 0 1 0 6 0 a3 3 0 1 0 -6 0z" fill="url(&quot;#SvgjsLinearGradient1317&quot;)"></path><path d="M402 258L402 246M402 534L414 522L426 510L426 498L426 486L426 474L426 462L426 450L426 438L426 426L426 414L426 402L426 390L426 378L426 366L426 354M402 546L414 534L426 522M414 630L426 618L426 606L414 594M414 486L402 474L402 462L402 450L402 438L402 426M414 642L426 630M402 522L402 510L402 498M414 402L402 390L402 378L402 366L402 354M426 726L438 714M414 654L426 642M414 570L402 558M414 558L414 546L426 534M462 810L462 798L462 786L462 774L450 762L450 750L438 738L426 726L426 714L426 702L426 690L426 678L414 666L414 654L414 642L414 630L414 618L402 606L402 594L414 582L414 570L414 558L402 546L402 534L402 522L414 510L414 498L414 486L414 474L414 462L414 450L414 438L414 426L414 414L414 402L414 390L414 378L414 366L414 354L414 342L414 330L414 318L414 306L414 294L414 282L414 270L402 258L390 246L390 234L390 222" stroke="url(&quot;#SvgjsLinearGradient1317&quot;)" stroke-width="2"></path><path d="M387 222 a3 3 0 1 0 6 0 a3 3 0 1 0 -6 0zM399 246 a3 3 0 1 0 6 0 a3 3 0 1 0 -6 0zM423 354 a3 3 0 1 0 6 0 a3 3 0 1 0 -6 0zM423 522 a3 3 0 1 0 6 0 a3 3 0 1 0 -6 0zM411 594 a3 3 0 1 0 6 0 a3 3 0 1 0 -6 0zM399 426 a3 3 0 1 0 6 0 a3 3 0 1 0 -6 0zM423 630 a3 3 0 1 0 6 0 a3 3 0 1 0 -6 0zM399 498 a3 3 0 1 0 6 0 a3 3 0 1 0 -6 0zM399 354 a3 3 0 1 0 6 0 a3 3 0 1 0 -6 0zM435 714 a3 3 0 1 0 6 0 a3 3 0 1 0 -6 0zM423 642 a3 3 0 1 0 6 0 a3 3 0 1 0 -6 0zM399 558 a3 3 0 1 0 6 0 a3 3 0 1 0 -6 0zM423 534 a3 3 0 1 0 6 0 a3 3 0 1 0 -6 0z" fill="url(&quot;#SvgjsLinearGradient1317&quot;)"></path><path d="M1038 198L1050 186L1050 174L1062 162L1062 150M1026 318L1038 306M1038 246L1050 234L1050 222L1050 210L1050 198L1062 186L1062 174L1074 162L1074 150L1074 138L1074 126L1074 114M1026 342L1038 330L1038 318L1050 306M1014 402L1026 390L1026 378L1026 366L1026 354L1038 342L1050 330L1050 318M1014 498L1026 486L1026 474L1026 462L1026 450L1026 438L1026 426L1026 414L1026 402M978 654L978 642M954 714L966 702M1026 306L1026 294M1014 510L1026 498L1038 486L1038 474L1038 462L1050 450M978 666L990 654M942 810L954 798L954 786L954 774L954 762L954 750L954 738L954 726L954 714L954 702L966 690L978 678L978 666L978 654L990 642L990 630L990 618L1002 606L1014 594L1014 582L1014 570L1014 558L1014 546L1014 534L1014 522L1014 510L1014 498L1014 486L1014 474L1014 462L1014 450L1014 438L1014 426L1014 414L1014 402L1014 390L1014 378L1014 366L1014 354L1026 342L1026 330L1026 318L1026 306L1038 294L1038 282L1038 270L1038 258L1038 246L1038 234L1038 222L1038 210L1038 198L1038 186L1038 174" stroke="url(&quot;#SvgjsLinearGradient1317&quot;)" stroke-width="2"></path><path d="M1035 174 a3 3 0 1 0 6 0 a3 3 0 1 0 -6 0zM1059 150 a3 3 0 1 0 6 0 a3 3 0 1 0 -6 0zM1035 306 a3 3 0 1 0 6 0 a3 3 0 1 0 -6 0zM1071 114 a3 3 0 1 0 6 0 a3 3 0 1 0 -6 0zM1047 306 a3 3 0 1 0 6 0 a3 3 0 1 0 -6 0zM1047 318 a3 3 0 1 0 6 0 a3 3 0 1 0 -6 0zM1023 402 a3 3 0 1 0 6 0 a3 3 0 1 0 -6 0zM975 642 a3 3 0 1 0 6 0 a3 3 0 1 0 -6 0zM963 702 a3 3 0 1 0 6 0 a3 3 0 1 0 -6 0zM1023 294 a3 3 0 1 0 6 0 a3 3 0 1 0 -6 0zM1047 450 a3 3 0 1 0 6 0 a3 3 0 1 0 -6 0zM987 654 a3 3 0 1 0 6 0 a3 3 0 1 0 -6 0z" fill="url(&quot;#SvgjsLinearGradient1317&quot;)"></path><path d="M390 414L378 402L378 390L378 378L378 366M390 474L378 462L378 450M390 486L378 474M390 426L378 414L366 402L366 390L366 378M390 510L378 498L378 486M390 582L402 570M390 438L378 426L366 414M390 522L378 510M450 810L450 798L450 786L450 774L438 762L438 750L426 738L414 726L414 714L414 702L414 690L414 678L402 666L402 654L402 642L402 630L402 618L390 606L390 594L390 582L390 570L390 558L390 546L390 534L390 522L390 510L390 498L390 486L390 474L390 462L390 450L390 438L390 426L390 414L390 402" stroke="url(&quot;#SvgjsLinearGradient1317&quot;)" stroke-width="2"></path><path d="M387 402 a3 3 0 1 0 6 0 a3 3 0 1 0 -6 0zM375 366 a3 3 0 1 0 6 0 a3 3 0 1 0 -6 0zM375 450 a3 3 0 1 0 6 0 a3 3 0 1 0 -6 0zM375 474 a3 3 0 1 0 6 0 a3 3 0 1 0 -6 0zM363 378 a3 3 0 1 0 6 0 a3 3 0 1 0 -6 0zM375 486 a3 3 0 1 0 6 0 a3 3 0 1 0 -6 0zM399 570 a3 3 0 1 0 6 0 a3 3 0 1 0 -6 0zM363 414 a3 3 0 1 0 6 0 a3 3 0 1 0 -6 0zM375 510 a3 3 0 1 0 6 0 a3 3 0 1 0 -6 0z" fill="url(&quot;#SvgjsLinearGradient1317&quot;)"></path><path d="M354 462L366 450L366 438L366 426M378 534L378 522M354 402L342 390L342 378M354 270L342 258L342 246M378 150L378 138L378 126L378 114M354 294L366 282M354 282L342 270L330 258L330 246L318 234L318 222L318 210M354 438L342 426L342 414L342 402M426 762L426 750M354 342L342 330L330 318L330 306L330 294M366 174L366 162L366 150L366 138M366 246L354 234L354 222L354 210L354 198L354 186L354 174L354 162L354 150L354 138L354 126L354 114M354 330L354 318L354 306L366 294L378 282L378 270L378 258L378 246L378 234M366 474L366 462M438 810L438 798L438 786L438 774L426 762L414 750L414 738L402 726L402 714L402 702L402 690L402 678L390 666L390 654L390 642L390 630L390 618L378 606L378 594L378 582L378 570L378 558L378 546L378 534L366 522L366 510L366 498L366 486L366 474L354 462L354 450L354 438L354 426L354 414L354 402L354 390L354 378L354 366L354 354L354 342L354 330L342 318L342 306L354 294L354 282L354 270L366 258L366 246L366 234L366 222L366 210L366 198L366 186L366 174L378 162L378 150L390 138L390 126L390 114" stroke="url(&quot;#SvgjsLinearGradient1317&quot;)" stroke-width="2"></path><path d="M387 114 a3 3 0 1 0 6 0 a3 3 0 1 0 -6 0zM363 426 a3 3 0 1 0 6 0 a3 3 0 1 0 -6 0zM375 522 a3 3 0 1 0 6 0 a3 3 0 1 0 -6 0zM339 378 a3 3 0 1 0 6 0 a3 3 0 1 0 -6 0zM339 246 a3 3 0 1 0 6 0 a3 3 0 1 0 -6 0zM375 114 a3 3 0 1 0 6 0 a3 3 0 1 0 -6 0zM363 282 a3 3 0 1 0 6 0 a3 3 0 1 0 -6 0zM315 210 a3 3 0 1 0 6 0 a3 3 0 1 0 -6 0zM339 402 a3 3 0 1 0 6 0 a3 3 0 1 0 -6 0zM423 750 a3 3 0 1 0 6 0 a3 3 0 1 0 -6 0zM327 294 a3 3 0 1 0 6 0 a3 3 0 1 0 -6 0zM363 138 a3 3 0 1 0 6 0 a3 3 0 1 0 -6 0zM351 114 a3 3 0 1 0 6 0 a3 3 0 1 0 -6 0zM375 234 a3 3 0 1 0 6 0 a3 3 0 1 0 -6 0zM363 462 a3 3 0 1 0 6 0 a3 3 0 1 0 -6 0z" fill="url(&quot;#SvgjsLinearGradient1317&quot;)"></path><path d="M990 678L990 666M966 726L966 714M1026 534L1038 522L1038 510L1038 498L1050 486M966 810L966 798L966 786L966 774L966 762L966 750L966 738L966 726L978 714L978 702L978 690L990 678L1002 666L1002 654L1002 642L1002 630L1002 618L1014 606L1026 594L1026 582L1026 570L1026 558L1026 546L1026 534L1026 522" stroke="url(&quot;#SvgjsLinearGradient1317&quot;)" stroke-width="2"></path><path d="M1023 522 a3 3 0 1 0 6 0 a3 3 0 1 0 -6 0zM987 666 a3 3 0 1 0 6 0 a3 3 0 1 0 -6 0zM963 714 a3 3 0 1 0 6 0 a3 3 0 1 0 -6 0zM1047 486 a3 3 0 1 0 6 0 a3 3 0 1 0 -6 0z" fill="url(&quot;#SvgjsLinearGradient1317&quot;)"></path><path d="M330 414L318 402L318 390L318 378L306 366L294 354L282 342L282 330L282 318M318 366L318 354L330 342L330 330L318 318L318 306L318 294L318 282L318 270L318 258L318 246M306 258L294 246L294 234L294 222M306 306L294 294L294 282L294 270L294 258M330 426L318 414L306 402L306 390L306 378L294 366L282 354M378 630L378 618M306 330L294 318L294 306L282 294L282 282L282 270L282 258M426 786L414 774M342 462L342 450L342 438M330 378L330 366L330 354L342 342M354 498L342 486L342 474M306 198L318 186M306 342L318 330M426 810L426 798L426 786L426 774L414 762L402 750L402 738L390 726L390 714L390 702L390 690L390 678L378 666L378 654L378 642L378 630L366 618L366 606L366 594L366 582L366 570L366 558L366 546L366 534L354 522L354 510L354 498L354 486L354 474L342 462L330 450L330 438L330 426L330 414L330 402L330 390L330 378L318 366L306 354L306 342L306 330L306 318L306 306L306 294L306 282L306 270L306 258L306 246L306 234L306 222L306 210L306 198L306 186" stroke="url(&quot;#SvgjsLinearGradient1317&quot;)" stroke-width="2"></path><path d="M303 186 a3 3 0 1 0 6 0 a3 3 0 1 0 -6 0zM279 318 a3 3 0 1 0 6 0 a3 3 0 1 0 -6 0zM315 246 a3 3 0 1 0 6 0 a3 3 0 1 0 -6 0zM291 222 a3 3 0 1 0 6 0 a3 3 0 1 0 -6 0zM291 258 a3 3 0 1 0 6 0 a3 3 0 1 0 -6 0zM279 354 a3 3 0 1 0 6 0 a3 3 0 1 0 -6 0zM375 618 a3 3 0 1 0 6 0 a3 3 0 1 0 -6 0zM279 258 a3 3 0 1 0 6 0 a3 3 0 1 0 -6 0zM411 774 a3 3 0 1 0 6 0 a3 3 0 1 0 -6 0zM339 438 a3 3 0 1 0 6 0 a3 3 0 1 0 -6 0zM339 342 a3 3 0 1 0 6 0 a3 3 0 1 0 -6 0zM339 474 a3 3 0 1 0 6 0 a3 3 0 1 0 -6 0zM315 186 a3 3 0 1 0 6 0 a3 3 0 1 0 -6 0zM315 330 a3 3 0 1 0 6 0 a3 3 0 1 0 -6 0z" fill="url(&quot;#SvgjsLinearGradient1317&quot;)"></path><path d="M1062 366L1074 354L1074 342L1074 330L1074 318L1074 306L1062 294L1062 282M1062 510L1050 498M990 714L1002 702M1062 474L1074 462M978 738L990 726M1062 522L1074 510L1074 498M1062 390L1050 378L1050 366L1050 354M978 774L990 762L990 750L990 738M1062 426L1050 414L1050 402L1050 390M1062 438L1074 426L1074 414L1074 402L1074 390L1074 378L1074 366M1050 534L1050 522L1050 510M978 810L978 798L978 786L978 774L978 762L978 750L978 738L978 726L990 714L990 702L990 690L1002 678L1014 666L1014 654L1014 642L1014 630L1014 618L1026 606L1038 594L1038 582L1038 570L1038 558L1038 546L1050 534L1062 522L1062 510L1062 498L1062 486L1062 474L1062 462L1062 450L1062 438L1062 426L1062 414L1062 402L1062 390L1062 378L1062 366L1062 354L1062 342L1062 330L1062 318L1062 306L1050 294L1050 282L1050 270L1050 258" stroke="url(&quot;#SvgjsLinearGradient1317&quot;)" stroke-width="2"></path><path d="M1047 258 a3 3 0 1 0 6 0 a3 3 0 1 0 -6 0zM1059 282 a3 3 0 1 0 6 0 a3 3 0 1 0 -6 0zM1047 498 a3 3 0 1 0 6 0 a3 3 0 1 0 -6 0zM999 702 a3 3 0 1 0 6 0 a3 3 0 1 0 -6 0zM1071 462 a3 3 0 1 0 6 0 a3 3 0 1 0 -6 0zM987 726 a3 3 0 1 0 6 0 a3 3 0 1 0 -6 0zM1071 498 a3 3 0 1 0 6 0 a3 3 0 1 0 -6 0zM1047 354 a3 3 0 1 0 6 0 a3 3 0 1 0 -6 0zM987 738 a3 3 0 1 0 6 0 a3 3 0 1 0 -6 0zM1047 390 a3 3 0 1 0 6 0 a3 3 0 1 0 -6 0zM1071 366 a3 3 0 1 0 6 0 a3 3 0 1 0 -6 0zM1047 510 a3 3 0 1 0 6 0 a3 3 0 1 0 -6 0z" fill="url(&quot;#SvgjsLinearGradient1317&quot;)"></path><path d="M366 654L354 642L354 630L342 618M330 510L342 498M378 690L366 678L354 666L354 654M414 798L414 786M378 726L366 714L366 702L366 690M318 438L318 426M342 522L342 510M390 750L390 738M414 810L414 798L402 786L402 774L402 762L390 750L378 738L378 726L378 714L378 702L378 690L378 678L366 666L366 654L366 642L366 630L354 618L354 606L354 594L354 582L354 570L354 558L354 546L354 534L342 522L330 510L330 498L330 486L330 474L330 462L318 450L318 438L306 426L294 414L282 402" stroke="url(&quot;#SvgjsLinearGradient1317&quot;)" stroke-width="2"></path><path d="M279 402 a3 3 0 1 0 6 0 a3 3 0 1 0 -6 0zM339 618 a3 3 0 1 0 6 0 a3 3 0 1 0 -6 0zM339 498 a3 3 0 1 0 6 0 a3 3 0 1 0 -6 0zM351 654 a3 3 0 1 0 6 0 a3 3 0 1 0 -6 0zM411 786 a3 3 0 1 0 6 0 a3 3 0 1 0 -6 0zM363 690 a3 3 0 1 0 6 0 a3 3 0 1 0 -6 0zM315 426 a3 3 0 1 0 6 0 a3 3 0 1 0 -6 0zM339 510 a3 3 0 1 0 6 0 a3 3 0 1 0 -6 0zM387 738 a3 3 0 1 0 6 0 a3 3 0 1 0 -6 0z" fill="url(&quot;#SvgjsLinearGradient1317&quot;)"></path><path d="M990 810L990 798" stroke="url(&quot;#SvgjsLinearGradient1317&quot;)" stroke-width="2"></path><path d="M987 798 a3 3 0 1 0 6 0 a3 3 0 1 0 -6 0z" fill="url(&quot;#SvgjsLinearGradient1317&quot;)"></path><path d="M1002 726L1002 714M1002 786L990 774M1002 810L1002 798L1002 786L1002 774L1002 762L1002 750L1002 738L1002 726L1014 714L1014 702L1014 690L1014 678L1026 666L1026 654L1026 642L1026 630L1026 618L1038 606L1050 594L1050 582L1050 570L1050 558L1050 546L1062 534" stroke="url(&quot;#SvgjsLinearGradient1317&quot;)" stroke-width="2"></path><path d="M1059 534 a3 3 0 1 0 6 0 a3 3 0 1 0 -6 0zM999 714 a3 3 0 1 0 6 0 a3 3 0 1 0 -6 0zM987 774 a3 3 0 1 0 6 0 a3 3 0 1 0 -6 0z" fill="url(&quot;#SvgjsLinearGradient1317&quot;)"></path><path d="M294 198L282 186L282 174M282 234L270 222L270 210L282 198M342 642L342 630M318 510L306 498L306 486M342 570L330 558L318 546L318 534M282 222L282 210M342 582L330 570L318 558L306 546L306 534L306 522L306 510M342 690L354 678M270 258L270 246L270 234M354 714L354 702L354 690M270 378L282 366M342 606L330 594L330 582L318 570M270 390L282 378M390 810L390 798L390 786L390 774L390 762L378 750L366 738L354 726L354 714L342 702L342 690L342 678L342 666L342 654L342 642L330 630L330 618L342 606L342 594L342 582L342 570L342 558L342 546L342 534L330 522L318 510L318 498L318 486L318 474L318 462L306 450L306 438L294 426L282 414L270 402L270 390L270 378L270 366L270 354L270 342L270 330L270 318L270 306L270 294L270 282L270 270L270 258L282 246L282 234L282 222L294 210L294 198L294 186L294 174L294 162" stroke="url(&quot;#SvgjsLinearGradient1317&quot;)" stroke-width="2"></path><path d="M291 162 a3 3 0 1 0 6 0 a3 3 0 1 0 -6 0zM279 174 a3 3 0 1 0 6 0 a3 3 0 1 0 -6 0zM279 198 a3 3 0 1 0 6 0 a3 3 0 1 0 -6 0zM339 630 a3 3 0 1 0 6 0 a3 3 0 1 0 -6 0zM303 486 a3 3 0 1 0 6 0 a3 3 0 1 0 -6 0zM315 534 a3 3 0 1 0 6 0 a3 3 0 1 0 -6 0zM279 210 a3 3 0 1 0 6 0 a3 3 0 1 0 -6 0zM303 510 a3 3 0 1 0 6 0 a3 3 0 1 0 -6 0zM351 678 a3 3 0 1 0 6 0 a3 3 0 1 0 -6 0zM267 234 a3 3 0 1 0 6 0 a3 3 0 1 0 -6 0zM351 690 a3 3 0 1 0 6 0 a3 3 0 1 0 -6 0zM279 366 a3 3 0 1 0 6 0 a3 3 0 1 0 -6 0zM315 570 a3 3 0 1 0 6 0 a3 3 0 1 0 -6 0zM279 378 a3 3 0 1 0 6 0 a3 3 0 1 0 -6 0z" fill="url(&quot;#SvgjsLinearGradient1317&quot;)"></path><path d="M1014 810L1014 798L1014 786L1014 774L1014 762L1014 750L1014 738L1026 726L1026 714L1026 702L1026 690L1026 678L1038 666L1038 654L1038 642L1038 630L1038 618L1050 606L1062 594L1062 582L1062 570L1062 558L1062 546L1074 534" stroke="url(&quot;#SvgjsLinearGradient1317&quot;)" stroke-width="2"></path><path d="M1071 534 a3 3 0 1 0 6 0 a3 3 0 1 0 -6 0z" fill="url(&quot;#SvgjsLinearGradient1317&quot;)"></path><path d="M378 810L378 798L378 786L378 774" stroke="url(&quot;#SvgjsLinearGradient1317&quot;)" stroke-width="2"></path><path d="M375 774 a3 3 0 1 0 6 0 a3 3 0 1 0 -6 0z" fill="url(&quot;#SvgjsLinearGradient1317&quot;)"></path><path d="M1086 486L1074 474M1086 450L1074 438M1026 810L1026 798L1026 786L1026 774L1026 762L1026 750L1026 738L1038 726L1038 714L1038 702L1038 690L1038 678L1050 666L1050 654L1050 642L1050 630L1050 618L1062 606L1074 594L1074 582L1074 570L1074 558L1074 546L1086 534L1086 522L1086 510L1086 498L1086 486L1086 474L1086 462L1086 450L1086 438L1086 426" stroke="url(&quot;#SvgjsLinearGradient1317&quot;)" stroke-width="2"></path><path d="M1083 426 a3 3 0 1 0 6 0 a3 3 0 1 0 -6 0zM1071 474 a3 3 0 1 0 6 0 a3 3 0 1 0 -6 0zM1071 438 a3 3 0 1 0 6 0 a3 3 0 1 0 -6 0z" fill="url(&quot;#SvgjsLinearGradient1317&quot;)"></path><path d="M258 318L246 306L246 294M270 186L258 174L258 162L258 150L246 138L246 126L246 114M258 330L246 318L234 306L234 294L234 282L234 270L246 258L246 246L246 234L246 222L246 210L246 198L246 186L246 174L246 162L246 150L234 138L234 126L234 114M318 606L318 594L318 582M258 282L246 270M294 474L306 462M270 198L258 186M366 762L354 750M318 630L306 618L306 606M306 570L306 558M258 210L258 198M366 810L366 798L366 786L366 774L366 762L366 750L354 738L342 726L342 714L330 702L330 690L330 678L330 666L330 654L330 642L318 630L318 618L318 606L306 594L306 582L306 570L294 558L294 546L294 534L294 522L294 510L294 498L294 486L294 474L294 462L294 450L294 438L282 426L270 414L258 402L258 390L258 378L258 366L258 354L258 342L258 330L258 318L258 306L258 294L258 282L258 270L258 258L258 246L258 234L258 222L258 210L270 198L270 186L270 174" stroke="url(&quot;#SvgjsLinearGradient1317&quot;)" stroke-width="2"></path><path d="M267 174 a3 3 0 1 0 6 0 a3 3 0 1 0 -6 0zM243 294 a3 3 0 1 0 6 0 a3 3 0 1 0 -6 0zM243 114 a3 3 0 1 0 6 0 a3 3 0 1 0 -6 0zM231 114 a3 3 0 1 0 6 0 a3 3 0 1 0 -6 0zM315 582 a3 3 0 1 0 6 0 a3 3 0 1 0 -6 0zM243 270 a3 3 0 1 0 6 0 a3 3 0 1 0 -6 0zM303 462 a3 3 0 1 0 6 0 a3 3 0 1 0 -6 0zM255 186 a3 3 0 1 0 6 0 a3 3 0 1 0 -6 0zM351 750 a3 3 0 1 0 6 0 a3 3 0 1 0 -6 0zM303 606 a3 3 0 1 0 6 0 a3 3 0 1 0 -6 0zM303 558 a3 3 0 1 0 6 0 a3 3 0 1 0 -6 0zM255 198 a3 3 0 1 0 6 0 a3 3 0 1 0 -6 0z" fill="url(&quot;#SvgjsLinearGradient1317&quot;)"></path><path d="M1098 438L1110 426L1110 414L1110 402L1110 390L1110 378L1110 366L1110 354L1110 342M1098 462L1110 450L1110 438L1122 426L1122 414L1122 402L1122 390L1122 378L1122 366M1098 510L1110 498L1110 486L1110 474L1110 462L1122 450L1122 438L1134 426L1134 414L1134 402L1134 390M1038 762L1050 750L1050 738L1062 726L1062 714L1062 702L1062 690L1062 678L1074 666L1074 654L1074 642L1074 630L1074 618L1086 606L1098 594L1098 582L1098 570L1098 558M1086 318L1098 306L1098 294L1098 282L1098 270L1098 258M1086 342L1098 330L1098 318L1110 306L1110 294L1110 282L1110 270L1110 258L1110 246M1098 522L1110 510L1122 498L1122 486M1086 282L1074 270L1074 258L1074 246M1086 354L1098 342M1086 390L1098 378M1098 534L1110 522L1122 510M1038 810L1038 798L1038 786L1038 774L1038 762L1038 750L1038 738L1050 726L1050 714L1050 702L1050 690L1050 678L1062 666L1062 654L1062 642L1062 630L1062 618L1074 606L1086 594L1086 582L1086 570L1086 558L1086 546L1098 534L1098 522L1098 510L1098 498L1098 486L1098 474L1098 462L1098 450L1098 438L1098 426L1098 414L1086 402L1086 390L1086 378L1086 366L1086 354L1086 342L1086 330L1086 318L1086 306L1086 294L1086 282L1086 270L1086 258" stroke="url(&quot;#SvgjsLinearGradient1317&quot;)" stroke-width="2"></path><path d="M1083 258 a3 3 0 1 0 6 0 a3 3 0 1 0 -6 0zM1107 342 a3 3 0 1 0 6 0 a3 3 0 1 0 -6 0zM1119 366 a3 3 0 1 0 6 0 a3 3 0 1 0 -6 0zM1131 390 a3 3 0 1 0 6 0 a3 3 0 1 0 -6 0zM1095 558 a3 3 0 1 0 6 0 a3 3 0 1 0 -6 0zM1095 258 a3 3 0 1 0 6 0 a3 3 0 1 0 -6 0zM1107 246 a3 3 0 1 0 6 0 a3 3 0 1 0 -6 0zM1119 486 a3 3 0 1 0 6 0 a3 3 0 1 0 -6 0zM1071 246 a3 3 0 1 0 6 0 a3 3 0 1 0 -6 0zM1095 342 a3 3 0 1 0 6 0 a3 3 0 1 0 -6 0zM1095 378 a3 3 0 1 0 6 0 a3 3 0 1 0 -6 0zM1119 510 a3 3 0 1 0 6 0 a3 3 0 1 0 -6 0z" fill="url(&quot;#SvgjsLinearGradient1317&quot;)"></path><path d="M282 510L270 498L270 486M294 594L282 582L270 570L270 558L270 546L270 534L258 522L258 510L246 498L234 486L234 474L234 462L234 450M318 666L306 654L294 642L282 630L282 618M294 582L294 570M330 726L318 714L306 702L306 690L306 678L306 666L294 654L282 642L270 630L270 618M282 522L270 510M306 642L306 630M246 378L234 366L234 354L222 342M282 474L270 462L270 450L270 438L258 426M294 606L282 594L270 582L258 570L258 558L258 546L258 534L246 522L246 510L234 498L222 486L222 474L222 462M354 810L354 798L354 786L354 774L342 762L342 750L342 738L330 726L330 714L318 702L318 690L318 678L318 666L318 654L306 642L294 630L294 618L294 606L294 594L294 582L282 570L282 558L282 546L282 534L282 522L282 510L282 498L282 486L282 474L282 462L282 450L282 438L270 426L258 414L246 402L246 390L246 378L246 366L246 354L246 342" stroke="url(&quot;#SvgjsLinearGradient1317&quot;)" stroke-width="2"></path><path d="M243 342 a3 3 0 1 0 6 0 a3 3 0 1 0 -6 0zM267 486 a3 3 0 1 0 6 0 a3 3 0 1 0 -6 0zM231 450 a3 3 0 1 0 6 0 a3 3 0 1 0 -6 0zM279 618 a3 3 0 1 0 6 0 a3 3 0 1 0 -6 0zM291 570 a3 3 0 1 0 6 0 a3 3 0 1 0 -6 0zM267 618 a3 3 0 1 0 6 0 a3 3 0 1 0 -6 0zM267 510 a3 3 0 1 0 6 0 a3 3 0 1 0 -6 0zM303 630 a3 3 0 1 0 6 0 a3 3 0 1 0 -6 0zM219 342 a3 3 0 1 0 6 0 a3 3 0 1 0 -6 0zM255 426 a3 3 0 1 0 6 0 a3 3 0 1 0 -6 0zM219 462 a3 3 0 1 0 6 0 a3 3 0 1 0 -6 0z" fill="url(&quot;#SvgjsLinearGradient1317&quot;)"></path></g></g><defs><mask id="SvgjsMask1316"><rect width="1400" height="800" fill="#ffffff"></rect></mask><linearGradient x1="0" y1="444" x2="1400" y2="444" gradientUnits="userSpaceOnUse" id="SvgjsLinearGradient1317"><stop stop-color="#3a7cc3" offset="0"></stop><stop stop-color="#dd1133" offset="1"></stop></linearGradient><mask id="SvgjsMask1318"><rect width="1400" height="800" fill="white"></rect><path d="M700.5 582 a1.5 1.5 0 1 0 3 0 a1.5 1.5 0 1 0 -3 0zM712.5 714 a1.5 1.5 0 1 0 3 0 a1.5 1.5 0 1 0 -3 0zM712.5 618 a1.5 1.5 0 1 0 3 0 a1.5 1.5 0 1 0 -3 0zM712.5 666 a1.5 1.5 0 1 0 3 0 a1.5 1.5 0 1 0 -3 0zM712.5 726 a1.5 1.5 0 1 0 3 0 a1.5 1.5 0 1 0 -3 0zM712.5 738 a1.5 1.5 0 1 0 3 0 a1.5 1.5 0 1 0 -3 0z" fill="black"></path><path d="M676.5 330 a1.5 1.5 0 1 0 3 0 a1.5 1.5 0 1 0 -3 0zM700.5 510 a1.5 1.5 0 1 0 3 0 a1.5 1.5 0 1 0 -3 0zM700.5 402 a1.5 1.5 0 1 0 3 0 a1.5 1.5 0 1 0 -3 0zM676.5 438 a1.5 1.5 0 1 0 3 0 a1.5 1.5 0 1 0 -3 0zM700.5 342 a1.5 1.5 0 1 0 3 0 a1.5 1.5 0 1 0 -3 0zM700.5 762 a1.5 1.5 0 1 0 3 0 a1.5 1.5 0 1 0 -3 0zM712.5 522 a1.5 1.5 0 1 0 3 0 a1.5 1.5 0 1 0 -3 0zM676.5 342 a1.5 1.5 0 1 0 3 0 a1.5 1.5 0 1 0 -3 0zM676.5 450 a1.5 1.5 0 1 0 3 0 a1.5 1.5 0 1 0 -3 0zM700.5 774 a1.5 1.5 0 1 0 3 0 a1.5 1.5 0 1 0 -3 0zM712.5 366 a1.5 1.5 0 1 0 3 0 a1.5 1.5 0 1 0 -3 0z" fill="black"></path><path d="M724.5 546 a1.5 1.5 0 1 0 3 0 a1.5 1.5 0 1 0 -3 0zM712.5 546 a1.5 1.5 0 1 0 3 0 a1.5 1.5 0 1 0 -3 0zM712.5 582 a1.5 1.5 0 1 0 3 0 a1.5 1.5 0 1 0 -3 0zM712.5 690 a1.5 1.5 0 1 0 3 0 a1.5 1.5 0 1 0 -3 0z" fill="black"></path><path d="M712.5 174 a1.5 1.5 0 1 0 3 0 a1.5 1.5 0 1 0 -3 0zM664.5 534 a1.5 1.5 0 1 0 3 0 a1.5 1.5 0 1 0 -3 0zM688.5 114 a1.5 1.5 0 1 0 3 0 a1.5 1.5 0 1 0 -3 0zM676.5 114 a1.5 1.5 0 1 0 3 0 a1.5 1.5 0 1 0 -3 0zM652.5 126 a1.5 1.5 0 1 0 3 0 a1.5 1.5 0 1 0 -3 0zM664.5 570 a1.5 1.5 0 1 0 3 0 a1.5 1.5 0 1 0 -3 0zM664.5 474 a1.5 1.5 0 1 0 3 0 a1.5 1.5 0 1 0 -3 0zM688.5 258 a1.5 1.5 0 1 0 3 0 a1.5 1.5 0 1 0 -3 0zM664.5 630 a1.5 1.5 0 1 0 3 0 a1.5 1.5 0 1 0 -3 0zM664.5 378 a1.5 1.5 0 1 0 3 0 a1.5 1.5 0 1 0 -3 0zM688.5 198 a1.5 1.5 0 1 0 3 0 a1.5 1.5 0 1 0 -3 0zM652.5 246 a1.5 1.5 0 1 0 3 0 a1.5 1.5 0 1 0 -3 0zM664.5 402 a1.5 1.5 0 1 0 3 0 a1.5 1.5 0 1 0 -3 0zM664.5 294 a1.5 1.5 0 1 0 3 0 a1.5 1.5 0 1 0 -3 0z" fill="black"></path><path d="M772.5 450 a1.5 1.5 0 1 0 3 0 a1.5 1.5 0 1 0 -3 0zM748.5 714 a1.5 1.5 0 1 0 3 0 a1.5 1.5 0 1 0 -3 0zM760.5 438 a1.5 1.5 0 1 0 3 0 a1.5 1.5 0 1 0 -3 0zM724.5 402 a1.5 1.5 0 1 0 3 0 a1.5 1.5 0 1 0 -3 0zM748.5 366 a1.5 1.5 0 1 0 3 0 a1.5 1.5 0 1 0 -3 0zM784.5 426 a1.5 1.5 0 1 0 3 0 a1.5 1.5 0 1 0 -3 0zM748.5 738 a1.5 1.5 0 1 0 3 0 a1.5 1.5 0 1 0 -3 0zM796.5 426 a1.5 1.5 0 1 0 3 0 a1.5 1.5 0 1 0 -3 0z" fill="black"></path><path d="M628.5 270 a1.5 1.5 0 1 0 3 0 a1.5 1.5 0 1 0 -3 0zM640.5 342 a1.5 1.5 0 1 0 3 0 a1.5 1.5 0 1 0 -3 0zM664.5 654 a1.5 1.5 0 1 0 3 0 a1.5 1.5 0 1 0 -3 0zM640.5 138 a1.5 1.5 0 1 0 3 0 a1.5 1.5 0 1 0 -3 0zM640.5 354 a1.5 1.5 0 1 0 3 0 a1.5 1.5 0 1 0 -3 0zM640.5 378 a1.5 1.5 0 1 0 3 0 a1.5 1.5 0 1 0 -3 0zM664.5 510 a1.5 1.5 0 1 0 3 0 a1.5 1.5 0 1 0 -3 0zM664.5 666 a1.5 1.5 0 1 0 3 0 a1.5 1.5 0 1 0 -3 0zM652.5 330 a1.5 1.5 0 1 0 3 0 a1.5 1.5 0 1 0 -3 0z" fill="black"></path><path d="M748.5 762 a1.5 1.5 0 1 0 3 0 a1.5 1.5 0 1 0 -3 0z" fill="black"></path><path d="M604.5 186 a1.5 1.5 0 1 0 3 0 a1.5 1.5 0 1 0 -3 0zM628.5 174 a1.5 1.5 0 1 0 3 0 a1.5 1.5 0 1 0 -3 0zM592.5 150 a1.5 1.5 0 1 0 3 0 a1.5 1.5 0 1 0 -3 0zM604.5 234 a1.5 1.5 0 1 0 3 0 a1.5 1.5 0 1 0 -3 0zM628.5 246 a1.5 1.5 0 1 0 3 0 a1.5 1.5 0 1 0 -3 0zM580.5 186 a1.5 1.5 0 1 0 3 0 a1.5 1.5 0 1 0 -3 0zM640.5 390 a1.5 1.5 0 1 0 3 0 a1.5 1.5 0 1 0 -3 0z" fill="black"></path><path d="M748.5 534 a1.5 1.5 0 1 0 3 0 a1.5 1.5 0 1 0 -3 0zM760.5 678 a1.5 1.5 0 1 0 3 0 a1.5 1.5 0 1 0 -3 0zM760.5 618 a1.5 1.5 0 1 0 3 0 a1.5 1.5 0 1 0 -3 0zM748.5 522 a1.5 1.5 0 1 0 3 0 a1.5 1.5 0 1 0 -3 0zM772.5 738 a1.5 1.5 0 1 0 3 0 a1.5 1.5 0 1 0 -3 0zM772.5 750 a1.5 1.5 0 1 0 3 0 a1.5 1.5 0 1 0 -3 0zM760.5 558 a1.5 1.5 0 1 0 3 0 a1.5 1.5 0 1 0 -3 0z" fill="black"></path><path d="M616.5 306 a1.5 1.5 0 1 0 3 0 a1.5 1.5 0 1 0 -3 0zM616.5 414 a1.5 1.5 0 1 0 3 0 a1.5 1.5 0 1 0 -3 0z" fill="black"></path><path d="M760.5 798 a1.5 1.5 0 1 0 3 0 a1.5 1.5 0 1 0 -3 0z" fill="black"></path><path d="M616.5 474 a1.5 1.5 0 1 0 3 0 a1.5 1.5 0 1 0 -3 0zM604.5 618 a1.5 1.5 0 1 0 3 0 a1.5 1.5 0 1 0 -3 0zM604.5 630 a1.5 1.5 0 1 0 3 0 a1.5 1.5 0 1 0 -3 0zM604.5 594 a1.5 1.5 0 1 0 3 0 a1.5 1.5 0 1 0 -3 0z" fill="black"></path><path d="M796.5 678 a1.5 1.5 0 1 0 3 0 a1.5 1.5 0 1 0 -3 0zM772.5 774 a1.5 1.5 0 1 0 3 0 a1.5 1.5 0 1 0 -3 0zM784.5 654 a1.5 1.5 0 1 0 3 0 a1.5 1.5 0 1 0 -3 0zM772.5 666 a1.5 1.5 0 1 0 3 0 a1.5 1.5 0 1 0 -3 0z" fill="black"></path><path d="M616.5 282 a1.5 1.5 0 1 0 3 0 a1.5 1.5 0 1 0 -3 0zM592.5 258 a1.5 1.5 0 1 0 3 0 a1.5 1.5 0 1 0 -3 0zM592.5 522 a1.5 1.5 0 1 0 3 0 a1.5 1.5 0 1 0 -3 0zM580.5 426 a1.5 1.5 0 1 0 3 0 a1.5 1.5 0 1 0 -3 0zM592.5 558 a1.5 1.5 0 1 0 3 0 a1.5 1.5 0 1 0 -3 0zM604.5 690 a1.5 1.5 0 1 0 3 0 a1.5 1.5 0 1 0 -3 0zM580.5 342 a1.5 1.5 0 1 0 3 0 a1.5 1.5 0 1 0 -3 0zM568.5 294 a1.5 1.5 0 1 0 3 0 a1.5 1.5 0 1 0 -3 0zM580.5 582 a1.5 1.5 0 1 0 3 0 a1.5 1.5 0 1 0 -3 0zM592.5 366 a1.5 1.5 0 1 0 3 0 a1.5 1.5 0 1 0 -3 0zM592.5 582 a1.5 1.5 0 1 0 3 0 a1.5 1.5 0 1 0 -3 0zM568.5 366 a1.5 1.5 0 1 0 3 0 a1.5 1.5 0 1 0 -3 0z" fill="black"></path><path d="M832.5 198 a1.5 1.5 0 1 0 3 0 a1.5 1.5 0 1 0 -3 0zM808.5 198 a1.5 1.5 0 1 0 3 0 a1.5 1.5 0 1 0 -3 0zM844.5 438 a1.5 1.5 0 1 0 3 0 a1.5 1.5 0 1 0 -3 0zM808.5 462 a1.5 1.5 0 1 0 3 0 a1.5 1.5 0 1 0 -3 0zM808.5 258 a1.5 1.5 0 1 0 3 0 a1.5 1.5 0 1 0 -3 0zM844.5 510 a1.5 1.5 0 1 0 3 0 a1.5 1.5 0 1 0 -3 0zM832.5 162 a1.5 1.5 0 1 0 3 0 a1.5 1.5 0 1 0 -3 0zM856.5 174 a1.5 1.5 0 1 0 3 0 a1.5 1.5 0 1 0 -3 0zM796.5 606 a1.5 1.5 0 1 0 3 0 a1.5 1.5 0 1 0 -3 0zM808.5 390 a1.5 1.5 0 1 0 3 0 a1.5 1.5 0 1 0 -3 0zM796.5 246 a1.5 1.5 0 1 0 3 0 a1.5 1.5 0 1 0 -3 0zM820.5 462 a1.5 1.5 0 1 0 3 0 a1.5 1.5 0 1 0 -3 0zM844.5 474 a1.5 1.5 0 1 0 3 0 a1.5 1.5 0 1 0 -3 0zM844.5 294 a1.5 1.5 0 1 0 3 0 a1.5 1.5 0 1 0 -3 0z" fill="black"></path><path d="M604.5 678 a1.5 1.5 0 1 0 3 0 a1.5 1.5 0 1 0 -3 0zM604.5 762 a1.5 1.5 0 1 0 3 0 a1.5 1.5 0 1 0 -3 0zM580.5 642 a1.5 1.5 0 1 0 3 0 a1.5 1.5 0 1 0 -3 0zM580.5 714 a1.5 1.5 0 1 0 3 0 a1.5 1.5 0 1 0 -3 0z" fill="black"></path><path d="M856.5 306 a1.5 1.5 0 1 0 3 0 a1.5 1.5 0 1 0 -3 0zM880.5 306 a1.5 1.5 0 1 0 3 0 a1.5 1.5 0 1 0 -3 0zM868.5 414 a1.5 1.5 0 1 0 3 0 a1.5 1.5 0 1 0 -3 0zM880.5 426 a1.5 1.5 0 1 0 3 0 a1.5 1.5 0 1 0 -3 0zM868.5 330 a1.5 1.5 0 1 0 3 0 a1.5 1.5 0 1 0 -3 0zM880.5 198 a1.5 1.5 0 1 0 3 0 a1.5 1.5 0 1 0 -3 0zM844.5 522 a1.5 1.5 0 1 0 3 0 a1.5 1.5 0 1 0 -3 0zM868.5 354 a1.5 1.5 0 1 0 3 0 a1.5 1.5 0 1 0 -3 0zM844.5 486 a1.5 1.5 0 1 0 3 0 a1.5 1.5 0 1 0 -3 0zM832.5 558 a1.5 1.5 0 1 0 3 0 a1.5 1.5 0 1 0 -3 0zM832.5 570 a1.5 1.5 0 1 0 3 0 a1.5 1.5 0 1 0 -3 0z" fill="black"></path><path d="M556.5 558 a1.5 1.5 0 1 0 3 0 a1.5 1.5 0 1 0 -3 0zM580.5 786 a1.5 1.5 0 1 0 3 0 a1.5 1.5 0 1 0 -3 0zM580.5 654 a1.5 1.5 0 1 0 3 0 a1.5 1.5 0 1 0 -3 0zM580.5 666 a1.5 1.5 0 1 0 3 0 a1.5 1.5 0 1 0 -3 0zM544.5 558 a1.5 1.5 0 1 0 3 0 a1.5 1.5 0 1 0 -3 0zM580.5 498 a1.5 1.5 0 1 0 3 0 a1.5 1.5 0 1 0 -3 0z" fill="black"></path><path d="M856.5 570 a1.5 1.5 0 1 0 3 0 a1.5 1.5 0 1 0 -3 0zM844.5 654 a1.5 1.5 0 1 0 3 0 a1.5 1.5 0 1 0 -3 0zM844.5 618 a1.5 1.5 0 1 0 3 0 a1.5 1.5 0 1 0 -3 0zM844.5 630 a1.5 1.5 0 1 0 3 0 a1.5 1.5 0 1 0 -3 0z" fill="black"></path><path d="M892.5 330 a1.5 1.5 0 1 0 3 0 a1.5 1.5 0 1 0 -3 0zM868.5 534 a1.5 1.5 0 1 0 3 0 a1.5 1.5 0 1 0 -3 0zM880.5 486 a1.5 1.5 0 1 0 3 0 a1.5 1.5 0 1 0 -3 0zM904.5 390 a1.5 1.5 0 1 0 3 0 a1.5 1.5 0 1 0 -3 0zM904.5 330 a1.5 1.5 0 1 0 3 0 a1.5 1.5 0 1 0 -3 0zM880.5 378 a1.5 1.5 0 1 0 3 0 a1.5 1.5 0 1 0 -3 0zM844.5 690 a1.5 1.5 0 1 0 3 0 a1.5 1.5 0 1 0 -3 0zM868.5 546 a1.5 1.5 0 1 0 3 0 a1.5 1.5 0 1 0 -3 0zM880.5 402 a1.5 1.5 0 1 0 3 0 a1.5 1.5 0 1 0 -3 0zM916.5 330 a1.5 1.5 0 1 0 3 0 a1.5 1.5 0 1 0 -3 0z" fill="black"></path><path d="M556.5 606 a1.5 1.5 0 1 0 3 0 a1.5 1.5 0 1 0 -3 0zM544.5 606 a1.5 1.5 0 1 0 3 0 a1.5 1.5 0 1 0 -3 0zM532.5 606 a1.5 1.5 0 1 0 3 0 a1.5 1.5 0 1 0 -3 0zM544.5 630 a1.5 1.5 0 1 0 3 0 a1.5 1.5 0 1 0 -3 0z" fill="black"></path><path d="M928.5 294 a1.5 1.5 0 1 0 3 0 a1.5 1.5 0 1 0 -3 0zM904.5 462 a1.5 1.5 0 1 0 3 0 a1.5 1.5 0 1 0 -3 0zM916.5 426 a1.5 1.5 0 1 0 3 0 a1.5 1.5 0 1 0 -3 0zM952.5 270 a1.5 1.5 0 1 0 3 0 a1.5 1.5 0 1 0 -3 0z" fill="black"></path><path d="M520.5 174 a1.5 1.5 0 1 0 3 0 a1.5 1.5 0 1 0 -3 0zM508.5 546 a1.5 1.5 0 1 0 3 0 a1.5 1.5 0 1 0 -3 0zM532.5 354 a1.5 1.5 0 1 0 3 0 a1.5 1.5 0 1 0 -3 0zM532.5 522 a1.5 1.5 0 1 0 3 0 a1.5 1.5 0 1 0 -3 0zM544.5 354 a1.5 1.5 0 1 0 3 0 a1.5 1.5 0 1 0 -3 0zM484.5 426 a1.5 1.5 0 1 0 3 0 a1.5 1.5 0 1 0 -3 0zM508.5 378 a1.5 1.5 0 1 0 3 0 a1.5 1.5 0 1 0 -3 0zM532.5 222 a1.5 1.5 0 1 0 3 0 a1.5 1.5 0 1 0 -3 0zM532.5 126 a1.5 1.5 0 1 0 3 0 a1.5 1.5 0 1 0 -3 0zM544.5 426 a1.5 1.5 0 1 0 3 0 a1.5 1.5 0 1 0 -3 0zM544.5 654 a1.5 1.5 0 1 0 3 0 a1.5 1.5 0 1 0 -3 0zM508.5 438 a1.5 1.5 0 1 0 3 0 a1.5 1.5 0 1 0 -3 0zM544.5 462 a1.5 1.5 0 1 0 3 0 a1.5 1.5 0 1 0 -3 0zM568.5 354 a1.5 1.5 0 1 0 3 0 a1.5 1.5 0 1 0 -3 0z" fill="black"></path><path d="M964.5 162 a1.5 1.5 0 1 0 3 0 a1.5 1.5 0 1 0 -3 0zM904.5 570 a1.5 1.5 0 1 0 3 0 a1.5 1.5 0 1 0 -3 0zM916.5 510 a1.5 1.5 0 1 0 3 0 a1.5 1.5 0 1 0 -3 0zM952.5 294 a1.5 1.5 0 1 0 3 0 a1.5 1.5 0 1 0 -3 0zM892.5 594 a1.5 1.5 0 1 0 3 0 a1.5 1.5 0 1 0 -3 0zM952.5 150 a1.5 1.5 0 1 0 3 0 a1.5 1.5 0 1 0 -3 0zM952.5 234 a1.5 1.5 0 1 0 3 0 a1.5 1.5 0 1 0 -3 0zM916.5 522 a1.5 1.5 0 1 0 3 0 a1.5 1.5 0 1 0 -3 0zM892.5 630 a1.5 1.5 0 1 0 3 0 a1.5 1.5 0 1 0 -3 0zM976.5 198 a1.5 1.5 0 1 0 3 0 a1.5 1.5 0 1 0 -3 0zM892.5 642 a1.5 1.5 0 1 0 3 0 a1.5 1.5 0 1 0 -3 0zM928.5 114 a1.5 1.5 0 1 0 3 0 a1.5 1.5 0 1 0 -3 0zM940.5 306 a1.5 1.5 0 1 0 3 0 a1.5 1.5 0 1 0 -3 0zM976.5 162 a1.5 1.5 0 1 0 3 0 a1.5 1.5 0 1 0 -3 0z" fill="black"></path><path d="M496.5 582 a1.5 1.5 0 1 0 3 0 a1.5 1.5 0 1 0 -3 0zM520.5 738 a1.5 1.5 0 1 0 3 0 a1.5 1.5 0 1 0 -3 0zM520.5 750 a1.5 1.5 0 1 0 3 0 a1.5 1.5 0 1 0 -3 0zM520.5 678 a1.5 1.5 0 1 0 3 0 a1.5 1.5 0 1 0 -3 0zM520.5 702 a1.5 1.5 0 1 0 3 0 a1.5 1.5 0 1 0 -3 0zM508.5 618 a1.5 1.5 0 1 0 3 0 a1.5 1.5 0 1 0 -3 0z" fill="black"></path><path d="M976.5 258 a1.5 1.5 0 1 0 3 0 a1.5 1.5 0 1 0 -3 0zM916.5 534 a1.5 1.5 0 1 0 3 0 a1.5 1.5 0 1 0 -3 0zM928.5 570 a1.5 1.5 0 1 0 3 0 a1.5 1.5 0 1 0 -3 0zM928.5 582 a1.5 1.5 0 1 0 3 0 a1.5 1.5 0 1 0 -3 0zM904.5 582 a1.5 1.5 0 1 0 3 0 a1.5 1.5 0 1 0 -3 0zM892.5 654 a1.5 1.5 0 1 0 3 0 a1.5 1.5 0 1 0 -3 0zM892.5 666 a1.5 1.5 0 1 0 3 0 a1.5 1.5 0 1 0 -3 0z" fill="black"></path><path d="M508.5 270 a1.5 1.5 0 1 0 3 0 a1.5 1.5 0 1 0 -3 0zM496.5 666 a1.5 1.5 0 1 0 3 0 a1.5 1.5 0 1 0 -3 0zM508.5 330 a1.5 1.5 0 1 0 3 0 a1.5 1.5 0 1 0 -3 0zM484.5 282 a1.5 1.5 0 1 0 3 0 a1.5 1.5 0 1 0 -3 0zM460.5 258 a1.5 1.5 0 1 0 3 0 a1.5 1.5 0 1 0 -3 0zM484.5 474 a1.5 1.5 0 1 0 3 0 a1.5 1.5 0 1 0 -3 0zM532.5 774 a1.5 1.5 0 1 0 3 0 a1.5 1.5 0 1 0 -3 0zM484.5 450 a1.5 1.5 0 1 0 3 0 a1.5 1.5 0 1 0 -3 0zM472.5 306 a1.5 1.5 0 1 0 3 0 a1.5 1.5 0 1 0 -3 0zM520.5 762 a1.5 1.5 0 1 0 3 0 a1.5 1.5 0 1 0 -3 0zM496.5 474 a1.5 1.5 0 1 0 3 0 a1.5 1.5 0 1 0 -3 0zM496.5 282 a1.5 1.5 0 1 0 3 0 a1.5 1.5 0 1 0 -3 0z" fill="black"></path><path d="M1000.5 174 a1.5 1.5 0 1 0 3 0 a1.5 1.5 0 1 0 -3 0zM988.5 174 a1.5 1.5 0 1 0 3 0 a1.5 1.5 0 1 0 -3 0zM988.5 210 a1.5 1.5 0 1 0 3 0 a1.5 1.5 0 1 0 -3 0zM976.5 246 a1.5 1.5 0 1 0 3 0 a1.5 1.5 0 1 0 -3 0zM928.5 606 a1.5 1.5 0 1 0 3 0 a1.5 1.5 0 1 0 -3 0z" fill="black"></path><path d="M880.5 786 a1.5 1.5 0 1 0 3 0 a1.5 1.5 0 1 0 -3 0z" fill="black"></path><path d="M496.5 702 a1.5 1.5 0 1 0 3 0 a1.5 1.5 0 1 0 -3 0z" fill="black"></path><path d="M1012.5 126 a1.5 1.5 0 1 0 3 0 a1.5 1.5 0 1 0 -3 0zM1000.5 114 a1.5 1.5 0 1 0 3 0 a1.5 1.5 0 1 0 -3 0zM1000.5 306 a1.5 1.5 0 1 0 3 0 a1.5 1.5 0 1 0 -3 0zM1000.5 318 a1.5 1.5 0 1 0 3 0 a1.5 1.5 0 1 0 -3 0zM916.5 678 a1.5 1.5 0 1 0 3 0 a1.5 1.5 0 1 0 -3 0zM1000.5 330 a1.5 1.5 0 1 0 3 0 a1.5 1.5 0 1 0 -3 0zM1012.5 114 a1.5 1.5 0 1 0 3 0 a1.5 1.5 0 1 0 -3 0z" fill="black"></path><path d="M472.5 534 a1.5 1.5 0 1 0 3 0 a1.5 1.5 0 1 0 -3 0zM460.5 546 a1.5 1.5 0 1 0 3 0 a1.5 1.5 0 1 0 -3 0zM496.5 642 a1.5 1.5 0 1 0 3 0 a1.5 1.5 0 1 0 -3 0z" fill="black"></path><path d="M988.5 366 a1.5 1.5 0 1 0 3 0 a1.5 1.5 0 1 0 -3 0zM988.5 438 a1.5 1.5 0 1 0 3 0 a1.5 1.5 0 1 0 -3 0zM988.5 462 a1.5 1.5 0 1 0 3 0 a1.5 1.5 0 1 0 -3 0zM988.5 474 a1.5 1.5 0 1 0 3 0 a1.5 1.5 0 1 0 -3 0zM988.5 498 a1.5 1.5 0 1 0 3 0 a1.5 1.5 0 1 0 -3 0zM916.5 750 a1.5 1.5 0 1 0 3 0 a1.5 1.5 0 1 0 -3 0zM988.5 522 a1.5 1.5 0 1 0 3 0 a1.5 1.5 0 1 0 -3 0zM976.5 558 a1.5 1.5 0 1 0 3 0 a1.5 1.5 0 1 0 -3 0zM916.5 762 a1.5 1.5 0 1 0 3 0 a1.5 1.5 0 1 0 -3 0z" fill="black"></path><path d="M460.5 582 a1.5 1.5 0 1 0 3 0 a1.5 1.5 0 1 0 -3 0zM460.5 630 a1.5 1.5 0 1 0 3 0 a1.5 1.5 0 1 0 -3 0z" fill="black"></path><path d="M1036.5 138 a1.5 1.5 0 1 0 3 0 a1.5 1.5 0 1 0 -3 0zM976.5 582 a1.5 1.5 0 1 0 3 0 a1.5 1.5 0 1 0 -3 0zM1048.5 114 a1.5 1.5 0 1 0 3 0 a1.5 1.5 0 1 0 -3 0zM1060.5 114 a1.5 1.5 0 1 0 3 0 a1.5 1.5 0 1 0 -3 0zM988.5 546 a1.5 1.5 0 1 0 3 0 a1.5 1.5 0 1 0 -3 0zM916.5 774 a1.5 1.5 0 1 0 3 0 a1.5 1.5 0 1 0 -3 0zM1024.5 270 a1.5 1.5 0 1 0 3 0 a1.5 1.5 0 1 0 -3 0zM1024.5 150 a1.5 1.5 0 1 0 3 0 a1.5 1.5 0 1 0 -3 0zM1000.5 342 a1.5 1.5 0 1 0 3 0 a1.5 1.5 0 1 0 -3 0z" fill="black"></path><path d="M448.5 438 a1.5 1.5 0 1 0 3 0 a1.5 1.5 0 1 0 -3 0zM436.5 522 a1.5 1.5 0 1 0 3 0 a1.5 1.5 0 1 0 -3 0zM436.5 630 a1.5 1.5 0 1 0 3 0 a1.5 1.5 0 1 0 -3 0zM436.5 486 a1.5 1.5 0 1 0 3 0 a1.5 1.5 0 1 0 -3 0zM436.5 678 a1.5 1.5 0 1 0 3 0 a1.5 1.5 0 1 0 -3 0zM460.5 642 a1.5 1.5 0 1 0 3 0 a1.5 1.5 0 1 0 -3 0zM424.5 570 a1.5 1.5 0 1 0 3 0 a1.5 1.5 0 1 0 -3 0zM460.5 498 a1.5 1.5 0 1 0 3 0 a1.5 1.5 0 1 0 -3 0zM436.5 438 a1.5 1.5 0 1 0 3 0 a1.5 1.5 0 1 0 -3 0z" fill="black"></path><path d="M1000.5 558 a1.5 1.5 0 1 0 3 0 a1.5 1.5 0 1 0 -3 0zM940.5 786 a1.5 1.5 0 1 0 3 0 a1.5 1.5 0 1 0 -3 0zM976.5 630 a1.5 1.5 0 1 0 3 0 a1.5 1.5 0 1 0 -3 0z" fill="black"></path><path d="M388.5 222 a1.5 1.5 0 1 0 3 0 a1.5 1.5 0 1 0 -3 0zM400.5 246 a1.5 1.5 0 1 0 3 0 a1.5 1.5 0 1 0 -3 0zM424.5 354 a1.5 1.5 0 1 0 3 0 a1.5 1.5 0 1 0 -3 0zM424.5 522 a1.5 1.5 0 1 0 3 0 a1.5 1.5 0 1 0 -3 0zM412.5 594 a1.5 1.5 0 1 0 3 0 a1.5 1.5 0 1 0 -3 0zM400.5 426 a1.5 1.5 0 1 0 3 0 a1.5 1.5 0 1 0 -3 0zM424.5 630 a1.5 1.5 0 1 0 3 0 a1.5 1.5 0 1 0 -3 0zM400.5 498 a1.5 1.5 0 1 0 3 0 a1.5 1.5 0 1 0 -3 0zM400.5 354 a1.5 1.5 0 1 0 3 0 a1.5 1.5 0 1 0 -3 0zM436.5 714 a1.5 1.5 0 1 0 3 0 a1.5 1.5 0 1 0 -3 0zM424.5 642 a1.5 1.5 0 1 0 3 0 a1.5 1.5 0 1 0 -3 0zM400.5 558 a1.5 1.5 0 1 0 3 0 a1.5 1.5 0 1 0 -3 0zM424.5 534 a1.5 1.5 0 1 0 3 0 a1.5 1.5 0 1 0 -3 0z" fill="black"></path><path d="M1036.5 174 a1.5 1.5 0 1 0 3 0 a1.5 1.5 0 1 0 -3 0zM1060.5 150 a1.5 1.5 0 1 0 3 0 a1.5 1.5 0 1 0 -3 0zM1036.5 306 a1.5 1.5 0 1 0 3 0 a1.5 1.5 0 1 0 -3 0zM1072.5 114 a1.5 1.5 0 1 0 3 0 a1.5 1.5 0 1 0 -3 0zM1048.5 306 a1.5 1.5 0 1 0 3 0 a1.5 1.5 0 1 0 -3 0zM1048.5 318 a1.5 1.5 0 1 0 3 0 a1.5 1.5 0 1 0 -3 0zM1024.5 402 a1.5 1.5 0 1 0 3 0 a1.5 1.5 0 1 0 -3 0zM976.5 642 a1.5 1.5 0 1 0 3 0 a1.5 1.5 0 1 0 -3 0zM964.5 702 a1.5 1.5 0 1 0 3 0 a1.5 1.5 0 1 0 -3 0zM1024.5 294 a1.5 1.5 0 1 0 3 0 a1.5 1.5 0 1 0 -3 0zM1048.5 450 a1.5 1.5 0 1 0 3 0 a1.5 1.5 0 1 0 -3 0zM988.5 654 a1.5 1.5 0 1 0 3 0 a1.5 1.5 0 1 0 -3 0z" fill="black"></path><path d="M388.5 402 a1.5 1.5 0 1 0 3 0 a1.5 1.5 0 1 0 -3 0zM376.5 366 a1.5 1.5 0 1 0 3 0 a1.5 1.5 0 1 0 -3 0zM376.5 450 a1.5 1.5 0 1 0 3 0 a1.5 1.5 0 1 0 -3 0zM376.5 474 a1.5 1.5 0 1 0 3 0 a1.5 1.5 0 1 0 -3 0zM364.5 378 a1.5 1.5 0 1 0 3 0 a1.5 1.5 0 1 0 -3 0zM376.5 486 a1.5 1.5 0 1 0 3 0 a1.5 1.5 0 1 0 -3 0zM400.5 570 a1.5 1.5 0 1 0 3 0 a1.5 1.5 0 1 0 -3 0zM364.5 414 a1.5 1.5 0 1 0 3 0 a1.5 1.5 0 1 0 -3 0zM376.5 510 a1.5 1.5 0 1 0 3 0 a1.5 1.5 0 1 0 -3 0z" fill="black"></path><path d="M388.5 114 a1.5 1.5 0 1 0 3 0 a1.5 1.5 0 1 0 -3 0zM364.5 426 a1.5 1.5 0 1 0 3 0 a1.5 1.5 0 1 0 -3 0zM376.5 522 a1.5 1.5 0 1 0 3 0 a1.5 1.5 0 1 0 -3 0zM340.5 378 a1.5 1.5 0 1 0 3 0 a1.5 1.5 0 1 0 -3 0zM340.5 246 a1.5 1.5 0 1 0 3 0 a1.5 1.5 0 1 0 -3 0zM376.5 114 a1.5 1.5 0 1 0 3 0 a1.5 1.5 0 1 0 -3 0zM364.5 282 a1.5 1.5 0 1 0 3 0 a1.5 1.5 0 1 0 -3 0zM316.5 210 a1.5 1.5 0 1 0 3 0 a1.5 1.5 0 1 0 -3 0zM340.5 402 a1.5 1.5 0 1 0 3 0 a1.5 1.5 0 1 0 -3 0zM424.5 750 a1.5 1.5 0 1 0 3 0 a1.5 1.5 0 1 0 -3 0zM328.5 294 a1.5 1.5 0 1 0 3 0 a1.5 1.5 0 1 0 -3 0zM364.5 138 a1.5 1.5 0 1 0 3 0 a1.5 1.5 0 1 0 -3 0zM352.5 114 a1.5 1.5 0 1 0 3 0 a1.5 1.5 0 1 0 -3 0zM376.5 234 a1.5 1.5 0 1 0 3 0 a1.5 1.5 0 1 0 -3 0zM364.5 462 a1.5 1.5 0 1 0 3 0 a1.5 1.5 0 1 0 -3 0z" fill="black"></path><path d="M1024.5 522 a1.5 1.5 0 1 0 3 0 a1.5 1.5 0 1 0 -3 0zM988.5 666 a1.5 1.5 0 1 0 3 0 a1.5 1.5 0 1 0 -3 0zM964.5 714 a1.5 1.5 0 1 0 3 0 a1.5 1.5 0 1 0 -3 0zM1048.5 486 a1.5 1.5 0 1 0 3 0 a1.5 1.5 0 1 0 -3 0z" fill="black"></path><path d="M304.5 186 a1.5 1.5 0 1 0 3 0 a1.5 1.5 0 1 0 -3 0zM280.5 318 a1.5 1.5 0 1 0 3 0 a1.5 1.5 0 1 0 -3 0zM316.5 246 a1.5 1.5 0 1 0 3 0 a1.5 1.5 0 1 0 -3 0zM292.5 222 a1.5 1.5 0 1 0 3 0 a1.5 1.5 0 1 0 -3 0zM292.5 258 a1.5 1.5 0 1 0 3 0 a1.5 1.5 0 1 0 -3 0zM280.5 354 a1.5 1.5 0 1 0 3 0 a1.5 1.5 0 1 0 -3 0zM376.5 618 a1.5 1.5 0 1 0 3 0 a1.5 1.5 0 1 0 -3 0zM280.5 258 a1.5 1.5 0 1 0 3 0 a1.5 1.5 0 1 0 -3 0zM412.5 774 a1.5 1.5 0 1 0 3 0 a1.5 1.5 0 1 0 -3 0zM340.5 438 a1.5 1.5 0 1 0 3 0 a1.5 1.5 0 1 0 -3 0zM340.5 342 a1.5 1.5 0 1 0 3 0 a1.5 1.5 0 1 0 -3 0zM340.5 474 a1.5 1.5 0 1 0 3 0 a1.5 1.5 0 1 0 -3 0zM316.5 186 a1.5 1.5 0 1 0 3 0 a1.5 1.5 0 1 0 -3 0zM316.5 330 a1.5 1.5 0 1 0 3 0 a1.5 1.5 0 1 0 -3 0z" fill="black"></path><path d="M1048.5 258 a1.5 1.5 0 1 0 3 0 a1.5 1.5 0 1 0 -3 0zM1060.5 282 a1.5 1.5 0 1 0 3 0 a1.5 1.5 0 1 0 -3 0zM1048.5 498 a1.5 1.5 0 1 0 3 0 a1.5 1.5 0 1 0 -3 0zM1000.5 702 a1.5 1.5 0 1 0 3 0 a1.5 1.5 0 1 0 -3 0zM1072.5 462 a1.5 1.5 0 1 0 3 0 a1.5 1.5 0 1 0 -3 0zM988.5 726 a1.5 1.5 0 1 0 3 0 a1.5 1.5 0 1 0 -3 0zM1072.5 498 a1.5 1.5 0 1 0 3 0 a1.5 1.5 0 1 0 -3 0zM1048.5 354 a1.5 1.5 0 1 0 3 0 a1.5 1.5 0 1 0 -3 0zM988.5 738 a1.5 1.5 0 1 0 3 0 a1.5 1.5 0 1 0 -3 0zM1048.5 390 a1.5 1.5 0 1 0 3 0 a1.5 1.5 0 1 0 -3 0zM1072.5 366 a1.5 1.5 0 1 0 3 0 a1.5 1.5 0 1 0 -3 0zM1048.5 510 a1.5 1.5 0 1 0 3 0 a1.5 1.5 0 1 0 -3 0z" fill="black"></path><path d="M280.5 402 a1.5 1.5 0 1 0 3 0 a1.5 1.5 0 1 0 -3 0zM340.5 618 a1.5 1.5 0 1 0 3 0 a1.5 1.5 0 1 0 -3 0zM340.5 498 a1.5 1.5 0 1 0 3 0 a1.5 1.5 0 1 0 -3 0zM352.5 654 a1.5 1.5 0 1 0 3 0 a1.5 1.5 0 1 0 -3 0zM412.5 786 a1.5 1.5 0 1 0 3 0 a1.5 1.5 0 1 0 -3 0zM364.5 690 a1.5 1.5 0 1 0 3 0 a1.5 1.5 0 1 0 -3 0zM316.5 426 a1.5 1.5 0 1 0 3 0 a1.5 1.5 0 1 0 -3 0zM340.5 510 a1.5 1.5 0 1 0 3 0 a1.5 1.5 0 1 0 -3 0zM388.5 738 a1.5 1.5 0 1 0 3 0 a1.5 1.5 0 1 0 -3 0z" fill="black"></path><path d="M988.5 798 a1.5 1.5 0 1 0 3 0 a1.5 1.5 0 1 0 -3 0z" fill="black"></path><path d="M1060.5 534 a1.5 1.5 0 1 0 3 0 a1.5 1.5 0 1 0 -3 0zM1000.5 714 a1.5 1.5 0 1 0 3 0 a1.5 1.5 0 1 0 -3 0zM988.5 774 a1.5 1.5 0 1 0 3 0 a1.5 1.5 0 1 0 -3 0z" fill="black"></path><path d="M292.5 162 a1.5 1.5 0 1 0 3 0 a1.5 1.5 0 1 0 -3 0zM280.5 174 a1.5 1.5 0 1 0 3 0 a1.5 1.5 0 1 0 -3 0zM280.5 198 a1.5 1.5 0 1 0 3 0 a1.5 1.5 0 1 0 -3 0zM340.5 630 a1.5 1.5 0 1 0 3 0 a1.5 1.5 0 1 0 -3 0zM304.5 486 a1.5 1.5 0 1 0 3 0 a1.5 1.5 0 1 0 -3 0zM316.5 534 a1.5 1.5 0 1 0 3 0 a1.5 1.5 0 1 0 -3 0zM280.5 210 a1.5 1.5 0 1 0 3 0 a1.5 1.5 0 1 0 -3 0zM304.5 510 a1.5 1.5 0 1 0 3 0 a1.5 1.5 0 1 0 -3 0zM352.5 678 a1.5 1.5 0 1 0 3 0 a1.5 1.5 0 1 0 -3 0zM268.5 234 a1.5 1.5 0 1 0 3 0 a1.5 1.5 0 1 0 -3 0zM352.5 690 a1.5 1.5 0 1 0 3 0 a1.5 1.5 0 1 0 -3 0zM280.5 366 a1.5 1.5 0 1 0 3 0 a1.5 1.5 0 1 0 -3 0zM316.5 570 a1.5 1.5 0 1 0 3 0 a1.5 1.5 0 1 0 -3 0zM280.5 378 a1.5 1.5 0 1 0 3 0 a1.5 1.5 0 1 0 -3 0z" fill="black"></path><path d="M1072.5 534 a1.5 1.5 0 1 0 3 0 a1.5 1.5 0 1 0 -3 0z" fill="black"></path><path d="M376.5 774 a1.5 1.5 0 1 0 3 0 a1.5 1.5 0 1 0 -3 0z" fill="black"></path><path d="M1084.5 426 a1.5 1.5 0 1 0 3 0 a1.5 1.5 0 1 0 -3 0zM1072.5 474 a1.5 1.5 0 1 0 3 0 a1.5 1.5 0 1 0 -3 0zM1072.5 438 a1.5 1.5 0 1 0 3 0 a1.5 1.5 0 1 0 -3 0z" fill="black"></path><path d="M268.5 174 a1.5 1.5 0 1 0 3 0 a1.5 1.5 0 1 0 -3 0zM244.5 294 a1.5 1.5 0 1 0 3 0 a1.5 1.5 0 1 0 -3 0zM244.5 114 a1.5 1.5 0 1 0 3 0 a1.5 1.5 0 1 0 -3 0zM232.5 114 a1.5 1.5 0 1 0 3 0 a1.5 1.5 0 1 0 -3 0zM316.5 582 a1.5 1.5 0 1 0 3 0 a1.5 1.5 0 1 0 -3 0zM244.5 270 a1.5 1.5 0 1 0 3 0 a1.5 1.5 0 1 0 -3 0zM304.5 462 a1.5 1.5 0 1 0 3 0 a1.5 1.5 0 1 0 -3 0zM256.5 186 a1.5 1.5 0 1 0 3 0 a1.5 1.5 0 1 0 -3 0zM352.5 750 a1.5 1.5 0 1 0 3 0 a1.5 1.5 0 1 0 -3 0zM304.5 606 a1.5 1.5 0 1 0 3 0 a1.5 1.5 0 1 0 -3 0zM304.5 558 a1.5 1.5 0 1 0 3 0 a1.5 1.5 0 1 0 -3 0zM256.5 198 a1.5 1.5 0 1 0 3 0 a1.5 1.5 0 1 0 -3 0z" fill="black"></path><path d="M1084.5 258 a1.5 1.5 0 1 0 3 0 a1.5 1.5 0 1 0 -3 0zM1108.5 342 a1.5 1.5 0 1 0 3 0 a1.5 1.5 0 1 0 -3 0zM1120.5 366 a1.5 1.5 0 1 0 3 0 a1.5 1.5 0 1 0 -3 0zM1132.5 390 a1.5 1.5 0 1 0 3 0 a1.5 1.5 0 1 0 -3 0zM1096.5 558 a1.5 1.5 0 1 0 3 0 a1.5 1.5 0 1 0 -3 0zM1096.5 258 a1.5 1.5 0 1 0 3 0 a1.5 1.5 0 1 0 -3 0zM1108.5 246 a1.5 1.5 0 1 0 3 0 a1.5 1.5 0 1 0 -3 0zM1120.5 486 a1.5 1.5 0 1 0 3 0 a1.5 1.5 0 1 0 -3 0zM1072.5 246 a1.5 1.5 0 1 0 3 0 a1.5 1.5 0 1 0 -3 0zM1096.5 342 a1.5 1.5 0 1 0 3 0 a1.5 1.5 0 1 0 -3 0zM1096.5 378 a1.5 1.5 0 1 0 3 0 a1.5 1.5 0 1 0 -3 0zM1120.5 510 a1.5 1.5 0 1 0 3 0 a1.5 1.5 0 1 0 -3 0z" fill="black"></path><path d="M244.5 342 a1.5 1.5 0 1 0 3 0 a1.5 1.5 0 1 0 -3 0zM268.5 486 a1.5 1.5 0 1 0 3 0 a1.5 1.5 0 1 0 -3 0zM232.5 450 a1.5 1.5 0 1 0 3 0 a1.5 1.5 0 1 0 -3 0zM280.5 618 a1.5 1.5 0 1 0 3 0 a1.5 1.5 0 1 0 -3 0zM292.5 570 a1.5 1.5 0 1 0 3 0 a1.5 1.5 0 1 0 -3 0zM268.5 618 a1.5 1.5 0 1 0 3 0 a1.5 1.5 0 1 0 -3 0zM268.5 510 a1.5 1.5 0 1 0 3 0 a1.5 1.5 0 1 0 -3 0zM304.5 630 a1.5 1.5 0 1 0 3 0 a1.5 1.5 0 1 0 -3 0zM220.5 342 a1.5 1.5 0 1 0 3 0 a1.5 1.5 0 1 0 -3 0zM256.5 426 a1.5 1.5 0 1 0 3 0 a1.5 1.5 0 1 0 -3 0zM220.5 462 a1.5 1.5 0 1 0 3 0 a1.5 1.5 0 1 0 -3 0z" fill="black"></path></mask></defs></svg>