<svg xmlns="http://www.w3.org/2000/svg" viewBox="0 0 512 512"><title>Artboard 153</title><g id="Cleaning_Brush" data-name="Cleaning Brush"><path d="M85.33333,277.33333V448a21.33334,21.33334,0,0,0,21.33334,21.33333h42.66666A21.33334,21.33334,0,0,0,170.66667,448V405.33331A21.33331,21.33331,0,0,1,192,384h0a21.33331,21.33331,0,0,1,21.33331,21.33331V448a21.33334,21.33334,0,0,0,21.33334,21.33333H405.33333A21.33334,21.33334,0,0,0,426.66667,448V277.33333Z" style="fill:#fbc700"/><path d="M405.33333,170.66667H298.66667l21.24349-126.069a21.33175,21.33175,0,0,0-21.2448-23.26433H213.33464a21.33176,21.33176,0,0,0-21.2448,23.26433l21.24349,126.069H106.66667A42.66627,42.66627,0,0,0,64,213.33333v85.33334H448V213.33333A42.66627,42.66627,0,0,0,405.33333,170.66667ZM256,64a21.33334,21.33334,0,1,1-21.33333,21.33333A21.33272,21.33272,0,0,1,256,64Z" style="fill:#e80035"/><path d="M362.66667,170.66667H277.33333l21.24349-126.069A21.33175,21.33175,0,0,0,277.332,21.33333H213.33464a21.33176,21.33176,0,0,0-21.2448,23.26433l21.24349,126.069H128a42.66628,42.66628,0,0,0-42.66667,42.66666v85.33334h320V213.33333A42.66627,42.66627,0,0,0,362.66667,170.66667ZM256,64a21.33334,21.33334,0,1,1-21.33333,21.33333A21.33272,21.33272,0,0,1,256,64Z" style="fill:#fa4659"/><rect x="106.66667" y="170.66667" width="213.33333" height="106.66667" rx="42.66667" ry="42.66667" style="fill:#fb7c8a"/><ellipse cx="234.66667" cy="42.66667" rx="25.3922" ry="16.28603" transform="translate(38.56239 178.43117) rotate(-45)" style="fill:#fb7c8a"/><rect x="149.33333" y="170.66667" width="128" height="106.66667" rx="42.66667" ry="42.66667" style="fill:#fdb8bf"/><path d="M106.66667,341.33333V448A21.33333,21.33333,0,0,0,128,469.33333h21.33333A21.33334,21.33334,0,0,0,170.66667,448V405.33333a21.33333,21.33333,0,1,1,42.66666,0V448a21.33334,21.33334,0,0,0,21.33334,21.33333h128A21.33333,21.33333,0,0,0,384,448V341.33333A21.33333,21.33333,0,0,0,362.66667,320H128A21.33333,21.33333,0,0,0,106.66667,341.33333Z" style="fill:#ffef7d"/><path d="M149.33333,469.33333A21.32772,21.32772,0,0,1,128,448V362.66667a21.33333,21.33333,0,1,1,42.66667,0V448A21.32772,21.32772,0,0,1,149.33333,469.33333Z" style="fill:#fff6b5"/><path d="M234.66667,469.33333A21.32772,21.32772,0,0,1,213.33333,448V362.66667a21.33333,21.33333,0,1,1,42.66667,0V448A21.32772,21.32772,0,0,1,234.66667,469.33333Z" style="fill:#fff6b5"/><path d="M320,469.33333A21.32772,21.32772,0,0,1,298.66667,448V362.66667a21.33333,21.33333,0,1,1,42.66666,0V448A21.32772,21.32772,0,0,1,320,469.33333Z" style="fill:#fff6b5"/><path d="M362.66667,469.33333A21.32772,21.32772,0,0,1,341.33333,448V362.66667a21.33333,21.33333,0,1,1,42.66667,0V448A21.32772,21.32772,0,0,1,362.66667,469.33333Z" style="fill:#fcdf3f"/><path d="M277.33333,469.33333A21.32772,21.32772,0,0,1,256,448V362.66667a21.33334,21.33334,0,1,1,42.66667,0V448A21.32772,21.32772,0,0,1,277.33333,469.33333Z" style="fill:#fcdf3f"/></g></svg>