<?xml version="1.0" encoding="iso-8859-1"?>
<!-- Uploaded to: SVG Repo, www.svgrepo.com, Generator: SVG Repo Mixer Tools -->
<svg height="800px" width="800px" version="1.1" id="Layer_1" xmlns="http://www.w3.org/2000/svg" xmlns:xlink="http://www.w3.org/1999/xlink" 
	 viewBox="0 0 512.002 512.002" xml:space="preserve">
<path style="fill:#E6E6E6;" d="M330.391,299.581l-64.844,40.281l-139.48-224.536C103.82,79.513,114.818,32.447,150.63,10.2l0,0
	L330.391,299.581z"/>
<path style="fill:#E8655A;" d="M330.196,299.702l-64.65,40.16l78.278,126.013c22.18,35.706,69.105,46.669,104.809,24.49l0,0
	c35.706-22.18,46.669-69.105,24.49-104.809l-38.118-61.362C412.826,288.488,365.901,277.523,330.196,299.702z M436.024,402.695
	c10.36,16.678,5.239,38.596-11.439,48.955l0,0c-16.678,10.36-38.596,5.239-48.956-11.439l-32.824-52.841
	c-10.36-16.678-5.239-38.596,11.439-48.955l0,0c16.678-10.36,38.596-5.239,48.955,11.439L436.024,402.695z"/>
<path style="fill:#E6E6E6;" d="M181.61,299.581l64.844,40.281l139.48-224.536C408.18,79.513,397.183,32.447,361.37,10.2l0,0
	L181.61,299.581z"/>
<path style="fill:#E8655A;" d="M76.995,324.192l-38.118,61.362c-22.18,35.706-11.215,82.63,24.49,104.809l0,0
	c35.706,22.18,82.63,11.215,104.809-24.49l78.278-126.013l-64.65-40.16C146.1,277.523,99.174,288.488,76.995,324.192z
	 M108.801,349.855c10.36-16.678,32.278-21.799,48.956-11.439l0,0c16.678,10.36,21.799,32.278,11.439,48.955l-32.824,52.841
	c-10.36,16.678-32.278,21.799-48.956,11.439l0,0c-16.678-10.36-21.799-32.278-11.439-48.955L108.801,349.855z"/>
<g>
	<path style="fill:#603813;" d="M218.398,160.423l-3.71-5.971c-2.97-4.784-9.259-6.254-14.046-3.281
		c-4.785,2.973-6.254,9.261-3.281,14.046l3.71,5.971c1.932,3.109,5.263,4.818,8.674,4.818c1.837,0,3.697-0.497,5.373-1.537
		C219.902,171.496,221.37,165.207,218.398,160.423z"/>
	<path style="fill:#603813;" d="M481.787,380.172l-38.118-61.362c-23.248-37.425-70.666-50.855-109.652-32.721l-21.076-33.929
		l81.657-131.452c25.179-40.533,12.687-93.992-27.846-119.172c-2.297-1.427-5.067-1.883-7.703-1.268
		c-2.635,0.616-4.915,2.252-6.343,4.55L256,160.497L159.294,4.818c-1.427-2.298-3.709-3.934-6.343-4.55
		c-2.634-0.616-5.406-0.159-7.703,1.268c-40.532,25.179-53.024,78.639-27.846,119.172l81.658,131.453l-21.076,33.929
		c-38.986-18.135-86.405-4.705-109.652,32.721l-38.118,61.362C5.102,420.599,17.56,473.917,57.986,499.029
		c14.142,8.785,29.862,12.972,45.402,12.972c28.878,0,57.129-14.461,73.455-40.744l78.277-126.012l0.882-1.421l0.882,1.421
		l78.277,126.012c16.328,26.285,44.574,40.744,73.455,40.744c15.536,0,31.26-4.188,45.401-12.972
		C494.441,473.916,506.899,420.598,481.787,380.172z M316.344,296.299l-38.522,23.93l-8.993,5.586l-0.821-1.322l32.926-53.004
		L316.344,296.299z M134.731,109.944c-10.809-17.401-12.527-37.917-6.473-55.971l50.651,81.539c1.932,3.11,5.263,4.819,8.674,4.819
		c1.837,0,3.696-0.497,5.372-1.537c4.785-2.973,6.256-9.261,3.282-14.046l-56.73-91.324c2.461-3.045,5.216-5.897,8.255-8.509
		l96.23,154.913l-32.926,53.004L134.731,109.944z M364.238,24.915c3.039,2.613,5.795,5.464,8.255,8.509l-38.222,61.53
		c-2.973,4.785-1.503,11.074,3.282,14.046c1.676,1.041,3.535,1.537,5.372,1.537c3.411,0,6.742-1.709,8.674-4.819l32.144-51.746
		c6.055,18.054,4.336,38.57-6.473,55.971L243.171,325.815l-47.515-29.516L364.238,24.915z M159.513,460.492
		c-12.469,20.072-34.04,31.116-56.094,31.114c-11.864,0-23.872-3.198-34.67-9.906c-30.87-19.177-40.383-59.892-21.207-90.763
		l38.118-61.362c19.177-30.871,59.892-40.384,90.763-21.207l55.985,34.777L159.513,460.492z M443.252,481.7
		c-30.873,19.177-71.589,9.661-90.764-21.207l-72.894-117.348l55.985-34.777c30.871-19.177,71.587-9.662,90.763,21.207
		l38.118,61.362C483.634,421.807,474.121,462.523,443.252,481.7z"/>
	<path style="fill:#603813;" d="M411.864,344.472c-6.448-10.38-16.553-17.628-28.452-20.409c-11.899-2.781-24.169-0.761-34.55,5.687
		c-21.429,13.312-28.032,41.575-14.721,63.002l32.824,52.841c8.655,13.933,23.628,21.598,38.937,21.597
		c8.235,0,16.57-2.219,24.065-6.876c21.429-13.312,28.032-41.575,14.721-63.002L411.864,344.472z M419.203,442.986
		c-11.874,7.375-27.532,3.718-34.911-8.158l-32.824-52.841c-7.374-11.874-3.717-27.533,8.157-34.909
		c4.067-2.526,8.657-3.826,13.328-3.826c1.935,0,3.885,0.223,5.816,0.674c6.593,1.541,12.192,5.557,15.765,11.309l32.825,52.841
		C434.735,419.951,431.077,435.611,419.203,442.986z"/>
	<path style="fill:#603813;" d="M163.138,329.751c-10.379-6.447-22.649-8.469-34.55-5.687c-11.899,2.78-22.003,10.028-28.451,20.408
		l-32.825,52.841C54,418.74,60.605,447.003,82.033,460.315c7.497,4.656,15.829,6.876,24.065,6.876
		c15.308,0,30.282-7.666,38.937-21.597l32.824-52.841C191.171,371.325,184.566,343.063,163.138,329.751z M160.531,381.988
		l-32.824,52.841c-7.377,11.876-23.037,15.532-34.911,8.158c-11.874-7.375-15.532-23.035-8.157-34.909l32.825-52.841l0,0
		c3.573-5.752,9.172-9.767,15.765-11.308c1.933-0.451,3.881-0.674,5.816-0.674c4.671,0,9.261,1.299,13.328,3.826
		C164.247,354.456,167.906,370.116,160.531,381.988z"/>
	<path style="fill:#603813;" d="M257.295,266.804c5.632,0,10.2-4.566,10.2-10.2v-9.115c0-5.633-4.568-10.2-10.2-10.2
		c-5.632,0-10.2,4.566-10.2,10.2v9.115C247.095,262.237,251.663,266.804,257.295,266.804z"/>
</g>
</svg>