<?xml version="1.0" encoding="UTF-8"?>
<!DOCTYPE svg PUBLIC "-//W3C//DTD SVG 1.1//EN" "http://www.w3.org/Graphics/SVG/1.1/DTD/svg11.dtd">
<!-- Creator: CorelDRAW -->
<svg xmlns="http://www.w3.org/2000/svg" xml:space="preserve" width="6.82666in" height="6.82666in" style="shape-rendering:geometricPrecision; text-rendering:geometricPrecision; image-rendering:optimizeQuality; fill-rule:evenodd; clip-rule:evenodd"
viewBox="0 0 6.82666 6.82666"
 xmlns:xlink="http://www.w3.org/1999/xlink">
 <defs>
  <style type="text/css">
   <![CDATA[
    .fil2 {fill:none}
    .fil1 {fill:#424242}
    .fil0 {fill:#64B5F6}
   ]]>
  </style>
 </defs>
 <g id="Layer_x0020_1">
  <metadata id="CorelCorpID_0Corel-Layer"/>
  <path class="fil0" d="M1.54898 0.853331l3.72105 0c0.386811,0 0.703295,0.316484 0.703295,0.703295l0 3.71341c0,0.386811 -0.316484,0.703295 -0.703295,0.703295l-3.71341 0c-0.386811,0 -0.703295,-0.316484 -0.703295,-0.703295l0 -3.72105c0,-0.38261 0.313043,-0.695654 0.695654,-0.695654zm0.711992 0.858839l0 -0.142945 -0.617713 0 0 0.178768 0.376161 0c-0.0773268,0.0959528 -0.133724,0.186043 -0.169374,0.27011 -0.0358228,0.0842402 -0.0618898,0.188524 -0.078563,0.312846l0.211051 0c0.00691339,-0.0893858 0.0203937,-0.166709 0.040437,-0.232331 0.0253543,-0.0840669 0.0597638,-0.160504 0.10339,-0.229134 0.0360039,-0.0564016 0.080878,-0.108894 0.13461,-0.157315zm1.09633 0.138693l-0.0108228 0.151102c0.0290827,-0.00815748 0.0519606,-0.0124134 0.0684606,-0.0124134 0.0312087,0 0.0558583,0.00975197 0.0741299,0.0290827 0.0180906,0.0195079 0.027315,0.0468228 0.027315,0.0821142 0,0.0345827 -0.00958268,0.0624213 -0.0283819,0.0831772 -0.0187992,0.020748 -0.0425591,0.0312126 -0.0709409,0.0312126 -0.0269567,0 -0.0492992,-0.00833465 -0.0666772,-0.0246535 -0.0175591,-0.0164921 -0.0305039,-0.0461142 -0.0388425,-0.0886732l-0.211406 0.0280197c0.0138386,0.0475276 0.0336969,0.0869055 0.0594134,0.118291 0.0258937,0.0312165 0.0587047,0.0551614 0.0987874,0.0714764 0.0400827,0.0161378 0.0947047,0.0242953 0.163874,0.0242953 0.0711181,0 0.128402,-0.0109961 0.172028,-0.0329843 0.043626,-0.0219921 0.0771496,-0.0533819 0.100382,-0.0939961 0.0230551,-0.0407953 0.0347598,-0.0831772 0.0347598,-0.127516 0,-0.0354685 -0.00709449,-0.0657953 -0.0211102,-0.0911575 -0.0140039,-0.0255433 -0.033689,-0.0461102 -0.058878,-0.0617205 -0.0156024,-0.00957874 -0.038126,-0.0180866 -0.0675669,-0.0253622 0.0363583,-0.0200394 0.0634921,-0.0434528 0.0815827,-0.0702283 0.0179094,-0.0266063 0.0269567,-0.0563976 0.0269567,-0.0893858 0,-0.0560394 -0.0221732,-0.102689 -0.0665079,-0.139752 -0.0443386,-0.037063 -0.116165,-0.0555118 -0.215657,-0.0555118 -0.0865472,0 -0.153413,0.0170276 -0.20076,0.0508976 -0.0473543,0.033878 -0.0792795,0.0828268 -0.0959528,0.146492l0.200055 0.0358268c0.00567717,-0.0377756 0.0161417,-0.0642047 0.031748,-0.0792756 0.0156063,-0.0148937 0.0358228,-0.0225276 0.0608268,-0.0225276 0.0242992,0 0.0432717,0.00691732 0.0571102,0.0207559 0.0138307,0.0138307 0.0207441,0.0324488 0.0207441,0.055685 0,0.0241181 -0.00921654,0.0452283 -0.0276614,0.0627835 -0.018622,0.0177323 -0.0416772,0.0265984 -0.0695197,0.0265984 -0.00656693,0 -0.0156063,-0.00088189 -0.0274882,-0.00265354zm1.27596 0.0113465c0.015252,0.0218189 0.039374,0.0416772 0.0727165,0.0592362 -0.0432756,0.0170236 -0.075378,0.0409685 -0.096126,0.0720079 -0.020748,0.0310354 -0.0312126,0.0688071 -0.0312126,0.113496 0,0.0457638 0.0111732,0.0872638 0.0333346,0.124154 0.0221772,0.0370591 0.0544528,0.0652638 0.0970157,0.0842402 0.042748,0.0191496 0.104283,0.0285512 0.184976,0.0285512 0.0430984,0 0.0835315,-0.00425591 0.121492,-0.0127677 0.0377717,-0.00833465 0.0695157,-0.0216378 0.0950591,-0.0397244 0.0253543,-0.0179134 0.046815,-0.0434528 0.064374,-0.0766181 0.017563,-0.0329921 0.026252,-0.0686339 0.026252,-0.106764 0,-0.0395512 -0.0101102,-0.0755512 -0.0305079,-0.108008 -0.0202205,-0.0326299 -0.0509016,-0.0587047 -0.0922244,-0.0785669 0.0312165,-0.020752 0.0540945,-0.0422126 0.0686339,-0.064378 0.0195157,-0.0297992 0.0290866,-0.0618937 0.0290866,-0.096126 0,-0.0588819 -0.0242953,-0.107654 -0.0728858,-0.146492 -0.0487717,-0.0388386 -0.123969,-0.0581693 -0.225772,-0.0581693 -0.0769685,0 -0.138866,0.0156102 -0.185508,0.0466417 -0.0599449,0.0406181 -0.0899173,0.0927598 -0.0899173,0.156421 0,0.0388465 0.0104646,0.0730748 0.0312126,0.102866zm0.156425 0.237472c0,-0.0352913 0.00975197,-0.063315 0.0292598,-0.084063 0.0195118,-0.0209291 0.0425669,-0.0312165 0.068815,-0.0312165 0.0267835,0 0.050189,0.0106457 0.0704055,0.0322835 0.0202205,0.0214567 0.0305039,0.0489488 0.0305039,0.0824685 0,0.0333386 -0.0101063,0.0608307 -0.0301496,0.0824646 -0.0202165,0.0216378 -0.0429173,0.0324567 -0.0681024,0.0324567 -0.0264252,0 -0.0496575,-0.0106457 -0.0702283,-0.0319213 -0.0203976,-0.0212835 -0.0305039,-0.0487717 -0.0305039,-0.0824724zm0.036 -0.264071c-0.0164921,-0.0161417 -0.0246496,-0.0374213 -0.0246496,-0.0636693 0,-0.0257165 0.00798031,-0.0466496 0.024122,-0.0626102 0.0161339,-0.0161378 0.037063,-0.0242953 0.0626024,-0.0242953 0.0253661,0 0.0461102,0.00833465 0.0624252,0.0248307 0.0163228,0.0163189 0.0244764,0.0377756 0.0244764,0.0640197 0,0.0253661 -0.00780315,0.045937 -0.0234094,0.0618976 -0.0156102,0.0159606 -0.0356496,0.0239449 -0.0597638,0.0239449 -0.0274961,0 -0.0493071,-0.00815748 -0.0658031,-0.0241181zm0.226386 1.22371c-0.0461102,-0.0260709 -0.107291,-0.039189 -0.183559,-0.039189 -0.063311,0 -0.115984,0.0106339 -0.157843,0.0319173 -0.0420315,0.0212874 -0.0748386,0.0526772 -0.0987874,0.0943543 -0.023937,0.0415 -0.0358189,0.0876102 -0.0358189,0.138157 0,0.0741299 0.0234094,0.135496 0.0704134,0.183909 0.0469921,0.0485945 0.104453,0.0727165 0.172732,0.0727165 0.0349409,0 0.0657992,-0.0060315 0.0925787,-0.0180906 0.0266024,-0.0122362 0.0524961,-0.0312126 0.0778583,-0.0572835 -0.00691732,0.0817559 -0.017378,0.135323 -0.0312165,0.160677 -0.0189764,0.0342283 -0.0455748,0.0514331 -0.0794528,0.0514331 -0.0189764,0 -0.0351102,-0.0060315 -0.0482402,-0.0182677 -0.0132992,-0.0120591 -0.0225236,-0.032811 -0.0281969,-0.062248l-0.210339 0.0264252c0.0124134,0.0406102 0.0303268,0.0743071 0.0535591,0.101272 0.0230551,0.0271299 0.0523189,0.0475276 0.0872638,0.0617126 0.0349331,0.0140118 0.082815,0.0209252 0.143291,0.0209252 0.102689,0 0.18285,-0.0319213 0.240665,-0.0957677 0.057815,-0.0640236 0.0867283,-0.16476 0.0867283,-0.302205 0,-0.0934646 -0.0138307,-0.168843 -0.0413228,-0.225768 -0.0274882,-0.0569331 -0.0643819,-0.0986102 -0.110315,-0.124681zm-0.101441 0.127874c0.0209252,0.0234055 0.0312087,0.055689 0.0312087,0.0968268 0,0.0406142 -0.0099252,0.0716575 -0.0296142,0.0934685 -0.019689,0.0219882 -0.0445157,0.032811 -0.074311,0.032811 -0.0287323,0 -0.0526693,-0.0111732 -0.0720039,-0.0336969 -0.0191535,-0.0225236 -0.0287323,-0.0551575 -0.0287323,-0.0977205 0,-0.0422126 0.00922441,-0.0739606 0.0278504,-0.0950591 0.018437,-0.0211063 0.0416772,-0.0317441 0.0698701,-0.0317441 0.0297953,0 0.0549803,0.0117047 0.0757323,0.0351142zm-1.31763 0.614079l0 -0.774673 -0.175043 0c-0.0225236,0.0477087 -0.0537441,0.0879685 -0.0934646,0.120598 -0.0399055,0.0324567 -0.0957756,0.0603031 -0.167953,0.0835315l0 0.173626c0.0489488,-0.0148937 0.0895591,-0.0305039 0.121843,-0.046815 0.0324488,-0.016315 0.0659724,-0.0375984 0.100555,-0.0638504l0 0.507583 0.214063 0zm-1.36706 -0.257425c0,-0.0744882 -0.0234094,-0.136031 -0.0704094,-0.184445 -0.047,-0.0485945 -0.10428,-0.0727165 -0.172209,-0.0727165 -0.0349409,0 -0.0657953,0.00602756 -0.0925787,0.0184449 -0.0265984,0.0122323 -0.0526693,0.0312165 -0.0778543,0.0569252 0.00656299,-0.081752 0.0168504,-0.135138 0.0306811,-0.160146 0.0189803,-0.0345827 0.0457559,-0.0519606 0.0799882,-0.0519606 0.0189764,0 0.0351102,0.00602756 0.0480591,0.0182677 0.0129449,0.0120551 0.0221732,0.032811 0.0278465,0.062248l0.210339 -0.0258937c-0.012063,-0.0409646 -0.0297953,-0.0748386 -0.0530276,-0.101803 -0.0230551,-0.0271299 -0.0523189,-0.0475276 -0.0874331,-0.0617126 -0.0352953,-0.0140118 -0.083185,-0.0209252 -0.143661,-0.0209252 -0.102508,0 -0.182846,0.0319173 -0.240661,0.0957677 -0.0578189,0.0640236 -0.0867244,0.16476 -0.0867244,0.302201 0,0.0938228 0.0138346,0.169374 0.0413268,0.226307 0.0274882,0.0569252 0.064374,0.0984252 0.110307,0.124496 0.0461102,0.0258937 0.107299,0.0388386 0.183563,0.0388386 0.063311,0 0.11598,-0.0106339 0.158197,-0.0319213 0.0420315,-0.0212835 0.0750157,-0.0526732 0.0986063,-0.0943504 0.0237638,-0.0415 0.0356457,-0.0874331 0.0356457,-0.137622zm-0.229673 -0.0925827c0.0193346,0.0225276 0.0290906,0.0553386 0.0290906,0.0982559 0,0.0420315 -0.00940157,0.0734252 -0.0280276,0.0945276 -0.0187953,0.0212835 -0.0418504,0.0317441 -0.0696929,0.0317441 -0.0301496,0 -0.0555157,-0.0117047 -0.0762598,-0.0351142 -0.0207559,-0.0232323 -0.0312205,-0.055689 -0.0312205,-0.0968307 0,-0.0406142 0.00993701,-0.0716535 0.0297992,-0.0934646 0.0200433,-0.021815 0.0446929,-0.032811 0.0741299,-0.032811 0.0287323,0 0.0528543,0.0113504 0.0721811,0.0336929zm0.153059 1.04444l-0.184445 0 -0.385563 0.458276 0 0.17398 0.385563 0 0 0.142417 0.184445 0 0 -0.142417 0.0955906 0 0 -0.164228 -0.0955906 0 0 -0.468028zm-0.184445 0.468028l-0.20378 0 0.20378 -0.239421 0 0.239421zm1.18784 -0.468028l-0.0670394 0.409504 0.180189 0.0258937c0.0170276,-0.0189764 0.0326339,-0.0321024 0.0468228,-0.0395512 0.0189764,-0.00992913 0.0388386,-0.0148937 0.0592323,-0.0148937 0.0321024,0 0.0579961,0.0104606 0.0773268,0.0315669 0.0195079,0.0211024 0.0290827,0.0544449 0.0290827,0.0998504 0,0.0443386 -0.0095748,0.0776811 -0.0287283,0.100024 -0.0193268,0.0223504 -0.0436299,0.0335236 -0.0730709,0.0335236 -0.0262441,0 -0.0489488,-0.00905118 -0.0681024,-0.0267874 -0.0189764,-0.0179055 -0.0310354,-0.0439803 -0.0363543,-0.0782047l-0.214063 0.0234094c0.0104646,0.0356457 0.0234094,0.065437 0.0390157,0.0893858 0.0156063,0.0237598 0.0360039,0.0452205 0.0610157,0.0640157 0.0251772,0.0189843 0.0556811,0.0331654 0.0915079,0.0427441 0.0358228,0.00940551 0.0789213,0.0141929 0.12911,0.0141929 0.069878,0 0.127339,-0.0118819 0.172209,-0.0358307 0.044874,-0.0239409 0.0794567,-0.0585236 0.103929,-0.103921 0.0244764,-0.0454055 0.0367087,-0.0925787 0.0367087,-0.141886 0,-0.069874 -0.0237598,-0.127866 -0.0712913,-0.173976 -0.0473504,-0.0461102 -0.109248,-0.0691654 -0.185508,-0.0691654 -0.0225276,0 -0.0452283,0.00283465 -0.0682835,0.00833071 -0.0230551,0.00549606 -0.0462913,0.0138307 -0.069878,0.0250079l0.0182677 -0.114394 0.340339 0 0 -0.168839 -0.502437 0zm1.65354 0.402055c-0.101449,0.0751969 -0.170618,0.140465 -0.2075,0.195618 -0.0368898,0.0553386 -0.0590591,0.114213 -0.0663346,0.177l0.634913 0 0 -0.172567 -0.330398 0c0.0193268,-0.0189764 0.0363504,-0.0344055 0.0507165,-0.0461102 0.0143701,-0.011878 0.042748,-0.0324528 0.0854882,-0.0618976 0.0716457,-0.0505433 0.12113,-0.0970039 0.14826,-0.13922 0.0271378,-0.0422087 0.0407953,-0.0865472 0.0407953,-0.133012 0,-0.043626 -0.0118819,-0.083 -0.0356457,-0.118291 -0.0235906,-0.0351102 -0.0562205,-0.061189 -0.0975472,-0.0782126 -0.0414961,-0.0168465 -0.0994961,-0.0253622 -0.173799,-0.0253622 -0.0714724,0 -0.127343,0.00887008 -0.167602,0.0267795 -0.040437,0.0177362 -0.0716496,0.0434528 -0.0938189,0.0767953 -0.0221654,0.0335197 -0.0374213,0.0799843 -0.0457559,0.139575l0.211933 0.0172008c0.00603543,-0.0430945 0.017563,-0.0730669 0.0345906,-0.0899173 0.0171969,-0.0170197 0.0391929,-0.0255315 0.0663268,-0.0255315 0.0258937,0 0.0475315,0.00833071 0.0647323,0.0246457 0.0170236,0.0164961 0.0257126,0.0363583 0.0257126,0.0595906 0,0.0214606 -0.00868898,0.0441614 -0.0260709,0.0681024 -0.017378,0.0237638 -0.0569252,0.0588819 -0.118996,0.104815z"/>
  <path class="fil1" d="M1.54898 1.17333c-0.20598,0 -0.375657,0.169677 -0.375657,0.375657l0 3.72105c0,0.210181 0.173118,0.383299 0.383299,0.383299l3.71341 0c0.210181,0 0.383299,-0.173118 0.383299,-0.383299l0 -3.71341c0,-0.210181 -0.173118,-0.383299 -0.383299,-0.383299l-3.72105 0zm0.711992 0.538843l0 -0.142945 -0.617713 0 0 0.178768 0.376161 0c-0.0773268,0.0959528 -0.133724,0.186043 -0.169374,0.27011 -0.0358228,0.0842402 -0.0618898,0.188524 -0.078563,0.312846l0.211051 0c0.00691339,-0.0893858 0.0203937,-0.166709 0.040437,-0.232331 0.0253543,-0.0840669 0.0597638,-0.160504 0.10339,-0.229134 0.0360039,-0.0564016 0.080878,-0.108894 0.13461,-0.157315zm1.09633 0.138693l-0.0108228 0.151102c0.0290827,-0.00815748 0.0519606,-0.0124134 0.0684606,-0.0124134 0.0312087,0 0.0558583,0.00975197 0.0741299,0.0290827 0.0180906,0.0195079 0.027315,0.0468228 0.027315,0.0821142 0,0.0345827 -0.00958268,0.0624213 -0.0283819,0.0831772 -0.0187992,0.020748 -0.0425591,0.0312126 -0.0709409,0.0312126 -0.0269567,0 -0.0492992,-0.00833465 -0.0666772,-0.0246535 -0.0175591,-0.0164921 -0.0305039,-0.0461142 -0.0388425,-0.0886732l-0.211406 0.0280197c0.0138386,0.0475276 0.0336969,0.0869055 0.0594134,0.118291 0.0258937,0.0312165 0.0587047,0.0551614 0.0987874,0.0714764 0.0400827,0.0161378 0.0947047,0.0242953 0.163874,0.0242953 0.0711181,0 0.128402,-0.0109961 0.172028,-0.0329843 0.043626,-0.0219921 0.0771496,-0.0533819 0.100382,-0.0939961 0.0230551,-0.0407953 0.0347598,-0.0831772 0.0347598,-0.127516 0,-0.0354685 -0.00709449,-0.0657953 -0.0211102,-0.0911575 -0.0140039,-0.0255433 -0.033689,-0.0461102 -0.058878,-0.0617205 -0.0156024,-0.00957874 -0.038126,-0.0180866 -0.0675669,-0.0253622 0.0363583,-0.0200394 0.0634921,-0.0434528 0.0815827,-0.0702283 0.0179094,-0.0266063 0.0269567,-0.0563976 0.0269567,-0.0893858 0,-0.0560394 -0.0221732,-0.102689 -0.0665079,-0.139752 -0.0443386,-0.037063 -0.116165,-0.0555118 -0.215657,-0.0555118 -0.0865472,0 -0.153413,0.0170276 -0.20076,0.0508976 -0.0473543,0.033878 -0.0792795,0.0828268 -0.0959528,0.146492l0.200055 0.0358268c0.00567717,-0.0377756 0.0161417,-0.0642047 0.031748,-0.0792756 0.0156063,-0.0148937 0.0358228,-0.0225276 0.0608268,-0.0225276 0.0242992,0 0.0432717,0.00691732 0.0571102,0.0207559 0.0138307,0.0138307 0.0207441,0.0324488 0.0207441,0.055685 0,0.0241181 -0.00921654,0.0452283 -0.0276614,0.0627835 -0.018622,0.0177323 -0.0416772,0.0265984 -0.0695197,0.0265984 -0.00656693,0 -0.0156063,-0.00088189 -0.0274882,-0.00265354zm1.27596 0.0113465c0.015252,0.0218189 0.039374,0.0416772 0.0727165,0.0592362 -0.0432756,0.0170236 -0.075378,0.0409685 -0.096126,0.0720079 -0.020748,0.0310354 -0.0312126,0.0688071 -0.0312126,0.113496 0,0.0457638 0.0111732,0.0872638 0.0333346,0.124154 0.0221772,0.0370591 0.0544528,0.0652638 0.0970157,0.0842402 0.042748,0.0191496 0.104283,0.0285512 0.184976,0.0285512 0.0430984,0 0.0835315,-0.00425591 0.121492,-0.0127677 0.0377717,-0.00833465 0.0695157,-0.0216378 0.0950591,-0.0397244 0.0253543,-0.0179134 0.046815,-0.0434528 0.064374,-0.0766181 0.017563,-0.0329921 0.026252,-0.0686339 0.026252,-0.106764 0,-0.0395512 -0.0101102,-0.0755512 -0.0305079,-0.108008 -0.0202205,-0.0326299 -0.0509016,-0.0587047 -0.0922244,-0.0785669 0.0312165,-0.020752 0.0540945,-0.0422126 0.0686339,-0.064378 0.0195157,-0.0297992 0.0290866,-0.0618937 0.0290866,-0.096126 0,-0.0588819 -0.0242953,-0.107654 -0.0728858,-0.146492 -0.0487717,-0.0388386 -0.123969,-0.0581693 -0.225772,-0.0581693 -0.0769685,0 -0.138866,0.0156102 -0.185508,0.0466417 -0.0599449,0.0406181 -0.0899173,0.0927598 -0.0899173,0.156421 0,0.0388465 0.0104646,0.0730748 0.0312126,0.102866zm0.156425 0.237472c0,-0.0352913 0.00975197,-0.063315 0.0292598,-0.084063 0.0195118,-0.0209291 0.0425669,-0.0312165 0.068815,-0.0312165 0.0267835,0 0.050189,0.0106457 0.0704055,0.0322835 0.0202205,0.0214567 0.0305039,0.0489488 0.0305039,0.0824685 0,0.0333386 -0.0101063,0.0608307 -0.0301496,0.0824646 -0.0202165,0.0216378 -0.0429173,0.0324567 -0.0681024,0.0324567 -0.0264252,0 -0.0496575,-0.0106457 -0.0702283,-0.0319213 -0.0203976,-0.0212835 -0.0305039,-0.0487717 -0.0305039,-0.0824724zm0.036 -0.264071c-0.0164921,-0.0161417 -0.0246496,-0.0374213 -0.0246496,-0.0636693 0,-0.0257165 0.00798031,-0.0466496 0.024122,-0.0626102 0.0161339,-0.0161378 0.037063,-0.0242953 0.0626024,-0.0242953 0.0253661,0 0.0461102,0.00833465 0.0624252,0.0248307 0.0163228,0.0163189 0.0244764,0.0377756 0.0244764,0.0640197 0,0.0253661 -0.00780315,0.045937 -0.0234094,0.0618976 -0.0156102,0.0159606 -0.0356496,0.0239449 -0.0597638,0.0239449 -0.0274961,0 -0.0493071,-0.00815748 -0.0658031,-0.0241181zm0.226386 1.22371c-0.0461102,-0.0260709 -0.107291,-0.039189 -0.183559,-0.039189 -0.063311,0 -0.115984,0.0106339 -0.157843,0.0319173 -0.0420315,0.0212874 -0.0748386,0.0526772 -0.0987874,0.0943543 -0.023937,0.0415 -0.0358189,0.0876102 -0.0358189,0.138157 0,0.0741299 0.0234094,0.135496 0.0704134,0.183909 0.0469921,0.0485945 0.104453,0.0727165 0.172732,0.0727165 0.0349409,0 0.0657992,-0.0060315 0.0925787,-0.0180906 0.0266024,-0.0122362 0.0524961,-0.0312126 0.0778583,-0.0572835 -0.00691732,0.0817559 -0.017378,0.135323 -0.0312165,0.160677 -0.0189764,0.0342283 -0.0455748,0.0514331 -0.0794528,0.0514331 -0.0189764,0 -0.0351102,-0.0060315 -0.0482402,-0.0182677 -0.0132992,-0.0120591 -0.0225236,-0.032811 -0.0281969,-0.062248l-0.210339 0.0264252c0.0124134,0.0406102 0.0303268,0.0743071 0.0535591,0.101272 0.0230551,0.0271299 0.0523189,0.0475276 0.0872638,0.0617126 0.0349331,0.0140118 0.082815,0.0209252 0.143291,0.0209252 0.102689,0 0.18285,-0.0319213 0.240665,-0.0957677 0.057815,-0.0640236 0.0867283,-0.16476 0.0867283,-0.302205 0,-0.0934646 -0.0138307,-0.168843 -0.0413228,-0.225768 -0.0274882,-0.0569331 -0.0643819,-0.0986102 -0.110315,-0.124681zm-0.101441 0.127874c0.0209252,0.0234055 0.0312087,0.055689 0.0312087,0.0968268 0,0.0406142 -0.0099252,0.0716575 -0.0296142,0.0934685 -0.019689,0.0219882 -0.0445157,0.032811 -0.074311,0.032811 -0.0287323,0 -0.0526693,-0.0111732 -0.0720039,-0.0336969 -0.0191535,-0.0225236 -0.0287323,-0.0551575 -0.0287323,-0.0977205 0,-0.0422126 0.00922441,-0.0739606 0.0278504,-0.0950591 0.018437,-0.0211063 0.0416772,-0.0317441 0.0698701,-0.0317441 0.0297953,0 0.0549803,0.0117047 0.0757323,0.0351142zm-1.31763 0.614079l0 -0.774673 -0.175043 0c-0.0225236,0.0477087 -0.0537441,0.0879685 -0.0934646,0.120598 -0.0399055,0.0324567 -0.0957756,0.0603031 -0.167953,0.0835315l0 0.173626c0.0489488,-0.0148937 0.0895591,-0.0305039 0.121843,-0.046815 0.0324488,-0.016315 0.0659724,-0.0375984 0.100555,-0.0638504l0 0.507583 0.214063 0zm-1.36706 -0.257425c0,-0.0744882 -0.0234094,-0.136031 -0.0704094,-0.184445 -0.047,-0.0485945 -0.10428,-0.0727165 -0.172209,-0.0727165 -0.0349409,0 -0.0657953,0.00602756 -0.0925787,0.0184449 -0.0265984,0.0122323 -0.0526693,0.0312165 -0.0778543,0.0569252 0.00656299,-0.081752 0.0168504,-0.135138 0.0306811,-0.160146 0.0189803,-0.0345827 0.0457559,-0.0519606 0.0799882,-0.0519606 0.0189764,0 0.0351102,0.00602756 0.0480591,0.0182677 0.0129449,0.0120551 0.0221732,0.032811 0.0278465,0.062248l0.210339 -0.0258937c-0.012063,-0.0409646 -0.0297953,-0.0748386 -0.0530276,-0.101803 -0.0230551,-0.0271299 -0.0523189,-0.0475276 -0.0874331,-0.0617126 -0.0352953,-0.0140118 -0.083185,-0.0209252 -0.143661,-0.0209252 -0.102508,0 -0.182846,0.0319173 -0.240661,0.0957677 -0.0578189,0.0640236 -0.0867244,0.16476 -0.0867244,0.302201 0,0.0938228 0.0138346,0.169374 0.0413268,0.226307 0.0274882,0.0569252 0.064374,0.0984252 0.110307,0.124496 0.0461102,0.0258937 0.107299,0.0388386 0.183563,0.0388386 0.063311,0 0.11598,-0.0106339 0.158197,-0.0319213 0.0420315,-0.0212835 0.0750157,-0.0526732 0.0986063,-0.0943504 0.0237638,-0.0415 0.0356457,-0.0874331 0.0356457,-0.137622zm-0.229673 -0.0925827c0.0193346,0.0225276 0.0290906,0.0553386 0.0290906,0.0982559 0,0.0420315 -0.00940157,0.0734252 -0.0280276,0.0945276 -0.0187953,0.0212835 -0.0418504,0.0317441 -0.0696929,0.0317441 -0.0301496,0 -0.0555157,-0.0117047 -0.0762598,-0.0351142 -0.0207559,-0.0232323 -0.0312205,-0.055689 -0.0312205,-0.0968307 0,-0.0406142 0.00993701,-0.0716535 0.0297992,-0.0934646 0.0200433,-0.021815 0.0446929,-0.032811 0.0741299,-0.032811 0.0287323,0 0.0528543,0.0113504 0.0721811,0.0336929zm0.153059 1.04444l-0.184445 0 -0.385563 0.458276 0 0.17398 0.385563 0 0 0.142417 0.184445 0 0 -0.142417 0.0955906 0 0 -0.164228 -0.0955906 0 0 -0.468028zm-0.184445 0.468028l-0.20378 0 0.20378 -0.239421 0 0.239421zm1.18784 -0.468028l-0.0670394 0.409504 0.180189 0.0258937c0.0170276,-0.0189764 0.0326339,-0.0321024 0.0468228,-0.0395512 0.0189764,-0.00992913 0.0388386,-0.0148937 0.0592323,-0.0148937 0.0321024,0 0.0579961,0.0104606 0.0773268,0.0315669 0.0195079,0.0211024 0.0290827,0.0544449 0.0290827,0.0998504 0,0.0443386 -0.0095748,0.0776811 -0.0287283,0.100024 -0.0193268,0.0223504 -0.0436299,0.0335236 -0.0730709,0.0335236 -0.0262441,0 -0.0489488,-0.00905118 -0.0681024,-0.0267874 -0.0189764,-0.0179055 -0.0310354,-0.0439803 -0.0363543,-0.0782047l-0.214063 0.0234094c0.0104646,0.0356457 0.0234094,0.065437 0.0390157,0.0893858 0.0156063,0.0237598 0.0360039,0.0452205 0.0610157,0.0640157 0.0251772,0.0189843 0.0556811,0.0331654 0.0915079,0.0427441 0.0358228,0.00940551 0.0789213,0.0141929 0.12911,0.0141929 0.069878,0 0.127339,-0.0118819 0.172209,-0.0358307 0.044874,-0.0239409 0.0794567,-0.0585236 0.103929,-0.103921 0.0244764,-0.0454055 0.0367087,-0.0925787 0.0367087,-0.141886 0,-0.069874 -0.0237598,-0.127866 -0.0712913,-0.173976 -0.0473504,-0.0461102 -0.109248,-0.0691654 -0.185508,-0.0691654 -0.0225276,0 -0.0452283,0.00283465 -0.0682835,0.00833071 -0.0230551,0.00549606 -0.0462913,0.0138307 -0.069878,0.0250079l0.0182677 -0.114394 0.340339 0 0 -0.168839 -0.502437 0zm1.65354 0.402055c-0.101449,0.0751969 -0.170618,0.140465 -0.2075,0.195618 -0.0368898,0.0553386 -0.0590591,0.114213 -0.0663346,0.177l0.634913 0 0 -0.172567 -0.330398 0c0.0193268,-0.0189764 0.0363504,-0.0344055 0.0507165,-0.0461102 0.0143701,-0.011878 0.042748,-0.0324528 0.0854882,-0.0618976 0.0716457,-0.0505433 0.12113,-0.0970039 0.14826,-0.13922 0.0271378,-0.0422087 0.0407953,-0.0865472 0.0407953,-0.133012 0,-0.043626 -0.0118819,-0.083 -0.0356457,-0.118291 -0.0235906,-0.0351102 -0.0562205,-0.061189 -0.0975472,-0.0782126 -0.0414961,-0.0168465 -0.0994961,-0.0253622 -0.173799,-0.0253622 -0.0714724,0 -0.127343,0.00887008 -0.167602,0.0267795 -0.040437,0.0177362 -0.0716496,0.0434528 -0.0938189,0.0767953 -0.0221654,0.0335197 -0.0374213,0.0799843 -0.0457559,0.139575l0.211933 0.0172008c0.00603543,-0.0430945 0.017563,-0.0730669 0.0345906,-0.0899173 0.0171969,-0.0170197 0.0391929,-0.0255315 0.0663268,-0.0255315 0.0258937,0 0.0475315,0.00833071 0.0647323,0.0246457 0.0170236,0.0164961 0.0257126,0.0363583 0.0257126,0.0595906 0,0.0214606 -0.00868898,0.0441614 -0.0260709,0.0681024 -0.017378,0.0237638 -0.0569252,0.0588819 -0.118996,0.104815z"/>
 </g>
 <rect class="fil2" width="6.82666" height="6.82666"/>
</svg>
