<?xml version="1.0" encoding="UTF-8"?>
<!DOCTYPE svg PUBLIC "-//W3C//DTD SVG 1.1//EN" "http://www.w3.org/Graphics/SVG/1.1/DTD/svg11.dtd">
<svg version="1.1" xmlns="http://www.w3.org/2000/svg" xmlns:xlink="http://www.w3.org/1999/xlink" x="0" y="0" width="787" height="1152" viewBox="0, 0, 787, 1152">
  <defs>
    <linearGradient id="Gradient_1" gradientUnits="userSpaceOnUse" x1="251.493" y1="350.659" x2="263.242" y2="271.77">
      <stop offset="0" stop-color="#FFFFFE"/>
      <stop offset="0.509" stop-color="#C7E7F1"/>
      <stop offset="1" stop-color="#ADDAD8"/>
    </linearGradient>
    <linearGradient id="Gradient_2" gradientUnits="userSpaceOnUse" x1="38.864" y1="263.888" x2="65.186" y2="254.368">
      <stop offset="0" stop-color="#FFFFFE"/>
      <stop offset="0.509" stop-color="#C7E7F1"/>
      <stop offset="1" stop-color="#ADDAD8"/>
    </linearGradient>
  </defs>
  <g id="Layer_1">
    <path d="M43.107,1122.184 C41.735,1123.9 41.08,1125.022 45.529,1127.076 C49.985,1129.125 132.662,1145.361 139.811,1146.637 C152.104,1148.838 156.258,1150.209 167.005,1151.877 C174.532,1152.215 197.192,1147.029 201.505,1145.902 C202.8,1147.193 204.097,1148.678 205.493,1150.023 C220.216,1150.346 257.066,1149.877 259.496,1149.418 C267.27,1147.94 267.827,1145.717 260.051,1141.639 C250.553,1136.66 161.309,1115.773 161.309,1115.773 L43.107,1122.184" fill="#453832"/>
    <path d="M689.725,935.641 C721.071,951.717 750.519,950.772 758.191,955.428 C765.879,960.092 760.42,1002.412 754.091,1013.69 C747.76,1024.967 743.148,1065.486 738.586,1061.174 C734.031,1056.863 727.287,1038.424 723.435,1027.881 C719.591,1017.332 710.562,996.734 689.092,991.135 C667.629,985.529 689.725,935.641 689.725,935.641" fill="#4D4E4C"/>
    <path d="M694.979,1017.248 C708.262,1032.215 711.959,1039.621 715.586,1050.479 C721.573,1068.418 724.059,1079.469 725.723,1099.197 C727.393,1118.93 717.271,1139.67 730.628,1144.998 C735.646,1145.574 733.636,1144.887 740.172,1146.84 C758.79,1127.57 770.74,1093.008 773.145,1067.076 C775.36,1042.996 775.297,1052.158 773.477,1026.938 C771.662,1001.729 784.421,1006.301 784.421,1006.301 C788.892,988.523 785.796,962.848 780.854,960.369 C768.523,951.936 759,950.068 759,950.068 C747.867,948.824 740.133,948.309 731.384,949.656 C741.271,958.309 742.768,968.775 744.823,975.371 C748.021,985.592 744.163,993.977 736.505,1001.637 C719.123,989.498 702.221,1001.656 694.979,1017.248" fill="#6B594F"/>
    <path d="M745.053,1003.137 C745.053,1018.539 729.14,1049.869 725.029,1050.895 C720.925,1051.912 717.844,1053.971 715.788,1048.834 C713.731,1043.695 701.42,1024.703 697.812,1019.051 C694.233,1013.398 703.979,1000.572 708.092,1000.061 C712.196,999.549 723.496,994.918 732.223,1000.572 C736.505,1001.637 743.512,993.891 744.54,991.842 C746.085,989.787 745.053,1003.137 745.053,1003.137" fill="#4A3C35"/>
    <path d="M771.742,977.359 C763.202,975.227 749.1,957.115 746.239,950.678 L748.726,949.572 C751.35,955.463 765.182,972.922 772.401,974.719 L771.742,977.359" fill="#423831"/>
    <path d="M735.177,1145.115 L733.207,1143.246 C744.246,1131.586 755.845,1110.303 760.801,1092.637 C763.577,1082.699 764.437,1073.043 765.343,1062.82 C765.57,1060.254 765.809,1057.648 766.074,1054.982 C766.913,1046.551 768.014,1026.211 768.894,1009.869 C769.392,1000.713 769.811,993.033 770.058,989.893 L770.327,986.703 C771.125,977.789 772.598,961.221 767.121,955.742 L769.054,953.811 C775.428,960.19 773.927,976.938 773.042,986.94 L772.764,990.106 C772.523,993.23 772.111,1000.887 771.624,1010.016 C770.729,1026.389 769.631,1046.754 768.781,1055.264 C768.517,1057.906 768.285,1060.502 768.056,1063.061 C767.135,1073.416 766.267,1083.191 763.418,1093.369 C759.091,1108.844 747.998,1131.586 735.177,1145.115" fill="#423831"/>
    <path d="M725.59,1079.053 L722.869,1079.053 C722.869,1075.145 724.531,1073.205 725.929,1072.252 C728.635,1070.418 732.347,1070.867 734.702,1071.809 C739.428,1073.699 741.384,1073.065 744.621,1072.027 C745.58,1071.723 746.613,1071.385 747.813,1071.09 C752.344,1069.951 758.851,1058.576 760.12,1053.461 C760.457,1052.106 760.519,1050.723 760.569,1049.4 C760.655,1047.131 760.739,1044.996 762.309,1043.617 C763.455,1042.619 765.11,1042.258 767.551,1042.473 L767.299,1045.186 C765.712,1045.035 764.636,1045.203 764.106,1045.662 C763.416,1046.27 763.356,1047.77 763.287,1049.5 C763.233,1050.902 763.172,1052.496 762.766,1054.125 C761.453,1059.35 754.704,1072.174 748.484,1073.725 C747.346,1074.008 746.361,1074.328 745.458,1074.615 C742.029,1075.717 739.323,1076.584 733.687,1074.338 C731.81,1073.58 729.164,1073.35 727.454,1074.51 C726.222,1075.342 725.59,1076.879 725.59,1079.053" fill="#423831"/>
    <path d="M749.51,1072.406 L746.791,1072.406 C746.791,1053.918 740.172,1010.357 735.341,1002.344 L737.665,1000.934 C742.778,1009.42 749.51,1053.18 749.51,1072.406" fill="#423831"/>
    <path d="M234.645,984.791 C241.974,1048.049 256.711,1070.895 260.328,1095.494 C263.945,1120.094 248.464,1119.328 227.63,1116.391 C206.791,1113.445 144.893,1110.387 140.311,1102.662 C135.738,1094.934 162.199,1079.563 172.299,1068.223 C182.395,1056.895 176.267,1016.301 175.045,994.881 C173.818,973.455 234.645,984.791 234.645,984.791" fill="#4D4E4C"/>
    <path d="M305.676,617.475 C329.404,684.266 338.689,710.963 427.537,931.102 L519.56,905.066 C483.295,788.826 472.579,749.037 470.599,707.203 C468.743,667.918 477.766,596.988 476.792,592.58 C471.825,570.095 412.5,556.893 389.5,552.41 C366.509,547.922 305.676,617.475 305.676,617.475" fill="#75A2A1"/>
    <path d="M470.528,662.988 C463.017,693.832 434.159,716.932 429.47,736.154 C424.794,755.356 386,820.57 392.671,839.186 C360.933,769.754 323.197,672.242 318.91,662.988 C314.639,653.721 463.643,592.143 463.643,592.143 C463.134,618.715 475.218,643.773 470.528,662.988" fill="#65898A"/>
    <path d="M209.621,288.868 C190.352,308.14 83.067,383.029 83.067,383.029 C76.269,357.536 64.427,280.964 64,272.625 C56.601,262.717 10.617,285.893 6.879,296.154 C15,342.91 23.93,411.268 33.767,454.426 C37.103,469.097 47.438,467.04 59.737,461.424 C97.214,444.318 236.3,375.447 241.15,371.136 C246.004,366.827 209.621,288.868 209.621,288.868" fill="#75A2A1"/>
    <path d="M495.461,529.129 C469.728,513.199 445.131,503.722 429.052,488.214 C415.103,453.46 439.388,352.377 451.238,325.204 C471.975,277.636 444.971,261.487 434.885,250.759 C424.805,240.037 366.26,242.368 289.013,255.575 C255.871,261.24 236.19,274.724 217.49,285.414 C207.279,291.245 200.657,285.512 202.343,303.433 C206.575,348.508 210.552,434.032 254.751,503.722 C281.949,556.416 294.524,606.184 302.203,636.943 C313.933,663.109 284.676,682.357 363.128,684.367 C378.265,683.594 366.686,650.547 365.658,630.906 C369.344,640.273 397.778,657.898 412.907,657.119 C449.932,639.996 474.515,638.703 500.998,601.289 C525.147,567.169 514.12,538.454 495.461,529.129" fill="#75A2A1"/>
    <path d="M263.479,261.002 C244.108,320.879 268.743,402.196 293.307,445.483 C299.35,412.277 338.948,261.498 340.076,252.659 C341.305,243.072 339.262,237.124 324.59,237.894 C309.913,238.663 270.807,238.373 263.479,261.002" fill="#FFFFFE"/>
    <path d="M257.289,325.319 C260.067,378.242 280.945,427.508 293.307,445.483 C296.887,425.846 315.641,353.916 324.643,305.867 C310.887,292.807 297.779,286.728 284.914,277.718 C277.42,287.576 266.794,302.147 257.289,325.319 z" fill="url(#Gradient_1)"/>
    <path d="M305.595,397.678 C298.358,358.673 290.336,309.473 288.342,303.882 C293.196,299.127 296.6,291.21 298.765,286.864 C294.496,282.056 289.629,277.718 284.914,276.44 C279.765,281.583 277.193,285.44 275.047,292.301 C276.197,296.855 276.516,299.157 278.815,300.705 C274.527,329 274.096,374.794 272.733,401.758 C279.218,422.338 286.716,434.672 293.442,445.527 C295.805,435.868 299.81,420.768 305.595,397.678" fill="#F3B348"/>
    <path d="M291.028,299.889 C294.691,298.671 295.916,292.972 298.765,286.864 C294.496,282.068 288.587,277.5 285.733,277.091 C285.058,277.921 294.44,285.59 292.647,289.775 C289.983,295.968 290.815,295.476 288.176,299.079 C288.342,303.882 297.159,347.081 299.41,421.283 C301.356,415.307 303.355,406.603 305.595,397.678 C298.358,358.673 293.029,305.484 291.028,299.889" fill="#ED9646"/>
    <path d="M282.885,300.705 C281.664,311.291 280.442,322.281 280.848,332.051 C281.277,342.255 284.516,343.858 284.107,335.712 C283.696,327.573 284.11,311.291 282.885,300.705" fill="#ED9646"/>
    <path d="M56.237,145.309 C62.818,138.729 70.198,137.581 74.325,140.925 C92.422,155.181 89.77,153.894 84.17,171.819 C80.51,200.348 74.893,237.013 44.941,244.454 C14.989,251.886 1.483,225.892 0.764,197.125 C-0.346,153.811 12.848,156.923 42.799,149.493 C47.191,146.701 51.678,147.299 56.237,145.309" fill="#FCE1C6"/>
    <path d="M41.985,154.081 C47.568,150.851 48.053,151.776 53.491,151.889 C56.091,151.942 70.488,163.953 70.488,174.911 C72.69,175.542 66.653,156.82 59.524,146.406 C85.291,137.634 90.33,155.573 84.732,174.616 C85.84,201.252 74.708,236.635 46.96,243.511 C19.222,250.402 5.69,251.407 2.4,202.064 C1.562,189.446 0.742,173.437 7.985,165.595 C13.449,167.173 27.184,169.98 28.272,185.882 C33.753,172.17 24.986,164.492 18.402,158.47 C22.636,156.704 25.958,155.81 32.655,155.727 C35.765,155.685 46.37,165.595 49.104,179.85 C51.298,166.144 44.72,162.849 41.985,154.081" fill="#F6C8A7"/>
    <path d="M6.981,221.311 C10.299,240.578 13.314,270.234 15.122,281.301 C27.724,280.916 51.043,273.734 54.847,268.314 C54.614,260.355 48.963,224.025 48.963,224.025 L6.981,221.311" fill="#F6C8A7"/>
    <path d="M9.635,201.234 C5.198,192.533 6.971,182.504 5.249,179.303 C6.94,180.496 12.373,193.009 15.659,188.616 C14.567,190.82 10.731,192.455 10.731,196.844 C15.118,196.844 26.074,195.201 31.021,188.079 C42.19,190.503 46.921,187.524 51.298,185.882 C56.227,187.807 68.801,184.665 72.137,180.39 L69.943,188.079 C63.153,193.143 55.73,195.424 49.439,194.22 C33.762,202.622 35.666,199.519 32.109,196.844 C27.816,201.039 15.929,207.608 9.635,201.234" fill="#F2B28D"/>
    <path d="M87.387,171.965 C79.021,170.838 75.975,170.527 68.297,169.436 C64.593,168.907 62.549,176.545 63.369,180.39 C64,178.592 65.639,175.063 68.634,174.85 C75.432,174.362 83.56,176.954 91.916,178.084 C95.208,178.525 94.515,177.975 95.973,180.313 C95.092,175.521 92.288,172.633 87.387,171.965" fill="#FCE1C6"/>
    <path d="M81.458,194.11 C79.942,188.57 65.689,188.616 65.689,188.616 C57.171,195.497 49.007,211.008 50.409,221.22 C50.62,222.843 51.148,224.176 51.906,225.25 C50.241,212.155 76.11,200.505 81.458,194.11" fill="#F2B28D"/>
    <path d="M263.479,261.002 C237.92,276.542 221.739,278.654 214.493,295.262 C207.249,311.876 196.386,328.265 200.529,349.354 C196.566,318.984 199.101,311.286 201.919,307.089 C194.153,313.575 95.93,375.676 95.93,375.676 L88.084,379.598 C114.989,360.413 192.468,299.343 197.298,295.029 C200.861,288.524 214.659,282.149 216.343,282.706 C224.741,278.787 257.466,262.332 263.479,261.002" fill="#8BB0AF"/>
    <path d="M53.185,242.797 C45.718,245.243 30.376,250.587 23.64,247.69 C28.19,251.535 44.245,255.039 45.991,254.092 L48.274,272.875 C51.794,271.878 53.672,270.625 54.847,268.314 L53.185,242.797" fill="#F2B28D"/>
    <path d="M14.276,274.909 C11.412,277.944 13.087,279.745 10.238,283.268 L13.025,294.025 C34.882,293.91 48.884,287.748 61.376,276.094 C61.376,276.094 60.033,264.312 58.981,262.383 C57.947,260.444 55.522,261.506 55.522,261.506 L55.62,264.941 C41.256,278.687 17.399,280.711 14.453,280.811 L14.276,274.909 z" fill="url(#Gradient_2)"/>
    <path d="M406.623,246.685 C426.553,236.524 432.176,253.175 474.351,258.774 C517.104,264.456 606.734,269.31 616.475,270.831 C630.56,273.034 635.217,279.283 636.15,289.816 C641.973,355.342 649.391,435.814 647.33,458.536 C645.779,475.609 598.433,464.341 584.263,452.709 L572.827,332.568 C572.827,332.568 486.204,335.566 422.955,348.768 C401.923,353.16 393.407,253.425 406.623,246.685" fill="#75A2A1"/>
    <path d="M353.211,247.055 C383.778,247.873 408.598,245.522 421.072,253.708 C415.256,265.259 416.346,301.365 422.378,309.078 C415.343,282.131 424.327,254.344 437.944,253.627 C445.99,253.206 452.745,256.877 457.682,259.029 C462.609,261.178 553.204,266.829 575.636,269.23 C550.012,264.423 470.379,255.952 460.43,250.044 C450.901,242.184 446.193,239.61 442.349,240.037 C435.772,240.77 434.018,242.4 426.086,244.75 C399.983,239.61 376.363,244.24 353.211,247.055" fill="#8BB0AF"/>
    <path d="M66.407,172.958 C71.33,171.861 86.004,175.797 94.273,177.516 C99.38,178.574 98.304,190.503 95.217,203.091 C92.606,213.75 89.707,222.403 74.086,233.983 C65.274,240.523 58.404,242.944 46.96,243.511 C45.174,230.38 76.64,193.429 81.994,187.011 C70.229,188.059 69.43,186.03 66.155,183.944 C60.592,180.419 62.572,173.804 66.407,172.958" fill="#F6C8A7"/>
    <path d="M388.794,488.214 C427.712,507.035 476.477,559.499 484.225,598.918 C491.989,638.326 484.078,685.76 402.841,700.496 C384.21,703.867 232.204,733.197 217.074,733.992 C228.229,780.059 230.284,835.381 236.896,899.043 C245.131,961.986 261.249,1021.395 262.153,1029.967 C251.867,1040.795 155.269,1036.764 155.269,1036.764 C155.26,1036.764 160.515,979.414 153.072,920.494 C140.134,819.002 120.75,736.484 112.904,692.805 C107.779,664.293 117.506,657.918 137.222,651.33 C167.992,641.049 329.546,588.025 329.546,588.025 L388.794,488.214" fill="#75A2A1"/>
    <path d="M338.273,587.752 C320.208,589.469 170.316,638.045 125.02,656.695 C172.974,648.695 359.196,597.277 338.273,587.752" fill="#8BB0AF"/>
    <path d="M643.548,458.232 C643.385,457.668 643.209,457.099 642.987,456.537 C642.767,455.952 642.514,455.394 642.253,454.853 C642.514,455.414 642.767,455.985 642.987,456.576 C643.195,457.126 643.385,457.674 643.548,458.232" fill="#F5F5F5"/>
    <path d="M584.263,452.709 C583.94,441.938 613.626,442.473 642.253,454.853 C646.992,456.981 649.256,462.43 646.074,465.924 C634.841,478.335 588.48,461.039 584.263,452.709" fill="#3B464B"/>
    <path d="M592.756,452.289 C593.6,462.661 593.547,472.674 592.695,478.167 C582.178,480.296 564.033,487.199 561.185,497.178 C558.337,507.153 558.503,518.258 557.116,532.105 C555.744,545.948 566.091,544.463 570.549,546.449 C570.795,562.629 581.551,568.903 595.677,566.038 C602.66,566.889 609.933,566.656 615.779,564.429 C622.038,564.484 626.539,566.112 631.518,564.782 C642.283,555.268 649.892,551.186 649.521,540.594 C648.45,510.642 642.794,497.459 639.584,489.072 C636.385,480.673 639.646,464.669 638.737,454.919 C623.193,444.98 597.665,445.459 592.756,452.289" fill="#F6C8A7"/>
    <path d="M563.848,520.202 C565.062,514.082 565.874,500.879 568.556,494.906 C570.256,491.085 583.835,487.587 588.148,485.947 C592.466,484.293 601.602,475.445 603.043,470.221 C604.638,462.051 600.656,465.948 601.276,459.751 C602.834,459.535 592.873,457.674 592.793,461.612 C592.571,476.611 593.547,472.674 592.695,478.167 C582.178,480.296 564.033,487.199 561.185,497.178 C558.337,507.153 558.503,518.258 557.116,532.105 C555.774,545.748 562.648,526.329 563.848,520.202" fill="#FCE1C6"/>
    <path d="M631.642,550.108 C629.493,554.912 623.749,556.897 613.82,551.744 C609.22,554.428 608.038,552.918 602.686,549.042 C598.471,549.828 586.331,556.416 583.042,554.259 C578.08,551.002 581.791,550.543 580.518,546.455 C579.761,544.05 574.185,536.378 574.955,530.941 C572.259,532.829 570.661,540.546 570.443,547.1 C570.443,547.1 567.053,550.966 568.401,556.174 C570.839,565.507 572.733,567.393 583.835,566.985 C586.437,566.883 590.841,567.655 594.293,566.702 C597.018,569.404 597.818,569.488 609.824,566.774 C613.857,570.641 619.451,569.466 625.038,565.731 C634.108,567.817 645.195,553.629 648.111,546.665 C643.165,552.479 641.18,557.579 631.642,550.108" fill="#F2B28D"/>
    <path d="M370.359,588.494 C387.859,594.137 458.978,623.15 467.143,622.729 C475.308,622.295 488.268,615.088 494.624,608.184 C495.295,613.074 486.936,640.609 480.269,646.273 C473.102,645.107 469.973,637.736 457.47,633.475 C444.958,629.217 370.359,588.494 370.359,588.494" fill="#65898A"/>
    <path d="M227.447,71.845 C211.83,68.677 174.576,49.762 194.73,13.992 C196.437,28.965 202.959,27.013 210.294,20.973" fill="#322118"/>
    <path d="M248.988,213.634 C269.113,233.055 266.008,245.62 266.474,267.427 C270.893,270.445 277.439,274.292 283.886,274.128 C303.65,264.044 319.635,254.716 330.666,245.565 C325.435,236.969 309.741,187.931 309.741,187.931 L248.988,213.634" fill="#F6C8A7"/>
    <path d="M259.314,224.967 C254.273,214.753 251.973,209.262 251.973,209.262 L311.648,181.17 C314,206.502 323.605,228.558 329.888,242.997 C328.477,246.486 312.122,228.677 306.312,222.753 C296.16,224.69 266.424,229.705 259.314,224.967" fill="#EFA680"/>
    <path d="M361.082,111.753 C357.887,170.998 311.378,220.961 257.194,223.339 C203.017,225.715 161.691,179.609 164.889,120.367 C168.09,61.123 214.599,11.158 268.774,8.781 C322.951,6.408 364.285,52.505 361.082,111.753" fill="#FCE1C6"/>
    <path d="M361.021,114.351 C357.908,171.998 306.899,224.559 254.15,226.026 C209.549,227.269 167.008,180.385 170.12,122.73 C173.229,65.078 218.477,16.474 271.194,14.159 C323.919,11.846 364.133,56.7 361.021,114.351" fill="#F6C8A7"/>
    <path d="M361.259,127.167 C360.083,148.885 334.76,188.764 300.624,212.142 C298.98,203.933 328.883,189.75 336.413,134.137 C345.279,68.727 302.181,37.785 322.041,36.911 C341.879,36.041 362.423,105.466 361.259,127.167" fill="#F3B994"/>
    <path d="M218.026,166.549 C234.411,187.866 251.196,199.866 263.157,195.553 C277.089,190.537 284.657,165.792 279.941,144.778 C261.822,160.592 231.23,168.883 218.026,166.549" fill="#E15F42"/>
    <path d="M289.454,98.477 C288.414,109.42 280.341,118.664 271.434,119.13 C262.514,119.599 256.131,111.09 257.166,100.15 C258.216,89.209 266.273,79.958 275.193,79.491 C284.102,79.029 290.483,87.528 289.454,98.477" fill="#FFFFFE"/>
    <path d="M288.902,100.726 C288.22,107.948 282.896,114.047 277.026,114.351 C271.15,114.66 266.931,109.06 267.614,101.835 C268.294,94.614 273.629,88.513 279.5,88.212 C285.381,87.913 289.599,93.512 288.902,100.726" fill="#654628"/>
    <path d="M288.718,101.492 C288.157,107.452 283.764,112.488 278.91,112.729 C274.06,112.99 270.579,108.375 271.15,102.407 C271.716,96.45 276.104,91.411 280.953,91.165 C285.812,90.912 289.288,95.536 288.718,101.492" fill="#322118"/>
    <path d="M276.836,96.281 C276.683,97.834 275.543,99.154 274.265,99.215 C273.008,99.283 272.085,98.07 272.233,96.513 C272.387,94.958 273.536,93.645 274.8,93.584 C276.07,93.509 276.982,94.719 276.836,96.281" fill="#FFFFFE"/>
    <path d="M218.777,108.285 C217.738,119.23 209.67,128.466 200.756,128.939 C191.846,129.4 185.447,120.898 186.485,109.953 C187.533,99.009 195.606,89.766 204.509,89.297 C213.426,88.839 219.817,97.343 218.777,108.285" fill="#FFFFFE"/>
    <path d="M218.235,110.53 C217.541,117.759 212.223,123.85 206.344,124.153 C200.465,124.467 196.264,118.863 196.936,111.642 C197.631,104.423 202.941,98.33 208.821,98.022 C214.703,97.714 218.908,103.325 218.235,110.53" fill="#654628"/>
    <path d="M218.045,111.298 C217.479,117.263 213.09,122.296 208.231,122.546 C203.383,122.797 199.908,118.172 200.465,112.213 C201.027,106.248 205.427,101.216 210.286,100.968 C215.136,100.715 218.61,105.344 218.045,111.298" fill="#322118"/>
    <path d="M206.15,106.082 C206.005,107.645 204.855,108.952 203.594,109.019 C202.317,109.088 201.42,107.886 201.557,106.325 C201.708,104.761 202.861,103.451 204.132,103.383 C205.395,103.312 206.311,104.527 206.15,106.082" fill="#FFFFFE"/>
    <path d="M254.059,68.877 C261.829,61.921 279.881,54.641 301.294,66.392 C299.694,58.294 291.094,52.445 277.825,53.598 C267.066,54.527 260.371,59.736 254.059,68.877" fill="#322118"/>
    <path d="M218.126,74.85 C210.841,69.97 201.857,65.085 189.963,78.595 C191.478,73.54 193.204,67.97 201.339,65.561 C207.615,63.716 213.562,66.275 218.126,74.85" fill="#322118"/>
    <path d="M370.114,131.484 C385.735,128.327 404.07,113.28 406.549,79.828 C399.701,94.217 368.039,89.587 360.704,83.544" fill="#322118"/>
    <path d="M218.777,30.221 C229.341,49.288 248.811,53.693 264.369,49.272 C251.881,42.638 249.849,31.587 247.979,23.677 C264.917,41.315 287.484,41.562 307.015,41.546 C315.773,63.891 328.786,77.827 339.747,86.022 C342.136,98.172 341.416,118.093 336.413,134.137 C355.419,114.628 355.389,147.792 350.393,157.563 C364.706,145.629 374.167,129.239 375.067,90.601 C390.682,87.442 397.003,67.801 394.781,53.898 C387.936,68.281 373.287,67.89 365.96,61.844 C379.668,56.117 383.071,29.944 379.713,23.117 C372.774,33.983 356.508,41.444 347.489,32.987 C317.354,4.738 269.237,-15.341 216.058,16.347 C197.506,27.403 170.274,54.555 167.154,102.917 C177.541,59.428 209.038,35.225 218.777,30.221" fill="#322118"/>
    <path d="M388.91,113.855 C389.413,126.619 379.289,140.863 366.304,145.651 C353.291,150.46 337.982,152.507 337.479,139.744 C337.355,136.633 338.185,133.272 339.701,129.874 C344.4,119.364 354.644,103.066 364.454,99.439 C377.466,94.642 388.407,101.085 388.91,113.855" fill="#F3B994"/>
    <path d="M373.837,111.718 C364.09,109.262 357.191,116.407 355.961,124.441 C354.423,134.481 361.378,139.196 367.246,136.895 C371.284,135.305 364.734,128.108 358.861,127.383 C359.636,116.025 365.297,112.627 373.837,111.718" fill="#EFA680"/>
    <path d="M263.157,195.553 C272.103,192.337 278.394,180.97 280.532,167.7 C277.992,167.068 275.293,166.773 272.498,166.916 C259.185,167.609 248.896,177.542 249.496,189.11 C249.609,191.205 250.087,193.206 250.845,195.073 C255.301,196.65 259.46,196.886 263.157,195.553" fill="#E57758"/>
    <path d="M230.424,112.838 C237.355,127.229 240.798,140.76 237.958,145.371 C232.78,144.958 223.423,140.371 220.236,138.479 C227.625,135.349 231.377,124.447 230.424,112.838" fill="#EFA680"/>
    <path d="M225.293,12.758 C242.698,21.229 309.082,31 335.682,25.15 C312.941,25.887 242,16.497 225.293,12.758" fill="#654628"/>
    <path d="M220.236,138.479 C225.095,140.444 233.033,141.811 237.958,145.371 C236.314,148.112 224.009,152.909 219.898,149.203 C219.624,146.737 219.898,141.811 220.236,138.479" fill="#D6946C"/>
    <path d="M353.211,247.055 C369.091,260.952 358.22,313.428 358.22,325.324 L330.428,338.721 L361.691,327.313 C361.691,313.714 367.1,255.991 353.211,247.055" fill="#537171"/>
    <path d="M350.276,352.619 C350.276,352.619 294.686,453.067 291.216,462.804 C288.73,469.754 291.712,477.698 295.547,481.627 C288.73,471.741 293.237,462.539 299.655,449.4 C310.077,428.065 353.747,353.119 353.747,353.119 L350.276,352.619" fill="#537171"/>
    <path d="M238.835,340.086 L253.361,344.709 L234.215,334.143 L238.835,340.086" fill="#537171"/>
    <path d="M234.215,368.474 C239.498,385.644 273.831,434.498 287.038,449.688 C274.486,433.18 246.102,386.307 234.215,368.474" fill="#537171"/>
    <path d="M454.209,329.231 C483.639,316.849 551.715,294.055 578.042,294.055 C533.19,304.472 468.147,330.787 454.209,329.231" fill="#8BB0AF"/>
    <path d="M395.089,413.977 C369.805,456.642 334.562,512.704 322.306,533.224 C339.342,517.739 395.089,423.268 395.089,413.977" fill="#65898A"/>
    <path d="M108.706,382.159 C139.682,383.705 190.082,377.915 204.018,377.915 C172.66,374.562 127.29,377.512 108.706,382.159" fill="#8BB0AF"/>
    <path d="M235.71,649.029 C255.319,648.496 377.435,650.191 431.531,654.352 C378.734,659.01 259,652.123 235.71,649.029" fill="#65898A"/>
    <path d="M599.246,458.734 C594.484,458.62 591.276,464.78 591.276,464.78 L592.965,465.128 L592.873,464.169 C595.411,460.341 597.413,460.37 599.454,460.209 C603.831,459.863 612.425,461.391 620.019,463.232 C619.816,462.827 619.623,462.414 619.44,461.995 C611.935,460.314 603.572,458.835 599.246,458.734" fill="#B2B2B2"/>
    <path d="M591.276,464.78 C591.276,464.78 591.32,450.869 591.84,447.928 C591.973,447.16 592.25,446.474 592.582,445.827 C592.294,445.889 592.022,445.962 591.753,446.025 C591.717,446.169 591.652,446.294 591.622,446.451 C591.107,449.386 591.276,464.78 591.276,464.78" fill="#D6D6D6"/>
    <path d="M591.276,464.78 C591.276,464.78 594.484,458.62 599.246,458.734 C603.572,458.835 611.935,460.314 619.44,461.995 C619.342,461.764 619.213,461.558 619.131,461.324 C617.481,457.039 617.656,452.635 619.218,449.294 C619.207,449.294 619.192,449.294 619.192,449.294 C619.223,449.227 619.271,449.167 619.297,449.096 C619.451,448.791 619.625,448.511 619.798,448.228 C619.928,448.014 620.042,447.784 620.185,447.592 C618.055,447.099 615.973,446.691 613.945,446.346 C614.58,450.024 614.402,455.635 613.127,459.254 C612.771,455.484 612.72,449.609 613.231,446.217 C610.92,445.848 608.698,445.565 606.574,445.385 C607.14,449.055 606.943,454.455 605.706,457.982 C605.356,454.335 605.306,448.74 605.768,445.299 C603.32,445.113 601.05,445.069 598.931,445.141 C599.511,448.819 599.318,454.235 598.084,457.772 C597.743,454.157 597.685,448.614 598.126,445.18 C596.271,445.265 594.565,445.45 593.021,445.745 C594.016,449.22 593.991,455.98 592.538,460.126 C592.127,455.794 592.127,448.685 592.909,445.765 C592.803,445.787 592.687,445.798 592.582,445.827 C592.25,446.474 591.973,447.16 591.84,447.928 C591.32,450.869 591.276,464.78 591.276,464.78" fill="#D6D6D6"/>
    <path d="M613.127,459.254 C614.402,455.635 614.58,450.024 613.945,446.346 C613.707,446.305 613.471,446.259 613.231,446.217 C612.72,449.609 612.771,455.484 613.127,459.254" fill="#FFFFFF"/>
    <path d="M605.706,457.982 C606.943,454.455 607.14,449.055 606.574,445.385 C606.305,445.354 606.026,445.324 605.768,445.299 C605.306,448.74 605.356,454.335 605.706,457.982" fill="#FFFFFF"/>
    <path d="M598.084,457.772 C599.318,454.235 599.511,448.819 598.931,445.141 C598.666,445.146 598.392,445.155 598.126,445.18 C597.685,448.614 597.743,454.157 598.084,457.772" fill="#FFFFFF"/>
    <path d="M592.538,460.126 C593.991,455.98 594.016,449.22 593.021,445.745 C592.987,445.751 592.943,445.759 592.909,445.765 C592.127,448.685 592.127,455.794 592.538,460.126" fill="#FFFFFF"/>
    <path d="M640.477,458.767 C640.483,459.127 640.463,459.474 640.44,459.83 C640.423,460.173 640.423,460.517 640.379,460.844 C640.342,461.101 640.273,461.329 640.229,461.583 C639.597,464.794 637.794,467.425 635.018,468.479 C631.248,469.92 626.872,468.06 623.969,464.236 C622.706,463.897 621.386,463.564 620.019,463.232 C623.168,469.258 629.193,472.512 634.276,470.573 C638.878,468.817 641.207,463.365 640.379,457.46 C640.386,457.557 640.386,457.654 640.396,457.75 C640.432,458.09 640.463,458.43 640.477,458.767" fill="#EBEBEB"/>
    <path d="M640.292,456.76 C640.255,456.581 640.242,456.403 640.201,456.218 C640.229,456.348 640.229,456.459 640.245,456.581 C640.263,456.642 640.281,456.707 640.292,456.76" fill="#EBEBEB"/>
    <path d="M623,462.827 C621.846,462.544 620.664,462.264 619.44,461.995 C619.623,462.414 619.816,462.827 620.019,463.232 C621.386,463.564 622.706,463.897 623.969,464.236 C623.624,463.79 623.299,463.328 623,462.827" fill="#EBEBEB"/>
    <path d="M621.846,460.458 C620.479,456.864 620.585,453.184 621.813,450.335 C621.805,450.317 621.783,450.306 621.773,450.296 C621.835,450.168 621.915,450.05 621.969,449.928 C622.008,449.844 622.043,449.749 622.085,449.665 C621.293,449.42 620.302,449.276 619.218,449.294 C617.656,452.635 617.481,457.039 619.131,461.324 C619.213,461.558 619.342,461.764 619.44,461.995 C620.664,462.264 621.846,462.544 623,462.827 C622.56,462.086 622.177,461.307 621.846,460.458" fill="#EBEBEB"/>
    <path d="M619.297,449.096 C619.451,448.796 619.625,448.511 619.798,448.228 C619.625,448.511 619.451,448.791 619.297,449.096" fill="#EBEBEB"/>
    <path d="M639.593,454.085 C639.56,453.972 639.535,453.85 639.496,453.732 C639.487,453.722 639.487,453.711 639.474,453.705 C639.469,453.705 639.466,453.699 639.457,453.699 C639.466,453.716 639.469,453.738 639.487,453.76 C639.528,453.863 639.56,453.974 639.593,454.085" fill="#FFFFFF"/>
    <path d="M640.201,456.218 C640.162,456.012 640.096,455.808 640.033,455.607 C640.065,455.694 640.078,455.774 640.096,455.857 C640.126,455.98 640.176,456.096 640.201,456.218" fill="#FFFFFF"/>
    <path d="M640.396,457.75 C640.432,458.09 640.463,458.431 640.477,458.767 C640.463,458.43 640.432,458.09 640.396,457.75" fill="#FFFFFF"/>
    <path d="M640.379,460.844 C640.423,460.517 640.423,460.173 640.44,459.83 C640.423,460.169 640.423,460.52 640.379,460.844" fill="#FFFFFF"/>
    <path d="M623.969,464.236 C626.872,468.06 631.248,469.92 635.018,468.479 C637.794,467.425 639.597,464.794 640.229,461.583 C640.157,461.936 640.096,462.292 640.009,462.627 C639.413,460.52 637.247,458.107 634.54,455.971 L634.618,467.992 C633.991,467.25 629.578,465.739 623.969,464.236" fill="#FFFFFF"/>
    <path d="M640.245,456.581 C640.229,456.459 640.229,456.348 640.201,456.218 C640.176,456.096 640.126,455.98 640.096,455.857 C640.149,456.096 640.211,456.348 640.245,456.581" fill="#FFFFFF"/>
    <path d="M623,462.827 C623.299,463.328 623.624,463.79 623.969,464.236 C629.578,465.739 633.991,467.25 634.618,467.992 L634.54,455.971 C634.479,455.919 634.404,455.875 634.343,455.824 L634.41,466.509 C633.758,465.727 628.96,464.28 623,462.827" fill="#FFFFFF"/>
    <path d="M622.115,449.678 C622.104,449.671 622.092,449.667 622.085,449.665 C622.043,449.749 622.008,449.844 621.969,449.928 C622.008,449.834 622.066,449.756 622.115,449.678" fill="#FFFFFF"/>
    <path d="M621.846,460.458 C622.177,461.307 622.56,462.086 623,462.827 C628.96,464.28 633.758,465.727 634.41,466.509 L634.343,455.824 C630.292,452.679 625.089,450.191 621.876,450.408 C621.852,450.38 621.835,450.357 621.813,450.335 C620.585,453.184 620.479,456.864 621.846,460.458" fill="#FFFFFF"/>
    <path d="M620.222,447.599 C620.204,447.599 620.197,447.592 620.185,447.592 C620.042,447.784 619.928,448.014 619.798,448.228 C619.933,448 620.073,447.8 620.222,447.599" fill="#ACACAC"/>
    <path d="M619.192,449.294 C619.192,449.294 619.207,449.294 619.218,449.294 C619.253,449.232 619.271,449.163 619.297,449.096 C619.271,449.167 619.223,449.227 619.192,449.294" fill="#ACACAC"/>
    <path d="M619.297,449.096 C619.271,449.163 619.253,449.232 619.218,449.294 C620.302,449.276 621.293,449.42 622.085,449.665 C622.171,449.492 622.269,449.337 622.365,449.182 C622.549,448.879 622.744,448.596 622.952,448.326 C622.973,448.311 622.973,448.278 622.995,448.264 C622.06,448.023 621.14,447.81 620.222,447.599 C620.073,447.8 619.933,448 619.798,448.228 C619.625,448.511 619.451,448.796 619.297,449.096" fill="#ACACAC"/>
    <path d="M623,448.264 C622.995,448.264 622.995,448.264 622.995,448.264 C622.973,448.278 622.973,448.311 622.952,448.326 C622.973,448.311 622.991,448.28 623,448.264" fill="#ACACAC"/>
    <path d="M622.365,449.182 C622.269,449.337 622.171,449.492 622.085,449.665 C622.092,449.667 622.104,449.671 622.115,449.678 C622.197,449.51 622.281,449.337 622.365,449.182" fill="#ACACAC"/>
    <path d="M640.292,456.76 C640.325,457.002 640.347,457.228 640.379,457.46 C640.352,457.228 640.325,457.002 640.292,456.76" fill="#F5F5F5"/>
    <path d="M639.929,455.058 C639.826,454.726 639.713,454.408 639.593,454.085 C639.774,454.59 639.918,455.107 640.033,455.607 C639.998,455.422 639.982,455.237 639.929,455.058" fill="#F5F5F5"/>
    <path d="M640.396,457.75 C640.386,457.654 640.386,457.557 640.379,457.46 C640.347,457.228 640.325,457.002 640.292,456.76 C640.281,456.707 640.263,456.642 640.245,456.581 C640.316,456.971 640.365,457.362 640.396,457.75" fill="#F5F5F5"/>
    <path d="M640.477,458.767 C640.483,459.127 640.463,459.474 640.44,459.83 C640.463,459.474 640.483,459.127 640.477,458.767" fill="#F5F5F5"/>
    <path d="M640.229,461.583 C640.273,461.329 640.342,461.101 640.379,460.844 C640.342,461.101 640.273,461.329 640.229,461.583" fill="#F5F5F5"/>
    <path d="M621.813,450.335 C621.863,450.201 621.907,450.057 621.969,449.928 C621.915,450.05 621.835,450.168 621.773,450.296 C621.783,450.306 621.805,450.317 621.813,450.335" fill="#F5F5F5"/>
    <path d="M640.033,455.607 C639.918,455.107 639.774,454.59 639.593,454.085 C639.56,453.974 639.528,453.863 639.487,453.76 C639.469,453.738 639.466,453.716 639.457,453.699 C639.727,454.413 639.929,455.137 640.096,455.857 C640.078,455.774 640.065,455.694 640.033,455.607" fill="#F5F5F5"/>
    <path d="M640.009,462.627 C640.096,462.292 640.157,461.936 640.229,461.583 C640.273,461.329 640.342,461.101 640.379,460.844 C640.423,460.52 640.423,460.169 640.44,459.83 C640.463,459.474 640.483,459.127 640.477,458.767 C640.463,458.431 640.432,458.09 640.396,457.75 C640.365,457.362 640.316,456.971 640.245,456.581 C640.211,456.348 640.149,456.096 640.096,455.857 C639.929,455.137 639.727,454.413 639.457,453.699 C637.807,453.032 636.158,452.384 634.521,451.796 L634.54,455.971 C637.247,458.107 639.413,460.52 640.009,462.627" fill="#F5F5F5"/>
    <path d="M634.54,455.971 L634.521,451.796 C634.448,451.772 634.385,451.751 634.312,451.727 L634.343,455.824 C634.404,455.875 634.479,455.919 634.54,455.971" fill="#F5F5F5"/>
    <path d="M622.115,449.678 C622.066,449.756 622.008,449.834 621.969,449.928 C621.907,450.057 621.863,450.201 621.813,450.335 C621.835,450.357 621.852,450.38 621.876,450.408 C625.089,450.191 630.292,452.679 634.343,455.824 L634.312,451.727 C631.019,450.545 627.745,449.544 624.553,448.683 C624.136,449.227 623.767,449.805 623.483,450.462 C623.242,450.129 622.737,449.873 622.115,449.678" fill="#F5F5F5"/>
    <path d="M622.365,449.182 C622.549,448.879 622.744,448.596 622.952,448.326 C622.744,448.596 622.549,448.879 622.365,449.182" fill="#F5F5F5"/>
    <path d="M622.365,449.182 C622.281,449.337 622.197,449.51 622.115,449.678 C622.737,449.873 623.242,450.129 623.483,450.462 C623.767,449.805 624.136,449.227 624.553,448.683 C624.031,448.544 623.513,448.395 623,448.264 C622.991,448.28 622.973,448.311 622.952,448.326 C622.744,448.596 622.549,448.879 622.365,449.182" fill="#F5F5F5"/>
    <path d="M257.658,1065.244 C246.17,1069.705 240.061,1077.248 232.497,1082.94 C218.506,1093.492 199.194,1085.76 192.168,1080.078 C188.715,1061.641 174.908,1052.168 165.487,1055.209 C154.985,1063.115 157.298,1061.393 143.295,1071.928 C129.302,1082.475 113.846,1084.856 99.399,1087.512 C84.945,1090.164 65.027,1094.779 55.604,1095.008 C46.194,1095.252 44.018,1102.971 44.589,1115.705 L41.962,1123.881 C44.219,1122.184 144.07,1137.18 164.492,1143.75 C178.298,1145.693 182.009,1141.523 204.564,1136.889 L212.244,1145.152 C212.244,1145.152 261.344,1143.68 265.605,1147.193 C265.605,1147.193 269.025,1130.463 269.649,1114.9 C270.038,1105.238 265.212,1087.316 257.658,1065.244" fill="#6B594F"/>
    <path d="M427.537,931.102 C441.846,962.117 448.331,968.393 472.579,972.367 C509.543,978.416 571.526,987.988 601.69,995.895 C665.771,1012.686 689.762,1029.729 689.754,1029.729 C700.412,1018.44 711.13,1007.025 712.879,982.537 C714.344,962.117 713.259,938.033 700.174,922.481 C679.732,915.607 656.464,920.602 612.081,905.398 C549.321,883.889 473.56,871.266 473.56,871.266 L427.537,931.102" fill="#75A2A1"/>
    <path d="M622.043,328.988 C611.405,351.779 585.585,412.141 588.606,429.294 C599.246,408.014 618.996,344.186 622.043,328.988" fill="#8BB0AF"/>
    <path d="M140.134,691.51 C158.374,711.277 199.402,778.135 205.482,790.297 C191.802,761.422 169.007,703.666 140.134,691.51" fill="#65898A"/>
    <path d="M536.935,973.371 C564.297,976.416 679.789,990.088 687.394,997.688 C650.913,999.207 546.055,971.857 536.935,973.371" fill="#65898A"/>
    <path d="M183.637,1135.848 C181.129,1126.582 161.069,1118.004 153.521,1114.781 L152.985,1114.543 C143.603,1110.527 130.926,1098.211 127.116,1090.953 C124.847,1086.613 122.638,1085.137 118.363,1085.137 L118.363,1082.418 C123.666,1082.418 126.8,1084.455 129.531,1089.691 C133.137,1096.563 145.158,1108.229 154.061,1112.049 L154.595,1112.264 C163.217,1115.955 183.409,1124.6 186.26,1135.141 L183.637,1135.848" fill="#423831"/>
    <path d="M238.374,1130.193 L235.654,1130.115 C236.139,1113.17 252.748,1084.393 263.004,1082.736 L263.435,1085.426 C255.209,1086.766 238.843,1113.736 238.374,1130.193" fill="#423831"/>
    <path d="M175.866,1137.615 C173.96,1137.615 165.77,1135.861 151.44,1132.777 C135.097,1129.236 114.749,1124.846 101.768,1122.928 L98.348,1122.412 C76.763,1119.217 58.089,1116.576 45.445,1116.559 L45.426,1113.84 C58.392,1113.654 77.053,1116.504 98.753,1119.729 L102.173,1120.234 C115.235,1122.176 135.625,1126.574 152.023,1130.115 C163.402,1132.57 174.162,1134.896 175.866,1134.896 C179.056,1134.896 196.486,1132.963 205.851,1131.926 C208.921,1131.586 211.352,1131.318 212.558,1131.191 C226.008,1129.813 261.811,1129.148 268.105,1129.721 L267.852,1132.428 C261.646,1131.873 226.185,1132.539 212.827,1133.9 C211.635,1134.027 209.21,1134.287 206.15,1134.631 C196.072,1135.752 179.207,1137.615 175.866,1137.615" fill="#423831"/>
    <path d="M138.093,1103.318 L137.46,1100.668 C148.507,1098.051 188.185,1082.137 191.212,1079.121 L193.139,1081.045 C189.46,1084.725 149.061,1100.723 138.093,1103.318" fill="#423831"/>
    <path d="M52.047,1101.4 C51.78,1104.25 63.607,1106.26 66.199,1105.598 C69.787,1104.699 76.312,1104.938 82.7,1106.525 C90.762,1108.518 93.364,1106.916 88.982,1105.723 C84.601,1104.523 71.256,1099.559 64.56,1098.367 C57.868,1097.191 52.402,1097.77 52.047,1101.4" fill="#97837B"/>
  </g>
</svg>
